<svg enable-background="new 0 0 139 768" viewBox="0 0 139 768" xmlns="http://www.w3.org/2000/svg" xmlns:xlink="http://www.w3.org/1999/xlink"><clipPath id="a"><path d="m-20.9-.3h1034v768h-1034z"/></clipPath><g style="clip-path:url(#a);fill:none;stroke:#323330;stroke-width:2;stroke-linecap:round;stroke-miterlimit:10"><path d="m86.4 576.9.4-.2.6-2.1-.4-.8-1.8-.1-.5.7-.8.2-3.1-.9-1.8-1.6-1.6-1.2-2.6-1.5-1-.2-.6.3-.7 1.1-.4.8-1.1.3h-1.4l-.7-.1-.6-.4-.3-.9.1-2.2.7-.3 1.7-.3.5-.3.8-1.8-2.4-2.7-1.1-1.7v-1.5l.5-1.2.8-.5.6-.1 1.9.1.9-.1 2.4-1.3 5.3-4.1 1.4-1.6 3.1-3.7.8-2.6.5-2.3 1.4-7.1-.4-3.8-1.4 1.7-2.1 2-3.4-1.9-2.6-1.8-.2-1.1-2.9-.9-1.9-.3h-.9l-1.2-.1-.9-.4-3.3-2.6-.4-1.2.1-1.3 1.7-2.2 1.9-2.1-.2-1.5.7-2.3 1.7-5.3.8-.1 1.3-.5 2.8-1.4-.3-1.1 1.9-.2.7.4 1.9.2 5.7.1.2-1.7.7-1.6 1.1-1.5.9-.8 1.5.3.4 1.7 2.8 3.4.7.2 1.3-.1.9.5 1.1 1.1.7 1 .5 1.5 4-1 .2-1.7 3.8-2.6 1-.2 2.3.7 1.7 1.8.2.9-.2.8-2 4.5-.8 1.1-.7 3.3.7 1 .3 1 .6 4.6-1.2 1.2-.2.9.9 1 1.5.1 4.4-.6 2.3-.3 1.8-.6 2.3-.4 6.1.3 1.1.7 2 3.2-.2 1.4-.6.8-1.3.4-.8 3.1.3 1 .4 1.1v1.2l-1.2 2.3-.8.3-1 .1-.9-.2-.8-.3-1.5-.8-.9-.5-.6-.1-.8.1-1 .6-1.4 1-.6.3-.7.2-.6-.1-.6-.2-.6-.2-1.7-.1-.6.4-.4 1-.8.4-3.3.1-.7-.2-.6-.2-.8-.3-.8-.1-.7.6-.1.9 1.1 4.6 4 .3 3.8-.2h2l4.8.9 1.1.8 1.9 2.9 5.8 5.7 1.3 2.9-3.8 7.8-3.7 2.4-.7.1-.6.2-.6.3-1.1.6-1 1-.3 4.1.1 3.1 1.9 4.8.9.4.9.2 1.4.4.7.7 1.2 3-.9 1-.2.1-.5.6-.8 1.5-.5 1.1-.4 1.3-.6 1-.7.5-.9.3-.8.2-1.4.9 2.3 1.9 1.1.2 1.1.3.7 1 .3 1 1.5 6.6 1.4 2.4.8 1.9.8 4.8v1.4l-.3.9-3.2 4.1-1 .6-1.9.4-.5.8.3 9.4 2.9 3.1 1 .9.5 1.4-.2 2-.3.7-3.6 2.5-1.4 3.5-1.9 2.8-1 .5-1.1-.2-.8.1-1 .5-.6.4-.6.5-.3.7-.1 1.2.6.4 1.1.5v4l-.1 1-.3.9-1.1 2.6-.5 1.3-.5 1.9-1.3 6.9.3 1.1.6.8 1.2 1 .9.4 1.3.1 2.9 2.7 1.3 4.8 1.3 6.8-3.5 3.1-1.8 1-1.8 1.3-.5.5-.4.8-.1 1 1.1 3 .3 1 .8 2.8.8 3.4.3 2-.1 1-.6 1.2-3 4-.7.8-.5.4-.7.5-.8.5-1.3.5-1.2.1-.5.2-1 .6-.8.7-.6 1-1.6 3.4-1.9 7.2.2.9.3.4-.5-.3-9.7-6.1-7.8-5-11.2-6.9-.1-.4-1.5-.7-1.6-.1-.8.2-1 .6-.6.4-.6.4-1.1.1-2-2-1.2-2.7 1-2.1 2.4-3.4 1.4-1.3 1.6.7 3.3 1.8.5-.7-.6-5.3-2.7-.5-.9-.9-.6-.4h-.7-1.7l.6-.9 2.5-1-4.5-1-4.4-3-3.1-2.6-3-1.6-1.1.1-.8-.2-.6-2 .5-1.4 2.8-2.3 3.4.8 2.1 1.2.7.9.5.8.8 1.6 1.1 3.6 2.1 1.6.8-.4-3-5.2-2.2-2.9-.1-.8.7-.5 3-.6 3.6-.4.8.4 1.1 1 1.7.4 3.1-.5 2.4-1.1 5.9 3.9.4 2.1 1.4 2.5.2-1.7 1.2-1.6 1.4-.1.7.1.8.4 1.3-.1 1.2-1.5.4-.7v-1.2l-.1-1.5-.5-.9.1 2.4-.4.9-1 1.1-.6.2-.8-.2-2.7-1.3-3.2-2.7-2.3-2.6-.8-3.2 2.4-.4.4 1.4 1.1 1.1.6.3.7.2 1.5.2 6.2-.5-1.4-.9-2.1-.3-1 .1-.7.2-1 .4h-1.1l-1.4-.8-6.8-6.2-1.2-2v-1.1l.5-1 .8-1 .7-1.4-1-2.8-1.7-1.3-.9 2.9 1.2.7.3.9-.3 6.6-.5.7-.6.6-3.2 2-2.4-.1-.6-.2-1-1.7h-.9l-1.4.1-5-.3-2.4-.2-2.4 1.1-.7.5-1.4.5h-2.1l-.8-.2-2.1-.7-1-1.2 3.1-6.6 1.1-1 .6-.2 2.5-.1.8.2 1.8 1.1 1 2.1 1.4 2.6 1.4 1.2 1.1.4h1.1l.6-.4-.8.1-1.5-.3-.9-.7-.7-1.6.9-2.2 2.5-1.1 1.6.4.8-.1 1.2-.7-1-3.4-1.8 1.3-.9 1.3-3.3 1.2-.6-.1-7.1-5.5-.4-.7 1.2-3.1 2.6-3.4.5-1.4.3-1 .2-1.1 3.6-1.1.7.2.5 1.1.3 1.5 1.8 2.6.3.2-.3-.6-1.2-2.4-.2-1.1.1-1.5.3-.7 1.8-2.4 2.4-5.4-2.6-1.9-.7-.2h-.7l-.5.4-.8.7-.9-.2-3.9-4.4-.9-2.4-.2-1-2.3-.6-8 2 .3 2.4.9-.4 1.2-.2 3.4.5-.2 1.2-.7.8-.8.2h-1.9l-2.4-.7-7.5-2.3-3.8-1.3-2.5-3.7-.3-1.2.2-1 1.3-2.2 1.7-2.4-.6-2.8-.5 1.2-.3 1.4-2.4 3.5-1 1.1-1.8 1.6-4.5 2-1.2-.1-1.2.1-2 1-1.8 1.2-.7.8-1.2 2.9.7.6 1.2-1.4 2.9-2.7.8-.1.8.4 3.3 6.6-.1 1.1-1.6 1.5-1.5.9-.6.3-.2.1h-.3l-1.9-.3-2.5-2.3-2.5-3.4-.6-2.8-.2-3.9 1.4-3 .6-.2h.7 1l1.2-.9 3.1-3.7-.4-1.4 1.1-1.7.6-.7 1.8-1.3 1.5 1-.2.5-.2-2.5.1-2.1 2.7-4 1.2-.3 2.6-.3 3.3-4.9.6-2.5 1.1-5.8.5-3.6.3-.7 6.2-1.7 2.5-1 1 .2.8 1.4 1.4-1.2 3-1 .6.4.9 1 2.2 4.4-.1 4.5-.3 1.3-.5 1.4-.5.8-.4.5.6-.2 1.6-1.8.2-2.3-.2-.9-.4-.9.3-.8 2.6 1.9.3.9.1 1.2-.2 1.2-.3.7-.6.9-1.3 1.5-1.4 1.1-1.8 1.2-3.3 1.5-.9.2-.9-.3-1.4-.8-.8-.5-1.4-.7 2.8 2.1.7.4.6.3.8-.1 2.8-1.2 2.2-1 .8-.6 1.4-1 .7-.2 1.8 3.7 3.3 1.6.9.2h.3l.2-.5-1-1.1-.8-.4-1-.5-2.8-2.5.6-2.4.6-.7 2-.5 4.4 3.7.2 2.3-.1 1.6-.2 1.3-.3 1.1-1.7 2.9-.8 1.1-1.8 4 2.6 1.5 1.1-.1.7-.6.4-.7 1-3.6.2-1 .3-2.3 4.1-6.9.6-3.7 2.4-5.2-.6-.4-2.2 4.4-.9 2.2-.3 1.5-.6 1.9-.6 1.1-.9.5-.4-1.8.1-.9.7-2.3.2-1.7.1-1.8-.1-1.4-1.1-2.4-.9-1.7 2.5-7.6 2.5-3.9.5-.7.8-.9.7-.5.6-.2 1.5-.2 1.6-.1.9-.3.5-.7-4.2-.8-1.1.3-1.2.6-.9 1-.6 1.6-.3.7-2 2.6-.6.2-.3-3.9.2-9.8 2.9-3.7 2.7-2.6 2.2-1.3 1 .7.4 1.3 1 .8 1.4.9 2.8 1.5 2 .4zm-4.3-30.1-.1.2-1.3 1.3-1.2.9-1.6 2.4-.2.7-.2.6-.2.3-1.7 1.8-1.7 1.1-.8.4-1 .3h-.5l-.5-.2-3.6-3.1-.3-.4-.1-.5.1-.4 2.7-1.5.5.1.3.2.5.4 1.2-.5.2-.2-.9-.6-2-.5-1.1.9-.3.4-.3.3-.3.1-.5-.2-.4-.3-1.2-1.8-.5-.9-.9-2.5.9-1.9.2-.3.8-.3h.3l2.8-.9.1-1.9-.1-1.6-.1-.6v-.5l.3-1.7.2-.5.3-.2 3.5-1.8 2.5-1 .3.1 3.9 2.3 2.4.5.6.4 1.6 2 .3.4v.5l-1.8 3.6-.2.3-.3.3-.5.2-1.9.1-.4-.2-.5-.4-1.6-.3.1.5.3.4 1.9.9.9.2 1.2.1.3.6-.3.9-.3.8zm-42.9 177.2-.3.3-.7.3-1.8-2.9-.7-2.1-1.2-4v-.7l.4-1.9-3.2-1.3-1.7 1.2-.4.2-.7.3-.6.1h-.4l-.6-.3-.3-.4-.1-.5.1-.5.5-.6.5-.4.8-.5 1-.2.7-.2.4-.2.5-.4.4-.5.4-.8.2-.7-.4-.3-1.2 1-3.8 1-.4-.5-2.5-9.3.1-.5 1-1.7.7-.8 4-1.8h.5l.4.4 2.6 5.3.3.7.6 2.5 1.5 3.2 1 1.8 1 .8 1.3 1.7 2.1 4.1.9 3.7-.1.8-.2.4zm16.7-2.8-3.9-2-.5.1-.5.3-.4.2-.5.1-3.5-.2-2-.8-.5-.3-.2-.4-.9-3.1v-.8l.2-.5.2-.4 1.7-2.6.4-.3 1.9-.5h.4l.3.6.8.9.2.6.3.5 1.4.9 1.1-1.9v-.5l-.4-.5-.3-.1-.9-.1-1.3-1.7-.3-.5-.6-1.6-.1-.6v-.6l.3-6.6.2-.7.2-.4.3-.4.4.1.7.7.3.4.2.7.1.8.4 1.7.8 3 3.3 4.3-.3 2.1.4 2.5.4 1.9.3.7 1.7 1.7h.4l.2-.4-.1-.4-.2-.4-.1-.5.3-.2.3.1.4.2.3.3.2.6v1.3l-.1.8-.2.4-.3.3-1.4 1.2-.5.3-.6.1zm-13.3-9.1h-.4l-.4-.1-5.5-8.5-2.6-5.3-.1-1.3 1-.2 1.9.1 3.5.3.9.3 2.7 1.6 3.4.4.4.4.2.7.1.9-.1 6.4-.2.4-.4.2-.8.1-1.4 1.2-.6.6-.7.8zm17.8-139.2-1.9-.3-1.3-1.1-1.2.1-1.6.7-.5.1-1.1.1-.4-.1-.4-.2-.4-.5-3.1-2.7-.8.6-1.9.7h-.5l-.3-.2-.3-1-.4-1.3v-.4l.1-.9.3-.6.9-1.1.3-.4.5-.2.7-.1.3.1.6.1 1.3-.3 2.2-.7.6-.3 1-.9.3-.3.4-.2h.6l.6.1.3.1 2 1.1.3.2.3.3.3.3 1.4 1.7.6 1.1.1.5.1.5.1 1.1zm-.2 116.2-1.2-.4-3.8-.9-.6-.4-.1-.5 2-3 .3-.4.5-.4 2.5-1.9.5-.2 6.8 1.2 3.7.9h.8l.4-.2.8-.9.3-.3h.3l.4.2.6.5.2.4-.1.6-.3 1.7-.5.4-.9.5-.4.1-1.1.2-3.1.4h-.6l-.7-.2-.4-.2h-.7l-.4.1-4.5 2zm-18.1-133.5h-.5l-.8-.2-.6-.2-.3-.2-.5-.4-.8-.7-1.5-2.3-.1-.5-.2-1.7.3-.4 3.8-1.6.4-.1 2.6-.4 4.7-.4 1 .2.4.1.8.3.3.2.5.4.9 1.1.3.6-4 1.7-4.6 2.9-.7.5zm-15.6 56.7-.4-.3-.3-.5-.5-1.3.1-.5.3-.3 3.3-1.4.4.1-.4-.9-.8-.1-.8.4-1 .2-.5-.1-.4-.6-1.6-3.6.1-.4.4-.5.6-.3 2.8.7.4.1.5.3 1.6-1.3 2.1-2.6 1.4-1 .7-.2.4.6.1.7v.7l-.5 6-.1.4-.2.4-.6 1.1-2.7 3.5-.4.3-2 .5h-.7l-1.1-.2zm.9 113 .6-1.2.9.1.8-.4.4-.2.7-.5.3-.3.5-.8.1-.6-.3-.2-.5.6-.4.5-.4.3-.6.2-.4.1-2 .1-1.5-.5-.8-1.2-.1-4.8.6-1.7.5-.2 6.2-1.6 1.4.1.3.6 1.5 6.1-.1.5-1.2 1.4-.6.6-1.6 1.7-.8.7-.4.3-.4.2-.9.2-1.1.1-.6-.1zm15-128.9-.5-.1-.4-.5-.4-.7-.1-.5.2-.5.6-.9.4-.8-.2-1.6-.5-1.7-.5-1.3-.1-.7v-.6-.8l.1-.5.2-.9.3-.9.4-.8.6-.3 2.9.9.5.3.4.3.8 1.1.4.8 1 2 .6 1.6-.3 1.6-.2.4-4 4.2-.3.3zm1.9 98.9h-.4l-1.6-.3-1.9-.5-.4-.2-.3-.5.3-.9-.7-.4-.8-.1-.8.2-.5.4-.5.9-.4.8-.4.2-.7.2-1 .2h-.6l-.5-.3 1.3-2.7.7-.8.3-.3 1.9-.9.9-.4.6-.1 2.3-2.2 1.6-3.1 1.6-1.1.5.2.4 1.4.1.5.3 1.6.8 6.1-1.4 1.4-.3.2zm21.3-103.1h-.3l-.6-.2-3.5-3-.8-4.4-.1-.7v-.7l.1-.5.2-.6 1.2-2.6.3-.3.6-.2h.5l2.2.4.4.4.3 1.4.2 8-.4 2.3-.2.5zm-22.5-27.4h-.3l-2.2-.3-.2-.3.3-1.1 3.8-4.9.4-.4.5-.2.5-.1 5.4.6.4.3 1.3 1.2.3.5-.3.4-.9.8-.6.3-1.7.8-.5.1-2.3.3-1.5.1-.5.2-.3.2zm13.7-14h-.4l-2.2-2.3-.7-3.9v-.7l.4-.5 2.7-1.1h.5l.5.2.5.4 1.3 2.2 1.6 3.2v.4l-.3.3-3 1.4zm-12-31.4-.9-.8-3-.4-1.4-.3-.3-.3.3-2.3.3-.4.4-.3h1.8l.5.1 3.7-1.1 1.4-1.7 2.4 2 .9 1.7.3.9-2.6.6-.4-.3-.5-.1-.2-.4.4-.4.2-.4-.5-.2h-.8l-1.6.7v.9l.4.4.2.4.8.3-.7 1.3-.5.3zm8.3 57.6h-.4l-3.7-.8-.4-.3-1-2.5.5-1 1.7-1 .4-.1.4.1.3.3.5 1.1.3.3.4.2.5.1h.5l1.1-.1.5-.1 1-.4.8-.2h.8l.4.1.3.2.5.7.4.8.2.8-.2.7-.3.2-2.1.3-2.5.5zm3.4 128.4-.3-.1-2.4-3.6-.2-.5-.2-.8-.2-1.1-.2-1.6.8-1.6.5-.1.6.4 1.1.8 3.6 2.7.9 1.3-.9 1.9-.3.3zm8.4-93.9-1.1-.7-.3-.3-4.2-4.2-.1-.7.2-1.2.3-.4.4-.2 1.4-.3h.5l2.8.8 1.4.8.5.4.3.7-.1.8-1.1 3.4-.3.8-.3.3zm-28.3-65.7-3.3-.3-.6-.4-.2-.4-.6-1.3.1-.6.5-.8.4-.3 5.3-2.5 1.5.3 1.2 1.5.4.6v.4l-.7.3-2.5 1-1.9.7-.4.2zm19.1 46.3h-.3l-1.6-.1-.4-.3-1.2-2.2-.8-1.4-.1-.9 1.2-2 .9-.7.5-.1 1.5.5 1.5 1.2.8 1.1.1.6-.1 1.3-.3 1.7zm-27.8 137.9h-.3l-.4-.1-.5-.4-.2-.6-.2-2.7.7-.2 1.4.4 1.4.1h.6l.5-.2.1-.3 1.5-1.8 2-2.3 1.5.8.6 1.1.2.5.2.6-.4.9-.4.5-4.7 2.6zm22.5-143.2-.2-.2v-.5-1.1-.7l.2-.4.4-.4-.1-.9.2-.6.3-.6.2-.6.1-.5.3-.4.4-.1.4.2.4.1h.5l.6-.1.3.1.4.2.3.3.9.3.4.3.4.1.4-.2.6-.7.5-.3.5.3.2.6-.1.9-.2.8-.1.6-.4.9v.8l-.4.2-.7-.3h-.3l-.5-.1-.6-.7-.6-.1h-.6l-1-.3-1-.1-.3.1-.4.5-.6.3-.4.5-.2.8-.2.5zm9 66.9-.4-.2-1.5-1.5-.1-.6v-.6l.5-2.9.2-.5.3-.3.3-.2 3.8-.4 1.8 1-1.9 3.7-.6.8-.3.3-.3.3-1.4.7zm-4.2-93.7-1.3-.9-1.1-.9-.4-.5-.2-.3-.6-3 .1-.7.3-.7.4-.3.4-.2.6-.1.6.2.3.4 2.5 4.4.3 1.2-.1.6-.1.4-.4.5-.6.2h-.4l-.4-.1zm9.4 149.9-.5-.6-.3-.2-.6-.3-2.2-1.1-.7-.2-1.6-.4-.5-.3-.5-.5-.2-.4 3.3-3.4.5-.3.4-.1.7.1.5.4.1.7-.2 1.3.1.5.4.6 1 1.2.6.6.7.4.5.4-.1.6-.3.3-.7.6zm-29.6-114.4-.2-.5-.1-.8v-.5l.2-2.3.1-.4.1-.4.3-.5.3-.3.3-.3 1.5-1 .7-.1.4.2.2.4.2 4-.6 2.3-.3.4-.3.3-.6.2h-.4l-1.5-.1-.3-.2zm24.6 7.3-.3-.1-.3-.4-.6-1.3-.1-.6.2-.7.1-.4.6-1.4.4-.6 3.9-3.2h.4l.5.6.2.4.2.7.4 2.1-.5-.2-.3-.3h-.5l-1.2.3-.7.3-.2 2-.7 2zm-25.4 83.7v-.8l-.2-.5-.3-.3-1.3-.3h-.5-.6l-.5-.1-.4-.5.9-1.3 3.3-2.5.5.2 1.1 1.1.5.7.8 1.6v.7l-.3.8-.2.4-.3.4-.8.6-1.9.7zm21.6-86.2-1.8-3-.9-1.1-.5-1 .2-.8.2-.4 1-1 .4-.2 2.1.4.3 1.4.3 3.1-.1.6-.3 1.1-.8.8zm-16.9-42h-.5l-2-.9-2.2-2.6-.1-.6.2-.5.3-.3 1.6-.8.6.2 4 4.2v.4l-1.8.7zm3.2 22-3-1.2-.3-.2-.5-.4-.6-.7-.2-.4.1-.6.3-.4.6-.3.5-.1.5-.1 1.3-.2.6.1.4.3.6.6.4.6 1.5 2.6-.3.4-.5.3-.6.2-.8-.1zm4.9-35.8-.7-.1-1-.1-.6-.2-.3-.2-.2-.5-.3-2.9h3.1.8l.6.2.3.2.4.3.3.5.3.6.2.7v.6l-.4.3zm22.3-25.1-.9-.1-2.4-.8-.4-.5-.3-.8v-.7l.3-1.1.3-.5 1.8-1.3.6-.2h.4l.3.2.3.3.2.7.2 4.3zm-22.6 15.8h-.5l-.4-.1-1.3-.8-.6-.6-1.5-3.3 1.5-2.2h.4l2.1 1.9 1.2 1.2-1.6.9v.6l.1.5zm9-9.3-2.6-3.4-1.1-1.9-.1-.6.1-.7.3-.8.2-.3.7-.1 2.5 2.5 1 2.7v1.1l-.7 1.1zm4.6 187.2-.8-1.4-1.8-2.4-.2-.4-.1-.5.4-.6h.5l.8.2 2.3.9 1.6.8.6.3.3.5v.5l-.3.4-.5.4-1.5 1-.7.4h-.4zm-17.3-137.1-1.7-1-.5-.3-.3-.3-.3-.4-.1-.6.1-2.2.3-.8.7-.2.4.1 2.7 1.9-.3 3.7-.3.3h-.4zm-7.4-23.9-1.1.1-3.6.6-1.4-.5-.1-.5.1-.4 1-1.4.4-.3.6-.2h.4.8l2.3.2.5.2.5 1.9zm15.1 102.3-.9-1.4-.2-1.5.2-.4 1.6-1.2.4-.2 1-.3h.9l.7.1.3.3v.6l-.1.9-.2.4-2.8 3.1-.4.4-.3-.4zm-31.7-90.4h-.3l-.5-.2-1.4-2.7-.2-.4-.1-.4v-.5l.2-.6.5-1 .6-.3.5.2 2 2.4.3 1.9-1.2 1.5zm29.5-24.8-3.3-1.2-.5-.4-.9-2.2.5-.3 4.8.8.6 3.3-.1.4-.6-.1zm-9.5 7.5h-.3l-.4-.2-.5-.5-.3-.4-.1-.5.1-.4 1.9-1.3 2.9-.7 1.9 2-1.4.6zm31.8 163.3h-.2l-.7-.3-2.7-1.3-2-1.5-.4-.7.1-.6.6-.3.5-.1h.3l.7.1 3.1 1.5.4.2.4.4.2.5zm-4.6-106.5h-.3l-2.9-.4-.8-.4-.3-.5v-.6l1-2.9.4-.4.3-.2 1.5 1.1 1.4 4zm-7.3-49.1-1.1-.5-.6-.4-.5-1.6.1-.6 3.1-1.3.4-.1.4.3.1.4v3.1l-.4.6-.5.2h-.8zm-8.9-25.1-2.3-.1-1-.2-.5-.2-.3-.3-.2-.3-.2-.5.9-1.3.7-.7.6-.2.3.1 1.4.7 1.5 1.4-.1.8-.1.4-.3.2zm-1.2 27.5h-.7l-3.2-.8-.5-.4.5-.4 1.6-.5.8-.3.4-.2.7-.5.5-.4.5-.2 1.2.1.3.5.1 1.6-.3.4-.3.3-1 .6zm-9.5 126.7h-.2l-1.3-.8-.3-.3-1.1-2.4.3-.3.7-.1 2.4.2.3.1.6.6.8 1 .2.5-.2.6-1.1.6zm-13.1-130.5-.3-.1-.7-.9-.2-.4-.3-.9-.1-.8-.2-1.6.1-.6.2-.3.4-.1 1.7.7.3.4.2.6v.6 2.5l-.6.5-.3.2zm29.7 26.8-2.1-.3-.8-.2-.2-.4.1-.6.4-.4 1.2-.7.6-.2 3-.4.4.1.2.6.1.8-1.9 1.3-.3.1zm-4.8-45-3-.1-.4-.4-.3-1.4 4.4-1.1.5.1.4 1.5v.6l-.4.3-.4.2-.7.2zm20.1-27.8 1.1-1.1 1.4-.5 1.3 1 .8.2h.5l-.4.5-1.8.4z"/><path d="m120.5 869.5h-.7l-1-.1-1.4-2.4-1.3-5.2-1-5.1-1.2-3.9-.6-1.1-1.5-1.3.4 1.1 1.3 2.3.7 2.3 3.8 15.2v1.7l-.8.6-1-.4-6.4-4-.7-.6-.6-1.3-.1-1.8-1.4-2.9-1.7-3.2 1.3-1.1.5 1.1 3.1 4.7 2.7 3.3.9-.5-3-4.6-4.3-6.8 1-.7.8-.8 1.1-1.9-4 1.8-2 3.6-2.3-3.2-1.3-3.2-1.9-.2-1.5-.3-2-8.6v-1.1l.3-1.6 2.8.4 3.5 3 1.1 1.7 2 3.5.7 2 .3-.3v-1.2l-4.1-8.1-3.8-8.8 1-1 1.4 1.6.5 1.3-1.3-5-.8-.7-.6.6-2.3 3.8-.6.7-.6.3-5.6-.8-1.5-.8-1.5-5.1-1.9-1-.8-.4-1.1-4.9.5-1.3 1.1-1.1 1.1-.6 6.7-1 .7.4 1.2 1.5 1.2-6.1-.7-4.7.7-1.3 2.4-1.1.9-.1 1.8.9.6 1.4.9.5.6-2.1-2-1.5-1.4-.1-1.2-.2-2.3-1.9-.2-1 .4-1.1.7-.3.9-.4.7-.6.4-.7.4-4-4.6 6.1-.3 1-.3 3-.2 4 .4 1.1.4 1.3-.2.9-2.6 3.4-.5.4-2.8.1-2.6-2.3-1.6-2.8-2.8-4.4-2.5-5.4 2.1-1.1 2.8.6.8.4.7.5.8.5.9.3 3.9.1-1.6-.8-1.5-.3-2.7-1.5-1.5-1.4-5 .3-5.8-3-7.2-5.4-.3-1.3.5-1.3.8-1.3 1.3-1.2 2.6-1.3 1.8.3 2.4-.6 1.9 1.8.8 1.4 2.3 2 7.4 2.2 1.9.1.5-.1.4-.4-8.2-2.5-.6.1-.7-.2-1-.8-6-7.8v-1.9l.5-1.1h2l1.4.2 3.3 2.7 7.2 1.8-.1-1.4-.6-1.2-3.3-.9-2.8-.7-6.2-2.1-1-1.1-1.1-2.9 2.7-2.2 1.4-.8 1.4-.5.9.2 1.1-.5.1-1.4-3.6 1.1-2.5 1.1-.6-.1-.9-1.8-.5-2.2v-1.1l1.9-2.6 3.6-1.9.7-.3 4.2.4.7.9 1 2.5 1 1.2 1.1.4.9.1 2.2 1.7 1.1 2.5.1-1.5-.9-1.9-1-1.6-.6-.4-2.2.1-1.2-3-.3-2.6-1.3-.7-2.2.6-3.2-.6-.6-.5-.8-3 .2-6.2.3-.7.9-.1 1.2.8.5.9.8.9 1.6.7.9.2 1.1-.5-1.4-.6-1-.1-.6-.3-2-2.5-1.9-7 .2-.9.7-1.4.4-.6.6-.4.9-.2.9.4.7.5h1l-.2-1-1.9-.7-4.3 1.1v1.8l.9 4-1.4 3.9-.7 3.9.1 2.5-.1 6.2-.5 1-.7.2-.8-.4-3.8-3.8-1.2-3.7-1.2-8-1.2-8.8-.7-1.4-.8-1.3-.8-2.1-.2-1.4.2-1 1.3-3.2 1.3.6.9.2.7-.3 1-1 .9-.4 2.4-.1 2 .5 11.3 7.2 7.8 5 9.7 6.1.5.3 2.4.3-1.2 1.8-8.3 1.5-1.2.3-1.3 6.2-.6 4.5.5.8 1.9 1.8 3.2 8-.5.9-.9 1.1-.7 1.1-.1 4.1 1.3 1.1.8.6.7.7.1 1.4-.6 1.2-.5 1.5-.1 1.5.6 1.2 2.8 1.6 2.8 1.7.6.5.5.7 1.6 2.6.5 1.2 1.5 6.5 1.2 4.4 2.5 6.2.7.8.7.4h.8l.7-.3.9-.5.9-.7.9-1 1.4-2.6.5-.6.9-.7 2.9-2 .8-.1.9.7.6.6.6.4 1 .2.9-.3.5-.5.5-1.4.5-.9.7-.5.8-.2h3.6l2.5 1.4v1.1l-.7 2.6.3 1.1 1.1 1 .8.8 1 1.3.5 1 .4 7.3-.3 1-1.5.4-1.3 3.7.9 2.3.8.9.8.4 1.1.4 1.4 1.4-.2 1.3-.7 1-.4 1.3.3 2.2.4 1.8-.5 4.1-.5.7-.8.8 4.5 8 1 .4h1.5l.8.3.6.3.8.4 1.6.9 4.3 3.7.7 1.2.2 1.5 1.5 3.7 6.3-.9 13.4-2 23.2-3.4 9.4-1.4 3.2-.5 1.7.4 5.5 1.6 9.4 2.6 5-.7 1.6-.3 6.2 1.6 1.3.4 1.8.9 3.4 1.9 3 .1h2.3l2.2.1 4.2.5.2 2.3-1.4-1.9-1-.3-5.1-.1-3.5.3-.6.1-3.7-.2-1.2-.3-.7-.3-1.3-.9-.8-.5-1.5-.7-1.1-.3-1.1.1-.7.1-1.6.4-4.8 3.1-.6.7-.2.8.1 1.4.3 3.3-1.5 3.5-.6 1-1.3 1.7-.4.8-.6.6h-3.1l-1-.7-2.9 1.1-6.2 3.9-.8.6-8.6 7.1-.9.2-4.4 1.2-3.6 1.2.1 7.1.6 1.3.6.6.5 3.5-1.3 6.9-.4 1.1-.5.8-.3 1.1-.1 1.5.1 8.4.3 1.6.3 1.2.6 1.6.6 1.2.6 1.5.4 1.4.4 1.8.1 1.6-.1 6.4-.4 1.4-1.2 2-5.1 3.4-1.4.8-5.2-1.8-.9-.1h-1.3l-1.3.1-.7.1h-1.2l-2-.3-5-2.7-2.5-.3-3.5-.5-2-.8-5.2-4.7-2.1-2.3-1.7-2.1-.9-1.2-1.3-2.3.2-4.2 3.5-4.2 5.1-.1 1.2 2.1.3 1.1.1 1.8-.2 1.2-1.7 1.5-1.9 1.4 1.2.3 2.3-1.1.9-.8 1.5-1.5v-1l-.4-1.6-.6-1.9-.2-1v-1.6l.6-1 3.6-.5 1 .9 2.8 8.8-.2 1.2-.5.7-.8.9-2.5 2-.7.5-.9.9.2 1.4.3.2 1.3-1.1 3.3-1.8.8-.7.9-2.6-.6-3.2-.7-2.3-.3-3 .3-3.6 7-5.1h.9l.8-.1.9-.4.6-.5.5-.5.5-.7 4.3-11 .1-1.2-1.8-2.7-2.7-.4-2.8.2-6.8 5.1-5.6 4.8-2.1 2.4-.3 1.4-2.3 5.2-1.6.7-.8.1-1.2-.6-.7-.7-.8-1-.7-.9-.7-.5-2.5-.5-6 2.5-.7 1.1 2.3-.7 2.9-.4 5 3.2.8 1.2-.2.9-3.9 1.8-1-.1-1.3-.8-2.2-.3-1.3.9.9 1.2 1.1.3.6-.1 1 .3-2 6-.9.5-1.6-.3-1-1.1-.6-.5.5 1.8 2.8 2.5.7-.8.8-.3 3.6 4.1.6 1.1-.4 1-2.7.9-.3.1-.9-.8-6.4-3.9-4.2-1.6-2.5-1.2-.8-.8-3.4-2-.6-.2-.9.1-.8-.2-2.3-1.6-3-3.2 6.5-.5 2.2-.8h1.6l3.1 1.9 2.6 3.2.8.6 1.2-.3.1-2.6-1.8-1.2-1.4-1.1.7-2.1 1.4.1 1.7-.2-1.5-.8-2-.1-.8.4-.6 1-.7.4-2.8-1.8.6-1 .3-.5.3-2.3-1.4-1.5-1.3-2.7-.8-3.7 1-1.8 5.1-4.6 4.3 1.8 3.6.6 1.3-.6 3-3.5 2.8-4.5.3-1 4.6-1.4 3.6 1.9 1.4.1 1.6-.1 2.1-.4 1.1-.3.8-.2.9-.5 3.8-2.7-1.7-2.8-.8-.5-1.1.1-.7.4-.9.1-3.8-.1-4.5-.3h-5.9l-4.2.8-1 .4-.8 1.3-.5 1.9-1 3.6-4.1-2.6 1.1-2.2.7-.7.9-.1 1.2-.9-.7-.7-3 1.5-.5.6-2.4.7-4.7.7-2.6 4.4.6.5 1.9-1.7 3.9.9.2 1.1-1.7 3.5-1.1 1.5-1.7 2-1.7.6-.7.3-.7 1.2-.4 1.4 1.4 2.8 1.3 3.1.2 2.1-.6 2-2.9 1.6-.2.2-.9.7-2.3.6-3.6-.9-4.3-3 3.5-3.6 1.9-2.7h-3.6l-6.3-2.8 1.3-1.4 2.7-.2.8.7 4.5-1.2-.8-1.4-.4-1.8 3-10.7 1.1-.9 2.6.1 1.6.2.9.1-1-1-2.8-.2h-.9l-.8.2-2.1.8-.7.9.8 2.5-.1 1-2.1 4.7-1.1.2-.8-.4-.4-.9-.4-2.1-.9-.4-.7.4-2.8 3.3-1.4 1.9-.8 2-.3 1-2.6-.8-.6-5.9 1.3-2.2 1.1-.5.8.3.2-.9-1.5-.2-.6-.8-2.1-4.1-.2-1.4.3-.9.9.1h.9l.4-2.6-1.2-4.3-2.2-2.8-2.8-3.1-.7-1.2v-1.6l.7-.8.9.7.7 1.7 4.3 4.9h.9l1.2-1.3 3.8 1.7.7.1 1.6-.6.6-.6.4-2.2 1.1-2.5 1.8-1.3 2-1.4h1.1l.6 3.3.2 2.2 2.6 2.6 1.4.5.8-1.3.7-6.9-.6-1.7-.8 1.1-.5 2.6.2 1.2-.5 2.1-2.1-1.1-.6-4 1.5-6.4 1.6-1.2 3.5 1.8.3 2.7 1.4 1.8 1.2.4.6.5 1.8 2.5.8 1.3-.4 5.9-.8 1.3-3.6 2.1-4.9 4.2.9.2 2.2-1.2 5.1-2.9 1.4-1.3 2.2-3.1-.1-5.4-.6-1-2.3-2.1-3.4-3.3-1.1-4 .8-1h3.4l.7-.5.5-.7.3-.8-1.3-6.1-1.5-2.7-5.2-4.6-1.8-1.3-.8-.3h-1.3l-1.4.2-2.7-.8-4.4-2.1-.8-1-1.3-.8-1.2.4-2.3 1-.7 1.1.5.8 1.2.3.7-.3 1-1 2.7.4 2.7 1 4.1 2.7 4.7 3.6.7.2 3.5.4.7.7-.1 2.4-.9 2.4-2.7.6-2.2-1.1-.9-1.4-5.1-1.5-6.4-3.5-2-.9-1.2.3 2.3 4.2 1 .4 1.2.1.8-.1.9-.7 1.1.5.9.7 1.2 1.5-1.3 3.3-.6.5-1.1.4-1.9.9 3.4-1 1.6-1.8 1-.8 1.1.5.5 1.2-.8 1.2-1.9 1.1-1.6 1.2-1.3 1.2-.3 1.3zm151.2 111.4.7 4.9-.1.2-.2.1h-.5l-.4-.1-.7-.5-1.2-1-.7-.4-4.2-1.3 1.5 1.9.4.3.5.4.8.4 1.3.3.5 1-.5.9-.9.6-4.5 1.6-3 .8-.7.1h-.6l-11.3-2.4-2.1-.5-3.3-1.2-.5-1.1.1-.6.7-1.1.1-.6-.6-3.1-.3.1-2 1.9.2 3-.4 1.2-9.8 3.7-3.5.8-1 .2-1-.1-.8-.4-.6-.9-.3-1.6.4-.8.5-.9 1.1-2.9v-.7l-.4-.2-2 3.6-.5 1.8-.2.9.1.5-.8.3-1.1-.1-5.7.5-2.9 2.1-.4.2h-.3l-1.2-.1-.7-.3-.5-.6 1.1-2 .4-.5.4-.2 1.1-.4.8-.5 1.6-1.3 2.2-2 .5-.6 1.3-2.7.1-.6-.3-.2h-.6l-1.7.3-.4.2-1.6 2.4.5.4.8.4-.1.5-1.2 1.1-2.5 1.3-2 .9-2.8.3-.9-1.5.4-.3 1.3-.2 2.2-1.1.3-.4-.4-.3h-.4l-.3.1-1.7.8-1.7 1.8-1.8 3.2-.7.3-.3-.3-.1-.6.2-.7.2-.5.3-.7.2-.5.1-.5.3-3.4-.2-1.1-1.3-.1-.7.7.2.7-.1.6-.3.7-2.8 2.2-.4.3-2.8-.8-.6-.2-.3-.4-.1-.5.3-.4.4-.1.2-1.6-.4-1.8-2.5-2.5-.5.1-1.2 1.8-1.3 6v1.1h-.3l-.5-.2-5.1-2.8-.4-.4h-.8l-.8.4-1.1 1.3-.5.9-.5.3-2.7.6h-.3l-.7-.1-.5-.4-.4-.9-1.1-2.8-.7-2.9-.1-2.4.3-.4.4-.1 1.6.4 1.6 1.3.6 1 .2.5.5.6.6.2 2.3.5 1.9.4h.3l2.5-1.8-3.9-3.4-.7-.3-.4.1-.9.7-.5.1-1.4-.6-.4-.5-.5-1.5 1.5-1.2.7-.2h.7.3l.6.5.5 1.2 2.4 2.6.5.3.5.2 1.1.1 2-1.1.1-.5-.6-.4h-1.7l-.5-.2-.4-.3-.6-.8-.5-1.1.4-.7.4-.1 4.3 1.2 1.9-1.3-1.5-.6.4-.9 1-1h.5l5.3 2.2 6.6 1 .6-2.8-.1-.7-.1-.6-.2-.6-.4-1.2.2-.6 1.1-1 1.1-.5 1.3-.2 1-.1 3.2-.1h.3l1.2.3.2.4-1.3 2.9-.7 3-.2 3v4.1l.8-1.3 2.5 1.6-1.7-2.3-.3-.4-.5-1.1v-.9l.5-3.1.2-.5.5-1 .3-.5 1-1.3.5-.1.5.8.5.6 3.4 2.2 1.1.3.4.2.4.3 1.7 1.1.4.3.3.4.4.6.5.6.7.2h.6l3-1.9-3-1.6-.8-.4-1.3-.5-.8-.2-1.6-.6-.6-.2-.7-.3-1.3-.6-.4-.5-1.8-2.4.1-1-.2-.7-.5-.7-.4-.4-.6-.5-.8-.4-1.8-.3h-.6-1.3l-2.5.5-1 .1-.6-.1-.5-.2-.6-.5-.5-.6-1.8-4.5 1-.5.8.5 2.4 1.3 4.1 1.4 9.5 3.7 6.2 4.3.5.2 1.7-2.6v-.5l-.4-.3-2.2-.2-.5-.1-.8-.6-.3-.5v-.6l1.6-2.1.9-1.1.4-.4.4-.1h.3l1.6.8 1.2 1.2 3.9 6 2.9 5.2.8.8.5-.3-.1-3.7-2.6-4.4-1.5-2.4-.5-.3-.7-.6.3-1.3.2-.3.6-.1 1.2.2 3.5 1.2.8.6.9.9 7.4.7 4.2 1.7.5.2.3.4.2.7v.6l-1.8 3-.3.3-1 .8-.3.5-.8 2.6-.2.9 1.3 2.6.4.3v-1.8l.7-2.8.5-1.8.2-.8.3-.5.8-.8.6-.3.4.1.3.4.5.9.7 1.2.1-.2.5-1.3-.7-1.6-.4-.7-.2-1 .1-.8.3-.9.3-.2 1.3-.2h.3l.9.2 1.2.8.4-.1.3-.5-.2-1.8-.5-.4-.5-.2-2.1-.9-5.9-2.4-4.3-1.3-.8-.2-2.6-.7-.5-.2-.5-.4-.7-.9-3.4-.8-.8-.1h-.6-.7-.6l-.8-.2-2.7-.6-5.2-2.6-.6-.5-.3-.6-3.4-7.2-1.4-4.1-.4-1.1-.2-.9v-1l.4-1.1.4-.6 6-5.2.4-.2h.9l.6-.1h.3l.6-.1 1.4-.7 10.7-8.2.3-.3.3-.8v-1l-.1-.5-1.2-4.9-.4-.6-.6-.4-5.6.4-.7-.1-8.2 2.5-.3.1-1.1.6-.9.8-1 1.2-.3.5-.5 1.2-.5.4-3.5 2.3-.4.1h-.3l-.5-.2-.7-.3-6-3.7-.3-.5-1.4-3.6-.5-2.4-.1-.7-.4-8.8.1-.7.1-.5.3-.6 1.8-3 .4.3-.3 1.2.1.8.9 2.3.5.1 3.2-1.6.4-.3.6-.5.3-.4.3-.4.2-.4.1-.5.4-2.9v-.6l-.2-.8-.4-.5-3.1-.1-1.7-2-.1-.6-.4-.7-.6-.5-.7-.2h-.9-.3l-.6.2-.8.3h-.4l-.2-.4.5-1.1.7-.6 5.2-1.8.5-.2h.7l.8.3.4.3.5.5.6 1 1.2 1.3.5.5.8.5.8.2h.6l.6-.1.7-.4 4.6-3.7.5-.6.4-.9 2-4.9.1-.9-.1-.6-.7-3.8.5-.8.6-.6 3-2.2 1-.5 1.9 1.9.3.3.3.4.2.5.1.6.3.5 3.9 3.9.4.3 1 .6.9.4.8.1.5-.1.7-.5 3-2.1 3.4-3 .3-.3.3-.7 3.6.9 2.5 1.4v.4l1 6.9 3.3 23.2.5 3 1.2 8.3 2.3 16.1 1.1 7.8 2.4 16.7.2 1 1.4 9.5zm-210.9-198.5h-.4l-2.4-.9-.7-.6.6-1.7.8-1 1.7-1.5.7-.4.7.3 1.1.5-1.7-1.7h-.8l-.8.5-2.1 2.3-1 .4-.9-1.2-.1-2.1v-4.3l-1.7-4.4v-6.8l1-1.4 1.5-1.6 3-5.8-1.1.6-1.4 2.6-2.7 4.3-2.1 1.9-.6-.9-.5-1.8-.8 1.5.1 1.2.4 2.3.3 1.7.7 1.1.9.9.2 6-.3 4.2-1-.1-3-1.6-2.7-3.9-3.1-5.1.3-2.7-1-3.1-1.3-1.7-1.4-1.1-.9.6-.8.7-1.1-2.3-.3-1.3-.4-2.5.9-1.6.6-.3h.7l1.9 2.5.5 1.2 1.4 2 2.8 2.7.9.5h.3v-.4l-1.4-1.8-1.3-1.3-.6-.6-.8-.9-1.7-2.8-.2-2.1 1.3-.5.7.7 2 2.4.9.2 2-3.7.2-.9-.9-1.7 1.1.6 2.7 2.5 2 2 .5-2.2.5-8.8-2.1-1.9-1.2-1-.7-.4-.7-.9-2.1-3.3-1.5-2.9.1-2 1.9-1.9 3.6-3.4 2.7-1.2 6 .5.8 1.7 1.7 6.4 1 1.8.3.9.6 5.6 1.6 4.6.3.9.5 3.8v5.5l-.2 2.1-.5 1.3v1.8l1 1.9-1.2 1.8-1 3.3.3 1.3 1.6-2.2-.3-.9-.1-1 1.8-.7.8.7.9 1.3.6 2.8-.2 8.9-.3.8-1.5 2.5-2.2 2.6-.9.4zm216.9 224.8h-.6l-.7-.1-.7-.7-.8-1.3-.8-.6-.9.1-.9 1 4.7 3.8 1.5-.7.8-.7.7-.4.9-.3 1.5.1 2.1.6 5.6 1.8.7 1v1.5l-.3 1.1 1.3.2 1.7-.5-.8 2.9 2.2 2.8.9.2h1.4l.3 4.1-1.8 2.4-.3.4-.1.1-.8-.1-.5-.7-1.2-1.4-2.7-2.3-1.5-2.4.1-1.9-3.6-2.2-.6-.1-.8 1.4-1.7.4-2.2-1.5-2 .2-3.5.6-.9 1.6-1.5.9-.7.1-1.4-.8-1.5-1.4-1.1-1.5.7-1.6 1.8-.9.7-.2.8.2.9-.4v-2.6l-3.5 1.9-.6-.9.1-3 .5-2.7 1-1.5.1-1-4 4.2-1.7.7-3.4-.5-.8-.3-.9-.7-.8-1-1.3-3.2-3.6 1.2-.7.4-.6.6 1.8-.4 2-.1 1.3 2.9-2.9 1.6-.1 2.2 3.1 3.5.5 3.1 2.6.2 2-.2.2 3.1-.4.6-4.7-.5-2.9 1-2.6-4.2.5-1.9 1.5-.6.5-.6-2.2-.8-.8.1-2 2.4-1.4-2-2.8-.8-.1-1.6.6-1.8 2-2.1.8-.4.9-.6.5-1.1-1.2.2-1.2 1-2.3 2.4-4.2 1.9-.7.1-2.1-1.5 1.5-.5.5-.6-2.1-1.7-3.2.3-.6-.5.4-1.5 1.9-2.9 1-.7 2.9-1.1 4.3-1.1 7.9-2.7 4.7-2 5.8-1.4 4.7-.5.7-.2 1.8-1.9 2.3-.8 4.2-1.1 3.3.8 2.2 2.2.8 1.9-.2 1.4-6.2 4.1-.4.9-1.6.7-3.7-.5-1.6-.7-1.2-.9-1-.7-.7-.4-3.6-1.8-.6.1-.4 1.3 3.2 2.7 2.2 1 3.7 1.5 5.2-.5 4.4-.6 1.9-.1 3.3 1.6 2.3 1.9v1l-8.4 2.6zm-148.5-53.8 1.3-1.2-.4-4.8-3.8.8-1.1 1.1-1 .7-.8.4-2.5.4 1.2-1.3.8-.6.5-.7-.6-1.9-.9.1-1.1.3h-.9l-.9-.7-.2-2 .2-1.1.4-.6 1.2-.4.8.5h.6l.6-.6.8-1h.6l2.4.9.7.7.5.9.9 1.1.9.4 2.6.4.8-.1 2.7-.5 2.6-.8-.2-1.3-.9.1-.5.7-2 .5-1.9.1h-1l-2.2-.2-1-.5-4.4-5.2-.9-1.8 1.2-.3 1.1.2 1.7.6 5.5.3-1.1-2.4-1.5-1.6 2.7-1.4 2.2-.1 2.7.7 1.9 5.1-.1 2.3-.3 2 1.3 2.6 1-5.4v-1.6l-1.1-1.7-1-1.8 2.2.5 1.8 1.7 2.4 3.8 2.2-2.4h3l1.5.7 1.4 1.8.1 1.4h-.9l-.8.4-.4 1.1 1.7 3.1.8-1.6.9-1.5 3.4.8.8.4 3.3 3.2-.9.9-.5.2-.3 2.1-.9.8h-.7l-2.4-.2-1.6 1.9.6 3.5.6.4 1.3.4 1 .1.2 2.3-2.9.7-2.7 3.1-.7.1-.7-.2-1.4-1.3-2.3 1.7-3 2.6-1.5.2-3.7-1.2-1-.8.5-.9 3.3-.5 3-2.7.2-8.7-2.3-.8-.7.6-1.6 1.9-.9.5-2.6.2-.3-1.1-.3-1.3-1.1-.3-.5 5.3.1 1.2-.4 3.5-2.8-.8-1.4-2.4-1.4-2.6-.9-1.8zm159.9 31.1 2.8-.4 3-.1 2.6-.1 4-.4 1.8-.5.6-.1 3.7-.6 1.3-.1 2 .2 1.1.1 1 .3.7.2 1.2.4.6.4 4 4.5.5 3.2-.4 2.3-.3.9-.2.5-3.1 5.6-.3.3-1.2.3-.3.1-3.1-.5-.5-.1-.7-.3-.5-.4-.3-.5v-.8l.5-.8.2-.6v-.6l-.3-.4-.7-.5-.7-.4-.8-.2-.9-.1-.6.1-.5.2-.9.6-.3.4-.2.5-.2.8-.1 1.3.3 1.3-.3.4-.4.1-4.2.3-.5-.1-1.7-.7.3-.6.4-.1-.2-.9-1.1-1.4-.5.3-3.5 2.6-.9.7-.2.1h-.6l-.5-.1-.5-.2-.6-.5-.3-.5-1.9-5.3.1-.9-1.4-4.7-.5.2-2.6.5-1-1-.6-1.7.4-.7.3-.2 3.8-1.2zm-165.7-58.1 1.9-.7.4.1 2.3 1.1 3.6 1.8.4.5-.2.7-.4.3-.3.1-3.3.3-7.5-.9-.5-1.3-.3-.5-2.1-.6-1.1-1.7-3.8-2.7-.5.2-3.2-2.4-2.1-2.1-2.4.9-1.1.8-1.3 1.1-6.8.7-.7-.3-1.1-2.7-2.5-2.4-.6.1-1.9-.2-2.6-1.5-.3-.5.1-.9.2-2.4-1-1.2-.3-.2-.8-.1-1.5-.5-.4-.2-1.8-1.8.9-2 .4-.1 1.5.7 4.8 3.5 1.9 1.7 1.5 2.5 1.5 1.3 3.3.3.3-.7 1.1-.5 1.9-.7 3.2.7 4 1.6 2 1.3 1.3.6 2.3.8 1.8-.2-.1-.9 1.4.1 1.5 1.5.3.4.8 2-.2.6-.4.6-.2.7 1.5 2.7.4.5.5.2.8-2.2-.4-.9-.4-1-.5-1.6.3-.6.4-.1.6.1.9.2 3.8 3.5.2.5zm65.9 27.3 1.1 3 2.4.2 2.4-1.5 2.2 1.1.3.5 1.1 3.7.8 4.5-2.7 5.9-.3.4h-.5l-.6-.4-1.3-1.3-1.7-.1-2.9-.9-3.5-4.8-.3-.8.1-.8.3-.4.9-.2.4-.3.1-.4-1.4-1.7-2.1 2.3-.6 3.4-.1.6.1 1.1-3-.2-.6-.3-.8-1.5-.5-1-.4-.9v-.7l1.4-2.3-1.6-5.6.2-1.2.5-.8.4-.4 1.2-.4 2.9-.4 2.9.8 2.4.9.3.2zm23.5 7.4h-.3l-2.6-.6-1.3-.4-1.2-.4-.4-.3-3-2.1-.6-.6-2.2-2.9-1.3-4.9-.1-.6-.4-2.8.2-.5 1.4-1.4 1.4-.8h.5l2.6.5.7.5.4.1h.3l.5-.4.3-.7-.1-.6-.4-.7-.6-.6-.4-.2-1.4-.4-.3-.4-.3-.6-.6-3.2.1-.7.8-.4.4-.3.3-.3.4-.6.5-.8.3-.7.2-.5.1-.8.1-1 .1-.7.2-.5.4-.5 1.3-.4.5.4.4 3.6v.6l-.1.6v.6l.1 1 .1.6.2.6 2.4 6.6 2.3 4 1.5 2.8v.8l-.5.8-.6.3-1.1.2h-.3l-.6-.1-.5-.2-.9-.5-1-.7-1-1.1-.4-.4-3.1-2.3-.1.6.1.6.6 1.6.3.5.3.4.7.7.6.4.3.3.7.9 1.8 3.9.3.8 1 3.6zm-35.3-9.1-1.2 1.7.4.5.7.6 1.6 3.9v.8l-1.3 2.8-.4.8-.4.2h-.3l-1.1-.2-.5-.2-.4-.3-.6-.6-3-3.6-.2-.8v-1.1l-.3-.4-.4.1-.2.8.1.7.2.7 1.5 3.3 1.3 1.2.4.2.8.3 3.4 3.2.1.8-.2.6-1.7 4.1-.3.2h-.4l-2.6-.2-.7-.9v-2.7l-5.3-4-3.1-2.5-.5-.4-.4-.5-.3-.5-1.6-5.1-.3-1.1v-.8l1.2-.4.3-.1h.3l1.9.5.5.4.5.9 1.2-.2 1-3.8.3-1.4.7-.5.6-.3 6.8 1.4 2.1.7v.8zm-123.5-157.4-.5 1-2.8 5.3-.3.5-.6.3-2.1.2-.3-.1-.2-.4-.1-.7.2-.8.9-.8.7-1.1 1-2.1-.5-.3-1.9.8-1.3 1.1-2.8 1.7-.4.1-.4-.3-.1-.7-.1-3.2.3-2.6.4-2.3.1-.6.3-.5.4-.3.5-.1.5.1 2.1.5.2.4-.2.5-.3.2-.8.3-1.2.2-.1.4.5.7.5.3 1.3.5 2.4.2 1.5-.5-.4-2.2-.5-1.3-2.1-.3-2.4-1.1-2.6-1.6-.8-1.6 2.1-2.2.5-.1 4.8.5.4.2 4.5 4.1-1.2 1.6-.4.6-.2.5 1.3-.1 4.6-1.9.3-1.2-.4-.5 1.1-.7.5.4.4.9.1 1.5-.3 1.5-5.1 4.1-.4.3zm15.1 35.7-5.1-1.6-2.8-3.6-.2-.5-.1-.7v-.7l.5-2.2.3-.3 1.7-.1 3.6.4 1.7.4 2-1.5-.4-3.6-.2-.9-.4-.6-.9-.7-.4-.1-.5-.2-.2-.4.1-.5.6-.5 1.1.1 2.1.6 2 1 2.7 2 .3.6.2.8 1.8 7.4-.2 2.7-.3.4-.4-.1-.3-.9-.7-1.6-1-1.1-.5-.1-.3.2-3 2.5-.3 2-.2.4-2.3 1.2zm153.7 163.5h.8l.3.3-3.5 2.3-1.2.3-.5.6v.8l.2.8-.2.5-3.1 1-1 .1-.8-.2-.7-.3-.3.3-.2.9 2.4.6 4.8-.1 3.6-1.2.4-.1 1.5-.3.3.1.3 1 .9 3-.7 1-.8.2-.4-.1-.4-.3-.4-.7-.9-.7h-.6l-.3-.1-.9.9.1 1.2.3.4.8.3h.6l.4.2.3.5-.2.8-4 2.6h-.5l-.3-.4-.3-.7-.2-.9-.2-1.3.3-1.2-1.9-1.7-2.4 2.7h-.7l-6.6-1.5-2.3-1.4-.8-3.9.3-.5.4-.3 3.1-1.2 2.5.2 1.3.2 1.4.5 3.6-.4.5-.4-1.7-.5.1-.5 2.7-2.1.4-.2 1.8-.3zm-140.6-177.6-1.1-2-.4-.4-.7-.4-1.2.9-.1.5-2.6-.6-3.2-1.9-.3-.3-1.8-2.9-.3-.6-.3-.9v-.5l1.9-2.4 1.7-2.4-2.3-.6h-.3l-1 .5-.4.1-3.3-1.1 1.5-1.8.3-.3.8-.8.5-.3h.4l5.3 2.5 3.5 5.6 1.5 2.4 2.2 3.9.3.9.1 1.1-.1 1.5-.3.2zm154.6 183v-1.5l-.1-.6-.7-1-.9-.2-.3-.7.2-3.3.3-.3 1.6-.9.3-.1 3.1-1 1.6-.2 8.5.5.9.1 5.1.8 1.3.9-.5.4-.9.2-5.2 2.2-2.7 1.3-4.2 1.4-3.1 1zm-133.2-96.6h-.3l-.4-.2-4.4-3.9-.3-.5v-.5l.4-1.8.2-.4 1.4-2.2 4-5.1 1.6-1.4.4-.1.4.1.4.3.4.5 1.6 2.4-.8 6.2-1.1 3.8-.2.5-.3.7-.5.3-.5-.1-.3.1-.9.7zm-39.8-54.3h-.3l-.7-.4v-1.2l1.8-1.9 1.4-.8.6-.4 1.8-2.7.2-.6h-.3l-2.9 2.2-.5.6-.6-.1-.4-.5-.2-.6v-.6l.2-.5 3.9-5.7 2.2-1 2.9-.6 1.5 1.4.3.4 1 2 .3 3.9-.3.7-1 1.6-.3.2-.7.1-.4-.2-1.5-3.3-1.1.8-.4 1.5-.9 2.9-.4.3-1.2.4-1.1.2-1.6.4-.5.4zm-14.4-30.1-2.9-.4-.6-.2-.4-.3-2.4-4.5.2-.6 1.1-1.6.9-.7.4-.1h.4l.8.4v-1.3l-1.2-2-.9-.6-1.1-.6v-.6l1.2-1.5.6-.2 6.1.4 2.5-.2.3.3-.1.6-2.3 4.3-.5.2h-.3l-.6-.1-.5-.1-.6-.4.1 1.3.6 2.9.6 3.3-.3 1.5-.5.4-.4.2zm-1.7-40.8-.6-.8-2-1.8-.7-.1.4 1.3.3.8.1.5-.4.3-.7-.2-1.1-.8-.6-.6-1-1.4-.1-.5v-.6l-1.8-1-2.8 3.6-.6-.1-1.1-1.7-.2-.4-1.1-5.4 1-1.7 5.1-1.3.4.1.4.2.5.4 1.3 1.4 4.2 6.1.2.4 1.1 3.2zm21.1 100.9-.7-.9-3-5.7 1.5-7.2.4-.7 1 .8.2.5-.3.7.1.5h.7l.9-.3.6-.3.6-.9-1.7-5.5-1.2-2.2-.8-.3-.5-.3-.1-.5.3-.6.5-.5.4-.3.6-.2 1.9.4.6.6.2.5 1 4.1.4 1.5-.2 2-.6 5.9-.8 5-1.1 2.8-.3.6-.3.3zm-28.8-137.2-2.3-4.8-.4-.6-2.7 1.9-.7 2-.2.4-.4.4-.6.2-4.5-2.6-.3-.4-.2-.4-.2-.7-.1-.5v-.6-.5l.3-1.5.3-.5 2.1-1.1 5.1-.4.5.1 1.2.3.4.2.7.8 3.2 6 .1.6-.9 1.4-.3.3zm10.2 7.3-3.2-2.8-4.5-.8-1.4-.7v-.7l.2-.6.6-1.5.3-.6 1.5-2.7 4.2-.4.9.5 1.9 1.6.4 1.6.1.6v7.5l-.5-.3zm5.4 108.6-.3-.7-.5-3.6 1-1.5 1-2.2-.1-2.4-.4-3.3-.2-.8v-.7l.1-.6.2-.5 1.2-1.4.4-.4.4-.1 4.1 2.7.5 1.4.1 1.4-.1.6-.4.4-.4.1-.5-.3h-.5l-.3.2-1.2 4.3.2.8.2.8.1.8-.1.7-.2.9-3.5 3.1-.3.2zm39.1 30.7-1.5-.8-1.4-1.9-.8-3.7.1-.5.4-.4.3-.2h.6l.7.2.4.3.8.3.3-.2-1.5-2.4-.4-.3-.8-.5-2.7-.5-1.6.5-.4.2h-.7l-.6-.2-.9-.6-.2-.6 1.7-2.1.5-.4.5-.3.3-.1.5.2.4.2 2.6 1.6 2.2 1.7 1.4 1.2 5.2 4.8.1.7-1.1 1.1-3.4 2.5-.9.2zm-60.9-137.1h-.3l-3.5-1.3-.5-.3-.2-.4 1.1-3.4 1.4-1.3.4-.2.6.2 1.3-1.6.5-2.3 1.1-2 .4-.5.5-.3.4.1.6 1 1.6 3 .2.6-.4 1.3-.4.8-.2.4-3.5 5.1zm34.5 69.5-2.4.1-1.2-.2-3.2-.6-.5-.5-1.2-3.1-.1-1.6.1-.5 1.4-2.5 1.9-1 .4.1 2 1.4 3.2 4.9.1.5-.1 1.8-.3 1zm22.8 46.9-2-.1-4.5-1.9-1.8-1.7-3.1-6.1 3.9.7 6.6 3.9 2.6 1.3v.5l-.8 2.8-.3.4zm111.5 132.7h-.5l-2.3-.7-1.8-1.1-3.1 2.7-.4.3-2-.3-1.8-2.8 1.1-3.1 1.4-.1 4.6.3 2 .3.9.5 1 .3.7-.2.6-.5.4-.7.3-.1 1.7.9 1.2 2.3-.6.3-1 .2zm-96.9-121.8-.2-.4-1-1.4-1.6-1.8-2.3-1.8-.6-.3-1.9-1-4.1-1.7-.4-.2-.6-.4-.3-1.6.3-2 .9-.9h.4l.6.3 5.6 3.8 1.7 1.2 1.2.9.3.5 2 3.2 1 2.5.1.8v.9h-.5zm-11.6-18.5-.7-.1-.5-.2-4.5-2.4-.7-.4-.6-.6-.2-.9.2-.5 1.3-.5 1.3-.2 1.1-2.8-.9-2.7.1-.5.2-.2h.4l.5.4 5.3 9.2.1.7-.3.5-.3.3-.7.5-.6.3-.3.1zm222.8 166.9-.2-1.6-.3-.2-1.6-.2-1.7.7-2.8-.6-.3-1.3v-2.5l2.8-4.1 1.6-1.1.5-.1 3.6 7.1.8 2-.1.6-.6.7-.6.3zm-245-147.4-.2-.1-.8-1 1.5-10.6.1-.7.4-1.5.2-.7.3-.5.4-.1h3.9v.7l-3.2 11.3-.3.4-2.1 2.6zm88.5 82.4 1.8 1.3 1.1 1.7-.9 2.9-1.1 2.8-.6.3-3.1.6h-1.1l-.7-.3-.4-.3-.6-2 2.8-6 .5-.7.9-.7.8-.1.3.2zm-56.9-74.9-1.4-1.4-1.4-2.6-2.8-1.8-2.7-2.6-.3-.4-.4-1 .3-.7.8-.7h.3l1.5.7 1.5 1.8 4.3 1.6.7.6.4.6.2.5 1.2 3.1v.8l-.3.6-1.1.9-.7.1zm19 46.4.7.2.5.6-1.6 3.1 2.2 2.4.3.7-2.5 1.9-.6-.1-4.2-1.7-4-2.2-.6-.6-.7-.9v-.5l.5-.1 1.2 1 1.1.6.7.3.5.1h.3l1.2-.1 2.3-1.3-.1-.5-.3-.2-1-.3.1-1.9 3.3-.4h.3zm-81.5-195.8-.8-1.1-3.5-7 .9-.2 1.5.3.5.1.9.3 1.1.5 1.1.6.4.3.3.3.5.7.2.4.9 2.1v.5l-.2.4-2.8 1.8-.5.1zm37.3 96.4-4.1-1.3-.5-.3-1.2-2.4-.1-1.3 2.7-2.7.5-.1.4.1.4.5 2.3 3.5.2.4.2.5.2 1.3-.5 1.7-.4.1zm4.3-.1-2.1-6-.8-2.5-.9-4.3.1-.5.7-.2.8 1.1 2.6 5.4 1.6 4 .5 1.7-1.3 2.3-.4.3h-.4l-.3-.4-.1-.8zm137.6 129.1-.3.1h-.6l-4.1-1-.6-.2-1.4-1.6-.3-.4-.2-.6.1-.9.2-.6.4-.2h.6l5.4 1.3 1.9.8.6.7v.8l-.3.6-.6.9-.4.2zm-87.8 5.9-1.9-.7-3.8-1.1-.4-.5 2-2.4 1.1-.2 1-.1h2l.4.1 1.7.7.2.5.8 2.4-.4.6-.5.2zm193.9 27.5.7.5 1 2.4-.3 1.3-.8.9-.5.2-3.2.3-1.5.1-.3-.2-.7-2.5.6-1.5.6-.5 2.1-1.2.8-.2h.6l.5.1zm-204.1-128.6-.3-1v-.9l.1-.7.1-.5.8-2.8.2-.2 2.1-1.5 2.2-1.2.1 1.5-1.9 6.3-.7.4-1.5.8-.6.2-.3-.1zm-32.6-27.4-.4-.2-.4-.4-1-3v-.5-2.3l.2-.5.3-.2.5-.1h2.2l.8.4.3.6.7 2.3.1 1.1-2.4 2.8zm-47.4-110.2-.2-.1-3.4-1.6-.2-.7 1.4-2.6 2.5-4 .4-.1.3.5.2.5.2.7.1.6v.6l-.3 3.3-.4 2.1-.2.5zm21.7 72.9-.7-.1-.2-.4.3-4.5 1.4-1.5.3-.2.5-.1 1.8-.1 1.9.3.2.5-.3.8-2.1 2.5-2.1 2.3-.4.2zm3.7-41.3-.5-1.7-.9-4-.1-1.8v-.7l.3-.2 2 1.3.8.6.4.4 1.7 2.6-.1.4-3.1 3.7zm-4.3 107.4-.3-.2-.2-.4.1-4.5.3-1.9.1-.5.4-.6.6-.6.5-.3h.8l.7.5.2.7v1.8l-.2 2-.2 1.5-.2.6-.3.4-1.1 1.3-.6.3zm25.1-25.1-1.9-.7-1.3-.7-.4-.4-.8-2.4-.3-1.4v-.9l2.1-1.1.4.2 2.1 4 .2.4.4 2.5-.1.5-.4.1zm246.6 153.7-1.4-.1-.3-.4-.3-.9-.1-.5.2-2.2 2.3-2.2.7-.1h.5l2.1.6.5.8-2.1 3.8-1.6 1.1zm-116-5.8.7.1.6.2.8.9-.2.6-.3.2-5.2 1.9-2.2.3-1.6-.7-.5-.7.3-.5.9-.7 3-1.4 2.1-.6 1.4.3zm-162-174-.4-.4-.3-.4-1-1.9-.2-.8.5-2.9.4-.3 2.2-.2.3.3.2.6.7 6.1-.3.3h-1zm101.1 162-.4-.1-1.7-1.7-.8-2 3-2.3h.6l3.3.8.2.5-.1 1.1-1.9 1.2h-.3zm-82.5-104.7.1-1.1.1-.5.3-.5 3.8-5.2 1.1.5.7.6.2 1.4-.2 1-1.5 1.4-3.1 2.7-1.2.8-.3-.2zm141.6 82.1h-.3l-2.8-1.5-.9-.8-.5-.6-.2-.7.1-.5.3-.3 4.8-1.7.3.4.5.9.3 1-.4 2-.3 1-.3.4zm-105.2-12.8-.4-.1-1-2.3-.2-3.9.2-.5h.4l4.1 2.1.7.5v.6l-.2.5-2.6 2.4-.4.3-.4.2zm7.9-32.7-.8.2h-.4l-1.1-.9-.3-.4.2-.7.5-.1.3-.2-1.1-.5-1.2-.2-2.4.1-.5.2-2.5.9-.6.5-.4-.3 1.3-1.7 3.4-1.4 4.4.6.4.2 1.4 1.3-.1 2.2zm-19.1-52.1h-.3-.7l-.6-.2-.3-.4-3.2-4.8-.2-.9.2-.5.7-.1 2.1.8 1.8 1.8 1.1 1.8v.6zm209 174-1.3-2.4-.4-.2-1.7.3-3.3 1.5-.4-.1-.3-.4-.2-.8.3-1.1.9-.4.3-.1.8.2.6.1 1.2.1 3.1-.4 1-1 .3-.2 1.4.2.6.6-.5 2.5-.3.4-1.4-.3-.3.1zm10.5-48.7 1.5.2 3.3.7.4.4 1.7 3.7-.4.3-.6-.2-7.1-3.5-.4-.6.1-.6.2-.3.6-.2.6.1zm-243.7-97.7-2-1.5-.7-2.3 4.9-2 .7.1.2.5-1.5 4.3-.8.7-.5.3zm21.4-48.5-2.2-.2-.3-.2-.8-.6-.9-1.7.1-.5.6-.9 1-1.3.5-.2.5.1.6.2.4.4.3.3.3.4.3.8.1 1-.2 1.8-.1.5zm-52.9-113.2h-.7l-.4-.2-.1-.6.7-2.7.4-.7 2.5-.3h1.5l.9.3-2.3 2.9-.4.5-.4.3-.8.4zm29.9 155.6-.5-.1-.3-.3-.2-.5-.1-1 .2-1.1 4.7-3.8.5.9-1.8 4.5-1.7 1-.5.2zm229.3 138.8-.3-.3.3-5.4.3-.7.6-.5h.4l.6.5.4.3.5.5.3.4.4.8.2 1.8-1.3 1.4-.6.5-.7.4zm-75.2-20.9h-.3l-.5-.2-.5-.4-.1-.5.3-.5.3-.4 3.8-2.9.5-.3h.4l.3.2.4.5.1.8-.8 1.7-2.6 1.5zm-125.8-70.1-.1.6-1 2.4-.7.7-1.7.9h-.5l-.3-.2-.6-.6-.2-.5 1.4-1.8 1.1-1.3 1.1-1.1.3-.1.4.2.7.5zm217 102.8-3.2-1.2-2-1.2.1-.7.3-.3.5-.3 1.6-.1 2.2.4 1.2 1.3.4 1.8zm-220.8-167.9-2.4-.1-.4-.3-.6-2.1.6-1.9.3-.3h.4l.4.3.3.3.7.6 1.6 1.9v.7l-.5.7z"/><path d="m27.1-345 4.6-.9 4.1-3.5 4-4.1 8-1.2 5.1 2.7 4.4-1.2.1-3.5 2.4-3.3 4.4-.6-.2.9 2.4 3.1 3.8 1.9 1.4.9 2.8 2.4.5.4 1 .3.8.1 1 .3 2 1.3 1.7 1.8-2.6 3.7-.5.9-.7 1.4-2 3.3.1 1.2 2.1 1.1 1.9 1.2 1.6 2.4-.9 4.4-1 .1-1.1.3-3.5 1.5-.1.8.6.6 1.8 2.9 1 3-.9.6-.5.7.3 1.5.5.8.5.6 1.1.9.9.4 1 .3.9.2.9.2.7.2 1.8.9.9.7-.1.6-1 .8-.5.6-.8 1.6.6 4.2.3.6.1.1-2.2.2-5.4.1-2.5.7-.6.3-.5.4-.2.8.5.5.9.4 2.2.5.8-.1.7-.2 1.5-.6.9.1.5.7v1.4l-.2.9-.9 2.4-.4.8-.2.8-.1.9.1 1-2.5 1.6-3.6.9-7.4 3.5-9 3.6-2.1.8-2.1-.4h-1.8l-3.3.1h-.7l-3.1.6-.4.2-1.2-1.7-.3-1 .5-1.1-2.5-5.8-.9-1.5-.8-1.2.2-1.8.4-1.1-.5-1.6-.6-.8-.5-.3-1.2-.8-.6-12.7.4-2.9v-.9l-1-1.8v-2.4l.3-1 .2-.9-.3-2.4-.1-.9-.7-2-2.2-7.9-1.6-4.6-1.6-3.6-1.6-2.2z"/><path d="m86.3-300.7h.8l.7-.2.9-.1 7 8.3 1.5 1.8 1.5 9.7.6.5 1.1 1.1.6.9.7 1.4.8 2.3.2.7.2 1.2.1 1 .3 1.5 3 2.3.8.3 1 1.3 1.2 4.1.2 1.1-.2.9 1.8 3.8 1.8 3.8-.3 5.1.8 3.6 2.6 1.2 6.3-.2 6.9-2.6 4.3-1.6 2.6 2.1 3.5 2.8-.8 4-.8 3.9-.8 3.9-.2 1.1-2.4 20.6-8.2 5.3-7 4.5-7.9 5-1.7 1.1-.5 1.7-1 1.7h-1.4l-.6.6-1.6 3.5-1 2.3-.7 2-.5 1.8v1l.9 1.7 1.5.6 5.3 6.6-1.7 1.3-1.9.6-.3.3-.4 1-.2 2.3-1.6.2-1.1.5-.8.7-1 1.2-.8 1.1-.6.6-.7.3-1.5.1h-1.1l-.9.3-1 .6-.8.6-.6.5-1.3 1.4-.4 1.7v2.3l-.4 1.2-.6.1 1.1 5.6-8.5 1.3-.6 3.6-2.8 1-2.3 3.8-5.1-2.7-2.8-2.8-.4.1-2 .1h-.9l-1.1.1-1 .6-.5.4-1 .9-.6-.2-3.4 2.8-2 .5-2.6.8-1.2.4-.8.3-.7.4-.5.4-.5.4-1.4 1.4-1.1 2.1.6-1.5v-.7l-.3-1-.8-1.7-.9-.7-.7-.6-1.3-2.2.4-3.5.3-1.6 1-3.3 1.4-2.5.9-1 2-3.7v-3.4l-.3-1.8-.9-1.7-1.6-1.7-.5-4.2-1.2-1.7-.8-1.7-1.7-3.9-.3-5.1-.2-5.2v-1.6l-.5-.6.1-2.7.2-1.7.2-.7-.1-2.2-.4-1.9-.7-1-.2-1.1-.3-4 .1-2.2.7-1.3.7-.7.3-.9.4-1.6.1-.9.1-.8-.2-1.3-.4-.9-.5-.9-.5-.4-1.1-.5-.9-.3-.6.4-.5 1.9-2.5-.1.1-3.9-.5-4.6-.2-5.3.8-1.3 1-.6.4 1.4.7.7 1.7-.6.9-.6.5-.6.4-.7.3-.6.5-2.1.4-1.8-.3-.9-.1-.6-.5-1.4.1-4.6-.2-6.2-.2-4.4-.1-4.8.1-2 .3-2.4-.1-8-.3-.9-.4-2.1.3-1.7 1.2-1.3-.1-1.6.5-3.4.4-.2 3.1-.6h.7l3.3-.1h1.8l2.1.4 2.1-.8 9-3.6 7.4-3.5 3.6-.9 2.5-1.6-.1-1 .1-.9.2-.8.4-.8.9-2.4.2-.9v-1.4l-.5-.7-.9-.1-1.5.6-.7.2-.7-.1-2.4-.6-.9-.4-.5-.5.2-.8.5-.4.6-.3 2.5-.7 5.4-.1 2.2-.2.2.3.7.6z"/><path d="m104.8-162.1-.2 2.6v.7l.1 1 .2.8 1.8 3.6 2 3 .3.8 1.9 5 2.8 7.9-.4 1-1.5 1.9-1 1-.6.7-.4.8-.2 1.6v1l.1 1.8.1.7.3 1.5.3.6.4.6 1 1.1 3.6 3.2 5 5.7.3.6-.5 3.7-.8.7-1 .8-.5.3-6.5 3.3-1.6-.7h-1.3l-1.2.3-.7.5-.9 2-.4 1.2-.2 1 .4 1.2-.6 2.9-3 8.3-.7 1.1-.7 3.5v1.4l-.4 4.3-.2.8-.3.9-.4.7-.8.3-1 .3-1 .7-.6 2.2-.1 1.5-.2.7-1.1 2-3.2 5-1.9 2-1.3 1.3.5 4.6v1.2l-.8.6-.9 2.8.2 1.6.3.7.4.7.3 1.1-.5 3.1-.3 4.4.3 1.8-.1.8-.3.6-.8.8-1.8.5-1.5 2.4-1.6 3.3.1 2 .3.7 1 1.5 1.6 3.5.2.4-3.5.2-5.5-1.5-2.4-.8-4.2-.5v-.9-1.3l-.6-1.3-.4-.5-4.5-3.9-.8-.6-.9-.6-1-.5-.9-.4-1-.1-2 2.1-.8 2.5-1.4 6-4.5 1.2-2.8-3.1-2.5-3.8-.4.3-.5.3-3.4 1.3-1.1.4-1.1.1.1-2.6-1.5-4.2-.5-2.6.1-.9.8-1.3 2.3-2.9 1.9-3.2v-1.8l-.1-2 .5-1.5.6-1.4 1.3-4.4-.4-3.8-.4-2.7-.4-6.4.5-4 .4-2 .8-2.2.9-1.7 1.2-.8 1.3-1.3v-4.5l-.7-1.7-1.4-3.1-1.6-4.9.1-.8.2-.9.6-.6 1.7-.6 1.2-2.2.6-1.8-.8-1.9-.6-1-.3-.8 2.2-9.3v-1.2l-.3-4.1.6-4.5-1.4-3.1-.2-1.1-.1-2.6 1.1-2.1 1.4-1.4.5-.4.5-.4.7-.4.8-.3 1.2-.4 2.6-.8 2-.5 3.6-2.9.6-.7 1-.9.5-.4 1-.6 1.1-.1h.9l2-.1.4-.1 2.8 2.8 5.1 2.7 2.3-3.8 2.8-1 .6-3.6 8.5-1.3-1.1-5.6.6-.1.4-1.2v-2.3l.4-1.7 1.3-1.4.6-.5.8-.6 1-.6.9-.3h1.1l1.5-.1.7-.3.6-.6.8-1.1 1-1.2.8-.7 1.1-.5 1.6-.2-.1.2-.4 1.4z"/><path d="m38.4-25 1.1-.1 1.1-.4 3.4-1.3.6-.4.4-.3 2.5 3.8 2.8 3.1 4.5-1.2 1.4-6 .8-2.5 2-2.1 1 .1.9.4 1 .5.9.6.8.6 4.5 3.9.4.5.6 1.3.1 1.3v.9l4.2.5 2.4.8 5.5 1.5 3.5-.2.1.3.3 1.5-.2 1.1v.9l.3.7.4.5 1 .5.1.2.7 2.6.5 4v1.9l-.1.9 2.3 3.2.8.4.5.7.1 1.6-1.3 4.8-.9 1.8-1.6 1-.9.2h-.6l-2.2 1.9-1.7 4.3-.8 2.8-.3 1.4-.6 5.1v2.3l.1 1.4.2.8 1.3 1.1.1 1.2-1.6 2.4-1.9 1-.7-.6-1.7 2.5-.2.8-.1 4.9.5 5v2.1l-.1 1.2 5.1 8.6.4.5.6.6.6.3 1.2.1 2-.4.6.2 1.6 1.4.3.9-.5 2.8-1.4.3-1 1.5 1.7 4.7.1 1.3-2.7.8-.9-.4-.4-.8-.7-1.6-.9-.6-.8-.1-.6.1-.9.1h-1.4l-1.5-.8-.1-.8-.3-1.1-2.2-.9-8.8 1.6-.7 1.5-1.2 1.8-.6.5-5.7 2.2-1.2.1-.9-.1-1.4-.5-.8.1-.6.5-.5.9-.3-3.3.1-1.7.1-.8v-1.4l-.4-2.9-.8-4.1-1.1-1.9-1.2-3.3-.3-2.1-.3-.9-2.5-6.8-1.8-4.4-.3-.6-.3-1.1.1-1.9-.3-3.1-.5-1.1-.6-.7-.3-.7-1.3-4.7-.5-3.5-.4-3.3-.2-1.8-.3-5.6.6-2.4.8-.5.4.5 1 .2.7-.1 1-.7 2.6-3.5.4-1.1.4-6.9 1.2-1.7-.4-2.5-1-.8-.7-1.8-.8-6.5.1-2.6.2-1.2-.3-.7-1.4-3-.5-.7-.8-.6-1.7-.9-.8-.3-.7-.3-.4-.7z"/><path d="m106 142.1-.1-.7-.3-.7-.8-.4-1.5-.3-1.1-.9-.2-.7-.2-2.3-.6-1.4-.6-.3-.8.2-.7.7-.7.3-2.1-.4v-1.8l-1.7-3.6-.7-.5-1.1-.2-1 .2-3.2 1.8-1 .9-2.1.5-.8-.1-2.2 1.8-3.2 5v.8l.3 1.5-2.3.9-2.8.5h-.1l-2.9-3.1-3.9-1-2.3-3.1-4.7 1-3-.8 1.4-1.2.5-3.3.6-.1 1.7-.2 1.5.2.9-.2 1.2-1.7.6-5-1.5-2.5-.8-2.3-.1-.7.7-.5 1.7-2.4.7-1.3.1-.8-.4-2.4.3-.8 1.7-.6 1.8-.3 1.8-1.7-.7-4.3-.6-1.5.1-1.3.5-.4 3.2-1.8 4-.6 2.8.3 1.6.3 1.3.9.6 1.3 1.2 1.3h.7l1.6-1.9h.7l2.4 1.9 3.2.9 2.1-2.5 1.4-1 .6.8.1 1.6-.1 1.1.3.9 3.4 3.7.7-.2.4-1.1.7-1 .7-.2.8.1 2.3.9 1.4 3.6-.1.9-.6 1-1.2 4.3.1 7.9.3 1.7.9 2.2 2.1 7 1.6 4.7-1.8 1.8-1.4.1-.7-.1-.8.1-1.2.4z"/><path d="m56.3 75.1 1.2-.1 5.8-2.3.6-.5 1.2-1.8.7-1.6 8.8-1.6 2.2.9.3 1.1.2.8 1.5.8h1.4l.8-.1.6-.1.8.1.9.6.7 1.6.4.7.9.4 2.7-.8.3.6 2.1.6.5 1 2.9 4.3.4 1v1.3l1.4 1.1 2.1 1.5 3.1 3 .7 2.8-.9 2.3-.4 2.6-1.2 2.2-.6 1.7-1.4 1-2.1 2.5-3.2-.9-2.4-1.9h-.7l-1.6 1.9h-.7l-1.2-1.3-.6-1.3-1.4-1-1.6-.3-2.8-.3-4 .6-3.2 1.8-.5.4-.1 1.3.6 1.5.8 4.3-1.8 1.7-1.8.3-1.8.6-.3.8.4 2.4-.1.8-.7 1.3-1.8 2.3-.7.5.1.7.8 2.3 1.5 2.5-.6 4.9-1.2 1.7-.9.2-1.5-.2-1.7.2-.6.1-.5 3.3-2.5 2.2-.8 1.4h-1l-1.1-.1-.8-.5-1.4.2.4-3.3.6-2.5.7-.4 1-.4.8-.6.9-1 .3-1.4.1-.7v-1.1l-.1-2.7-2.5-6.1-.9-4-2.2-4.9.2-.7 1.4-.1 3.3-3.3.8-4v-4.8l.7-2.1.2-1v-1.1l-.8-4.9.5-3.5-2.3-2.9-1.5-1.6-1-2 .5-.8.6-.5.8-.1 1.4.5zm-1122.6-5.6-1.4.8-.9.1-.3.1-1.5 1.1-.7.6-.3.3h-.5l-.1-.7.4-2.5.1-.4.1-.3.4-.6.7-.2 4.5.5.1.4-.1.4z"/><path d="m27.1 301.5h.1l.6.2 1 .4 2.6 1.2 6.5-8.6.3-1 .1-.7.1-1.2-.7-.8-1.1-.4-1.5-2.7 2.7-5.8.7-1.1-.2-3.4-.5-.7-1.9.1-.7-.7 2.2-3.7 3.9-1.2 1.3.5 1.3.6 1.1.5 4.1.4 2.5-.4 2.1 1.8 1.1 1.9 2.2 2.3 1.4.6.6.2h1l1.1.1.8.3 2.8 1.8.5.8 1.1 1 .7.3 4.5.1 3.5-.9.8-.4 1.1.2 1.1 1.2.2 1.5v1.1l.1 1.2.2.8.9 2.1.5.7 1.2.6.3-1 .3-1 .4-.6 2.4-1.6 1.7-1.3.4-.5.3-1.3 2.9-1.1 6.7-1.1h1.9l.2 1.7v2.7l.6 2.1 1.6 4.7.8 1.2 1.4 1.1.8.4 1.2.7.7 1.2.1 1.2-.4 3.9-1.5 2.1-.6.4-1.4.2h-.9l-.8.2-1.2.8-3.7 3-2.5 2.1-.7.6-.8 1.1-.4.9-.1 1 .2 2 .2 1 .4.9.6 2.3 1 4.1v3.4l-.8 4.1-.3 4.9v1.4l-.3.8-2.7.5-.8-.2-1.5-1.5-.4.1-.2-.8-.3-.9-.5-.8h-.6l-2 .2-1.8-.9-.9-.7-1-.5-.8-.1-4.7.3-.8.3-.7.5-.7.9-.5.7-.7.5-2.6 1.5h-1.1l-1.4-.5-4.5-.9-.9.1-2.1.7-.8.2-.9.1-.9-.1-.8-.4-1-.8-1.1-1.4-.6-2.1-.7-.4-4.2.7-1.2 2-.4 1.1-.7.9-.8.6-.9.2h-.8l-.8-.1-1-.1.5-1.4-.8-4.1-2.5-5.6-6.8-13.8-2.5-5.4-1.3-4.3-.1-1.2.2-2.2z"/><path d="m57.6 135.6 3 .8 4.7-1 2.3 3.1 3.9 1 2.9 3.1h.1l2.8-.5 2.3-.9-.3-1.5v-.8l3.2-5 2.2-1.8.8.1 2.1-.5 1-.9 3.2-1.8 1-.2 1.1.2.7.5 1.7 3.6v1.8l2.1.4.7-.3.7-.7.8-.2.6.3.6 1.4.2 2.3.2.7 1.1.9 1.5.3.8.4.3.7.1.7-.1.4.3 2.1.4 1.6-2.3 5-1.7 4.9-.9 7-1.1 5.3-.2.1-1.7.1-5.3.2-3.6-2-1.4-1.1-.6-.3-8.5-1.2-1.1-.1-.8.1-5.1 1.2-2.1 2.4.2.8.3 1.2-4.6-.1-4.4.4-3.1-.5-4.2-1-1.2-1.4-2-1.8-.6-.3-.9-.2.1-1.4-.3-4.7-.5-2-.3-1.4.5-1.1 1-.8.2-.9-.3-1.8-.6-2.6-.7-.7-.3-.7-.1-1.2 2.5-6.8.6-1.1 1.4-.2.8.5 1.1.1h1l.8-1.4z"/><path d="m24.2 508.6-.5.6-.6.2h-.8l-.4.2-.5.3-.3.2-.9 1h-.3l-.5-.2-1.2-1.4-.2-.3-.2-.4-.2-.4v-.7l2.3-1.6h.3l2.7.9.3.2.8.6zm29-47.9.1 1.4h-.6l-.4-1-.2-.4-.2-.3-.5-.3-2.9-1-.4-.1-1-.1-.5-.2-1.1-2.1v-.4l.4-.3.7-.2 1-.2.7.1.6.3zm-17.7-25.3-.5.9-.8.1-.8-.4-.6-.1-.3.9 1.2 1 2.7.5.7-.7 1.1-1 2.8-2.3 2.8-.8h.9l2.2 1.1.1 5.2 2.7 3.2-.3 1.4-.8.4-.1.9.5 1 2.2 1 .8.1 1.1 2.1-.1 1.5-.2.9-2.9 1.2h-1.6l-.7.2-1.8 1.4-.6.5-.4.8.3 3.3 1.1.8.8.3.5.5-2.9 1.8-1.8-1.2.3-1.6-.9.4-.5 1.7.9 3.5 6.3 4.7 1.5.3 1.8.9.6.5.7 2-.1.9-2.2.7-1.1.1-.9.7v1.6l1.1 1 1.7 1 .3.6 1.3 1.8.9.9.5 1.2-.6.7-6.6.4-1.1.6.9 3.3.4.2.9.5.7 1.3-.1 3.6-.5.3-3.7 1.4-1.1-.6-.9-.6-.8-.1-2.7.3h-3.1l-3.9-.5-2.8-1-.6-.4-.6-.8 1.3-5.7 2.3-3.8-.6-1.2.8-1 .8-3.4-.4-9.5-.6-2.7-.9-2-.6-.4-.8-.4v-3.4l-.5-7.2.2-.7.4-.9.5-.8 1.2-1.5.4-3.2.1-6-1.5-2.1-.4-.8-.1-.8.7-1.7 3.4-.2zm-4.8-60.1 8.8-.6 2.1 2.6 2.9.2 4-4.1 4.8 1 3.6 4.7 4.4 2.2 5.8 3.8 6 1.4 2.8-4.5 1.8-3.7 4.5-1.2 5.4-.1.1 1.6.2 1-.3 1.7-.5.9-.5.7-.8.9-.4 1.1 1.5 2.9 2.5 3.8.6 1.6-.3 2.2.8 1.7.4 7.1v1l-.4 1.2-.1 2.5.3 1.1 1 1.7 1.2 4.4-.9 2.3-.5.9.2 1.1 2.5 4.2 2.4 3.4.5 1 .7 2.2.4 2.1 1 1 .5 2.5-1.3 1.6-3.5 2.4h-.9l-.4-1-.5-.6h-1l-.6.5-.5.7-1.9 5.7.8 1.1 1.7 1.1.5.7-1 6.5-.3.9-.1.9v.9l.8 3 .8 2 .3 1.6.7 3.7.1 1.1-.1 1.3-.2.9-.1.8.2 2 .7 1.2 1.5 1.8.8.5 1.6.4 1.2-.2.8-.1 1.8-.1 1 .1 3 1.3.8 4-.1.8-.5.5-1.1-.1-2.8 1.4-.6 2.6.2 2.7 2.8 1.5 4.9 3.4.7 2.5-.2 1-1.7 1.5-.5.3-.6.4.2 1.2 1.8 2 2 1.6-2.3-.7-1 .2-3.8 2.6-.2 1.7-4 1-.5-1.5-.7-1-1.1-1.1-.9-.5-1.3.1-.7-.2-2.8-3.4-.4-1.7-1.5-.3-.9.8-1.1 1.5-.7 1.6-.2 1.7-5.7-.1-1.9-.2-.7-.4-1.9.2-.2-1.7-.2 1.4h-.5l-.8-.2-1.3-1-1.4.5-1.2.9-.3-1.4-.5-4.7-2.6-4.3-.4-.9.2-5.3.5-.8 1-.9.8-.6.6-.5.6-.3 1-.6-.5-2.9-.8-1.6.1-1 .8-2.3.9-1.3 1-.1 2.2 1.1-.7-5.4-1.1-1-.9-.4-1-.7-.6-1.1-.7-2.2-.4-2.1-.7-5.6.6-2.7.6-.4 2.6-.2h.9l.7.7 2.5 1.2.9.1.3-.5-.9-1.1-1.4-.2-1-.3-1.3-.8-5.9-6.7 1.2-1.9 1.3-1.3 4.1-2 1 .4 1.1 1.4.1.9 3.8 7.3.6.3.3-.8-.7-2.9-1.8-5-.6-1.6-.8-2.8-.1-1.1v-1.5l.1-1.1.1-1-.1-1.3-.6-.3-1.2.2-.8 1.3-1.7 1.4h-3.7l-2.4-.9-1.5-1.5.1-1 1.2-2.7 3.7-5.1 1.2-.1 1 .1 2.9-1.2 1.9-1.3 1.4-1.7.4-.7-.5-7.8-1 .5v7l-.5 1.3-1.9 1.3-2.8 1.4-1 .2-.7-.2-1.3-.7-1.2-2.5-1.2-1.2-2.3-2-1.2-.5-2.8-.3-2.1 1-.9.5-1.4 3.1.6 1.5.6.4.7 2.2-1.7 2.4-1.7 1.7-1 .3-2.1-.2-1-.2-1.9.3-.5.3-1.3.9-.7.4-.5.1-2-.9-3.5-.2-1.5.1v-3l1-2.2.5-.4 1-.2h1l1-.5 1.4-3.8-.8 1-.4 1.4-.5.9-.8.4-3.5.2-1.9-.9-3.2-2.9-.3-1.4.3-1.3-.5-2.6-.6-1.4-1.4-2.7-1.1-1-.6-.9-1.1-3.6-1.3-4.2.8-4.4 2-9.5 1.1-1.9.8-2.7-.4-1.4-1.1-2z"/><path d="m89.3 223.8-.2-.1-1-.9-.5-1.2-.4-1-1.1-.4-.7.2-.5.5-1.9 3.3-.1 1v.8l-.7 1.1h-1.2l-3.1-1.2-.7-.5-3.5-2.1-2.5-.4-1.9-.4-1.2-.5-.8-.6-.5-.8-1-1.5h-1.9l-.7.3-.7.4-.7.1-1.6-.1-.6-.4-.3-.6-.5-.8-2.6-2-.1 1.1.2.9-1.7 2.7-3.6.4-.8-.1-6-2.1-4.7-3.1-.4-1.2-.5-.4-3.5-1 .5-.4 1.2-1.6 2.7-3.6.3-.8.1-1.2-.3-1.3-.9-1.6-1.7-2.8-.1-1 .5-.9 1.1-.9 1.7-2 1.2-5 .6-3.1.3-.9 1-1.6.8-.8 1-.8 1.4-1.9.4-1.4v-1.6l-.1-1.1-.1-1.2-.1-1v-2l1.1-3.8.6-.8.4-1 .4-2.2.9.2.6.3 2 1.8 1.2 1.4 4.2 1 3.1.5 4.4-.4 4.6.1-.3-1.2-.2-.8 2.1-2.4 5.1-1.2.8-.1 1.1.1 8.5 1.2.6.3 1.4 1.1 3.6 2 5.3-.2 1.7-.1.2-.1v.3l.2 1.4.2 1.3.2.7.1 1.6-.4.9-1.9 1.3-.9.3-1 .2-.7.3-.5 1.2.1.9.6.9.6.3 3.5 1.5 1.5 5.2.3 3.6-.3.8.5 1.3 1.3 2.1 1.3 2.6-.8.9-.6 1.5-.2.8.5 2.8.9 3.7-.5 2.3-.3.6-.8.6-1.1.1-2.4.5-2.8 4.3v2.7l.9 1.6-.2.9-6.8 3.6h-.9z"/><path d="m64.2-360.5-4.4.6-2.4 3.3-.1 3.5-4.4 1.2-5.1-2.7-8 1.2-4 4.1-4.1 3.5-4.6.9-.1-1.2.2-.8-.3-1.3-2.7-8-.7-1.2-1.2-5.9v-1.8l.2-4.3-.9-1-.8-.6-1.1-.6-.3-.1.4-.5.6-.5 1.1-.3 2.3-.1 1.4-.1.6-.1 1.3-.4 3.9-2.2.8-.8 2.2-3.2.6-.9 1-3 .4-1.7v-1l-1.9-4.4-.3-.5-.5-.4-.4-.5-.1-1.3.2-.9.4-1h1.3l2.5-.2 4.6-5.6.9 3.8 3.6 2.4.7.5 1.1 1.5.4.8.2 2 .3 1 .4.8.5.7 4.8.8h1.8l.1.9-.2.6-1 .8-.5.6-.2.8.5.8.7.5.8.7 1.2 4.9.5.6.7.7.3.5.3.7v.7 1.6l.3 1.6.3 1.4 1.1 2.5 1.9 2.9.7 1z"/><path d="m87.6 377-5.4.1-4.5 1.2-1.8 3.7-2.8 4.5-6-1.4-5.8-3.8-4.4-2.3-3.6-4.7-4.8-1-4 4.1-2.9-.2-2.1-2.6-8.8.6.1-3.6 1.6-2.7-.5-2.2-.5-1-.9-.8-.5-.8.5-1 .4-.6 5.1-3.5 2.6.1.6-1.3-.7-4.4 1.3-5.8.3-.9.6-2.8.5-3.1-.8-1.1 1 .1.8.1h.8l.9-.2.8-.6.7-.9.4-1.1 1.2-2 4.2-.7.7.4.6 2.1 1.1 1.4 1 .8.8.4.9.1.9-.1.8-.2 2.1-.7.9-.1 4.5.9 1.4.5h1.1l2.6-1.5.7-.5.5-.7.7-.9.7-.5.8-.3 4.7-.3.8.1 1 .5.9.7 1.8.9 2-.2h.6l.5.8.3.9.2.8-.2.3-.3 2 .7 3.8 1.7 4.6 1.6 3.5-.4 3.8-2.2 1.9-1 1.1-.3 3.5 1 1.5 2.4 1.8.4-.9 1.1.5.4 1.4-.7 2.8-.3.8-.5.2-.8-.6h-.6z"/><path d="m90 247.4-.7.3-1.3-.6-.7.4-1.1.5-1.2-.2-.9-.7-.9-.2-.8-.2-.4.7h-.6l-1-.4-.3-.7-1.1-.6-.9-.6-.8.4.1.8.1.7.1.9-.3.8.1 1.3-.7-.2-.9.4-1.1.2-.7.6-.8-.5-.8-.2-1.3-.3-1 .3-.7.5-.3 1.2-.6.8-1.1.6-1.2.3-.9.1-1.4-.6-.5.1-.3.7-.6.1-1.5-.2-1 .9-2.1-.2-1 .5-.2-1.1-.2-1.2.1-1.3.9-.6 1-1.4-.4-.8-.7-.2-.8-.5-1.1.2-1.4-.7-2-2.2-.5.8-1.5.1-.6-.9-.8.1-.3 1-4.3.2.2-1.3 2.6-.2-.5-.8.4-1-1.1-.4-.8-1.8.1-.9-.6-1.4-1.9-1.5h-1.7l-.9-1.2-.8-.6-.8.5-.9-2-.4-1 .5-.8-.4-1.4-1.3.2-.6-1.3-.1-.4-.1.4-.8 3.7-.5 4.2-.2 2.8-.3.6-.5.4-.7.1-.9-.1-.8-.6-1.1-.3.6 7 .4 6.6-.3 2.9-.3 1-.6 1-.6.7-1.1.7-1.5.7-.7.2-.6.1-1.2.2-2.5-.7-.8-.4-1.5-1.3-1.1 1.1-.2.9-.3 5.5.4.6.9.6.8.8.7 1 .3 1.3-.1 1.5-.7 1-.9 1.5-.2 1 1.2 4.4 2.1 1.7 2.6 3.2 1.8 2.9.9 1.8.6 1.5.3 5.6-.3.8-.5.7-.3 1 .7 1.8h.1l.6.2 1 .4 2.6 1.2 6.5-8.6.3-1 .1-.7.1-1.2-.7-.8-1.1-.4-1.5-2.7 2.7-5.8.7-1.1-.2-3.4-.5-.7-1.9.1-.7-.7 2.2-3.7 3.9-1.2 1.3.5 1.3.6 1.1.5 4.1.4 2.5-.4 2.1 1.8 1.1 1.9 2.2 2.3 1.4.6.6.2h1l1.1.1.8.3 2.8 1.8.5.8 1.1 1 .7.3 4.5.1 3.5-.9.9-.2 1.1.2 1.1 1.2.2 1.5v1.1l.1 1.2.3.8.9 2.1.5.7 1.2.6.3-1 .3-1 .4-.6 2.4-1.6 1.7-1.3.4-.5.3-1.3 2.9-1.1 6.7-1.1h1.9l-.2-1.4-3.8-6.5-1.1-1.5-.6-1.7-.9-1.6-.8-1.7-.3-1.4v-1.2l.4-.7.9-.9-.3-4.8-.4-.8-1-1-.8-.9-1.3-2.7.2-1.3.8-1.3.3-1.7z"/><path d="m35.5 212.9-.4.6.2 5.3.5 7.4-.7 3 .1.4.6 1.3 1.3-.2.4 1.4-.5.9.6 1.1.9 2 .8-.5.8.6.9 1.2h1.7l1.9 1.5.6 1.4-.1.9.8 1.8 1.1.4-.4 1 .5.8-2.6.2-.2 1.3 4.3-.2.3-1 .8-.1.6.9 1.5-.1.5-.8 2 2.2 1.4.7 1.1-.2.8.5.7.2.4.8-1 1.4-.9.6-.1 1.3.2 1.2.2 1.1 1-.5 2.1.2 1-.9 1.5.2.6-.1.3-.7.5-.1 1.4.6.9-.1 1.2-.3 1.1-.6.6-.8.3-1.2.7-.5 1-.3 1.3.3.8.2.6.4.8-.7 1.1-.2.9-.4.7.2-.1-1.3.3-.8-.1-.9-.1-.7-.1-.8.8-.4.9.6 1.1.6.3.7 1 .4h.6l.4-.7.8.2.9.2.9.7 1.2.2 1.1-.5.7-.4 1.3.6.7-.3v-.2l-1.8-4.9-1.8-4.5.9-3.9 1.3-7.4.3-2.3.5-.4-.2-.1-1-.9-.5-1.2-.4-1-1.1-.4-.7.2-.5.5-1.9 3.3-.1 1v.8l-.7 1.1h-1.2l-3.1-1.2-.7-.5-3.5-2.1-2.5-.4-1.9-.4-1.2-.5-.8-.6-.5-.8-1-1.5h-1.9l-.7.3-.7.4-.7.1-1.6-.1-.6-.4-.3-.6-.5-.8-2.6-2-.1 1.1.2.9-1.7 2.7-3.6.4-.8-.1-6-2.1-4.8-3.1-.4-1.2-.5-.4z"/></g></svg>