<?xml version="1.0" encoding="utf-8"?>
<!-- Generator: Adobe Illustrator 24.0.3, SVG Export Plug-In . SVG Version: 6.00 Build 0)  -->
<svg version="1.1" id="Capa_1" xmlns="http://www.w3.org/2000/svg" xmlns:xlink="http://www.w3.org/1999/xlink" x="0px" y="0px"
	 viewBox="0 0 139 768" style="enable-background:new 0 0 139 768;" xml:space="preserve">
<style type="text/css">
	.st0{clip-path:url(#SVGID_2_);}
	.st1{fill:none;stroke:#323330;stroke-width:2;stroke-linecap:round;stroke-miterlimit:10;}
</style>
<g>
	<defs>
		<rect id="SVGID_1_" x="-20.9" y="-0.3" width="1034" height="768"/>
	</defs>
	<clipPath id="SVGID_2_">
		<use xlink:href="#SVGID_1_"  style="overflow:visible;"/>
	</clipPath>
	<g class="st0">
		<path id="CL-AI" class="st1" d="M86.4,576.9l0.4-0.2l0.6-2.1l-0.4-0.8l-1.8-0.1l-0.5,0.7l-0.8,0.2l-3.1-0.9l-1.8-1.6l-1.6-1.2
			l-2.6-1.5l-1-0.2l-0.6,0.3l-0.7,1.1l-0.4,0.8l-1.1,0.3l-1.4,0l-0.7-0.1l-0.6-0.4l-0.3-0.9l0.1-2.2l0.7-0.3l1.7-0.3l0.5-0.3
			l0.8-1.8l-2.4-2.7l-1.1-1.7l0-1.5l0.5-1.2l0.8-0.5l0.6-0.1l1.9,0.1l0.9-0.1l2.4-1.3l5.3-4.1l1.4-1.6l3.1-3.7l0.8-2.6l0.5-2.3
			l1.4-7.1l-0.4-3.8l-1.4,1.7l-2.1,2l-3.4-1.9l-2.6-1.8l-0.2-1.1l-2.9-0.9l-1.9-0.3l-0.9,0l-1.2-0.1l-0.9-0.4l-3.3-2.6l-0.4-1.2
			l0.1-1.3l1.7-2.2l1.9-2.1l-0.2-1.5l0.7-2.3l1.7-5.3l0.8-0.1l1.3-0.5l2.8-1.4l-0.3-1.1l0,0l1.9-0.2l0.7,0.4l1.9,0.2l5.7,0.1
			l0.2-1.7l0.7-1.6l1.1-1.5l0.9-0.8l1.5,0.3l0.4,1.7l2.8,3.4l0.7,0.2l1.3-0.1l0.9,0.5l1.1,1.1l0.7,1l0.5,1.5l4-1l0.2-1.7l3.8-2.6
			l1-0.2l2.3,0.7l0,0l1.7,1.8l0.2,0.9l-0.2,0.8l-2,4.5l-0.8,1.1l-0.7,3.3l0.7,1l0.3,1l0.6,4.6l-1.2,1.2l-0.2,0.9l0.9,1l1.5,0.1
			l4.4-0.6l2.3-0.3l1.8-0.6l2.3-0.4l6.1,0.3l1.1,0.7l2,3.2l-0.2,1.4l-0.6,0.8l-1.3,0.4l-0.8,3.1l0.3,1l0.4,1.1l0,1.2l-1.2,2.3
			l-0.8,0.3l-1,0.1l-0.9-0.2l-0.8-0.3l-1.5-0.8l-0.9-0.5l-0.6-0.1l-0.8,0.1l-1,0.6l-1.4,1l-0.6,0.3l-0.7,0.2l-0.6-0.1l-0.6-0.2
			l-0.6-0.2l-1.7-0.1l-0.6,0.4l-0.4,1l-0.8,0.4l-3.3,0.1l-0.7-0.2l-0.6-0.2l-0.8-0.3l-0.8-0.1l-0.7,0.6l-0.1,0.9l1.1,4.6l4,0.3
			l3.8-0.2l2,0l4.8,0.9l1.1,0.8l1.9,2.9l5.8,5.7l1.3,2.9l-3.8,7.8l-3.7,2.4l-0.7,0.1l-0.6,0.2l-0.6,0.3l-1.1,0.6l-1,1l-0.3,4.1
			l0.1,3.1l1.9,4.8l0.9,0.4l0.9,0.2l1.4,0.4l0.7,0.7l1.2,3l-0.9,1l-0.2,0.1l-0.5,0.6l-0.8,1.5l-0.5,1.1l-0.4,1.3l-0.6,1l-0.7,0.5
			l-0.9,0.3l-0.8,0.2l-1.4,0.9l2.3,1.9l1.1,0.2l1.1,0.3l0.7,1l0.3,1l1.5,6.6l1.4,2.4l0.8,1.9l0.8,4.8l0,1.4l-0.3,0.9l-3.2,4.1
			l-1,0.6l-1.9,0.4l-0.5,0.8l0.3,9.4l2.9,3.1l1,0.9l0.5,1.4l-0.2,2l-0.3,0.7l-3.6,2.5l-1.4,3.5l-1.9,2.8l-1,0.5l-1.1-0.2l-0.8,0.1
			l-1,0.5l-0.6,0.4l-0.6,0.5l-0.3,0.7l-0.1,1.2l0.6,0.4l1.1,0.5l0,4l-0.1,1l-0.3,0.9l-1.1,2.6l-0.5,1.3l-0.5,1.9l-1.3,6.9l0.3,1.1
			l0.6,0.8l1.2,1l0.9,0.4l1.3,0.1l2.9,2.7l1.3,4.8l1.3,6.8l-3.5,3.1l-1.8,1l-1.8,1.3l-0.5,0.5l-0.4,0.8l-0.1,1l1.1,3l0.3,1l0.8,2.8
			l0.8,3.4l0.3,2l-0.1,1l-0.6,1.2l-3,4l-0.7,0.8l-0.5,0.4l-0.7,0.5l-0.8,0.5l-1.3,0.5l-1.2,0.1l-0.5,0.2l-1,0.6l-0.8,0.7l-0.6,1
			l-1.6,3.4l-1.9,7.2l0.2,0.9l0.3,0.4l0,0l-0.5-0.3l-9.7-6.1l-7.8-5L72.4,721l0,0l-0.1-0.4l-1.5-0.7l-1.6-0.1l-0.8,0.2l-1,0.6
			l-0.6,0.4l-0.6,0.4l-1.1,0.1l-2-2l-1.2-2.7l1-2.1l2.4-3.4l1.4-1.3l1.6,0.7l3.3,1.8l0.5-0.7l-0.6-5.3l-2.7-0.5l-0.9-0.9l-0.6-0.4
			l-0.7,0l-1.7,0l0.6-0.9l2.5-1l-4.5-1l-4.4-3l-3.1-2.6l-3-1.6l-1.1,0.1l-0.8-0.2l-0.6-2l0.5-1.4l2.8-2.3l3.4,0.8l2.1,1.2l0.7,0.9
			l0.5,0.8l0.8,1.6l1.1,3.6l2.1,1.6l0.8-0.4l-3-5.2l-2.2-2.9L60,690l0.7-0.5l3-0.6l3.6-0.4l0.8,0.4l1.1,1l1.7,0.4l3.1-0.5l2.4-1.1
			l5.9,3.9l0.4,2.1l1.4,2.5l0.2-1.7l1.2-1.6l1.4-0.1l0.7,0.1l0.8,0.4l1.3-0.1l1.2-1.5l0.4-0.7l0-1.2l-0.1-1.5l-0.5-0.9l0.1,2.4
			l-0.4,0.9l-1,1.1l-0.6,0.2l-0.8-0.2l-2.7-1.3l-3.2-2.7l-2.3-2.6l-0.8-3.2l2.4-0.4l0.4,1.4l1.1,1.1l0.6,0.3l0.7,0.2l1.5,0.2
			l6.2-0.5l-1.4-0.9l-2.1-0.3l-1,0.1l-0.7,0.2l-1,0.4l-1.1,0l-1.4-0.8l-6.8-6.2l-1.2-2l0-1.1l0.5-1l0.8-1l0.7-1.4l-1-2.8l-1.7-1.3
			l-0.9,2.9l1.2,0.7l0.3,0.9l-0.3,6.6l-0.5,0.7l-0.6,0.6l-3.2,2l-2.4-0.1l-0.6-0.2l-1-1.7l-0.9,0l-1.4,0.1l-5-0.3l-2.4-0.2l-2.4,1.1
			l-0.7,0.5l-1.4,0.5l-2.1,0l-0.8-0.2l-2.1-0.7l-1-1.2l3.1-6.6l1.1-1l0.6-0.2l2.5-0.1l0.8,0.2l1.8,1.1l1,2.1l1.4,2.6l1.4,1.2
			l1.1,0.4l1.1,0l0.6-0.4l-0.8,0.1l-1.5-0.3l-0.9-0.7l-0.7-1.6l0.9-2.2l2.5-1.1l1.6,0.4l0.8-0.1l1.2-0.7l-1-3.4l-1.8,1.3l-0.9,1.3
			l-3.3,1.2l-0.6-0.1l-7.1-5.5l-0.4-0.7l1.2-3.1l2.6-3.4l0.5-1.4l0.3-1l0.2-1.1l3.6-1.1l0.7,0.2l0.5,1.1l0.3,1.5l1.8,2.6l0.3,0.2
			l-0.3-0.6l-1.2-2.4l-0.2-1.1l0.1-1.5l0.3-0.7l1.8-2.4l2.4-5.4l-2.6-1.9l-0.7-0.2l-0.7,0l-0.5,0.4l-0.8,0.7l-0.9-0.2l-3.9-4.4
			l-0.9-2.4l-0.2-1l-2.3-0.6l-8,2l0.3,2.4l0.9-0.4l1.2-0.2l3.4,0.5l-0.2,1.2l-0.7,0.8l-0.8,0.2l-1.9,0l-2.4-0.7l-7.5-2.3l-3.8-1.3
			l-2.5-3.7l-0.3-1.2l0.2-1l1.3-2.2l1.7-2.4l-0.6-2.8l-0.5,1.2l-0.3,1.4l-2.4,3.5l-1,1.1l-1.8,1.6l-4.5,2l-1.2-0.1l-1.2,0.1l-2,1
			l-1.8,1.2l-0.7,0.8l-1.2,2.9l0.7,0.6l1.2-1.4l2.9-2.7l0.8-0.1l0.8,0.4l3.3,6.6l-0.1,1.1l-1.6,1.5l-1.5,0.9l-0.6,0.3l-0.2,0.1
			l-0.3,0l-1.9-0.3l-2.5-2.3l-2.5-3.4l-0.6-2.8l-0.2-3.9l1.4-3l0.6-0.2l0.7,0l1,0l1.2-0.9l3.1-3.7l-0.4-1.4l1.1-1.7l0.6-0.7l1.8-1.3
			l1.5,1L24,626l-0.2-2.5l0.1-2.1l2.7-4l1.2-0.3l2.6-0.3l3.3-4.9l0.6-2.5l1.1-5.8l0.5-3.6l0.3-0.7l6.2-1.7l2.5-1l1,0.2l0.8,1.4
			l1.4-1.2l3-1l0.6,0.4l0.9,1l2.2,4.4l-0.1,4.5l-0.3,1.3l-0.5,1.4l-0.5,0.8l-0.4,0.5l0.6-0.2l1.6-1.8l0.2-2.3l-0.2-0.9l-0.4-0.9
			l0.3-0.8l2.6,1.9l0.3,0.9l0.1,1.2l-0.2,1.2l-0.3,0.7l-0.6,0.9l-1.3,1.5l-1.4,1.1l-1.8,1.2l-3.3,1.5l-0.9,0.2l-0.9-0.3l-1.4-0.8
			l-0.8-0.5l-1.4-0.7l2.8,2.1l0.7,0.4l0.6,0.3l0.8-0.1l2.8-1.2l2.2-1l0.8-0.6l1.4-1l0.7-0.2l1.8,3.7l3.3,1.6l0.9,0.2l0.3,0l0.2-0.5
			l-1-1.1l-0.8-0.4l-1-0.5l-2.8-2.5l0.6-2.4l0.6-0.7l2-0.5l4.4,3.7l0.2,2.3l-0.1,1.6l-0.2,1.3l-0.3,1.1l-1.7,2.9l-0.8,1.1l-1.8,4
			l2.6,1.5l1.1-0.1l0.7-0.6l0.4-0.7l1-3.6l0.2-1l0.3-2.3l4.1-6.9l0.6-3.7l2.4-5.2l-0.6-0.4l-2.2,4.4l-0.9,2.2l-0.3,1.5l-0.6,1.9
			l-0.6,1.1l-0.9,0.5l-0.4-1.8l0.1-0.9l0.7-2.3l0.2-1.7l0.1-1.8l-0.1-1.4l-1.1-2.4l-0.9-1.7l2.5-7.6l2.5-3.9l0.5-0.7l0.8-0.9
			l0.7-0.5l0.6-0.2l1.5-0.2l1.6-0.1l0.9-0.3l0.5-0.7l-4.2-0.8l-1.1,0.3l-1.2,0.6l-0.9,1l-0.6,1.6l-0.3,0.7l-2,2.6l-0.6,0.2l-0.3-3.9
			l0.2-9.8l2.9-3.7l2.7-2.6l2.2-1.3l1,0.7l0.4,1.3l1,0.8l1.4,0.9l2.8,1.5l2,0.4L86.4,576.9L86.4,576.9z M82.1,546.8L82,547l-1.3,1.3
			l-1.2,0.9l-1.6,2.4l-0.2,0.7l-0.2,0.6l-0.2,0.3l-1.7,1.8l-1.7,1.1l-0.8,0.4l-1,0.3l-0.5,0l-0.5-0.2l-3.6-3.1l-0.3-0.4l-0.1-0.5
			l0.1-0.4l2.7-1.5l0.5,0.1l0.3,0.2l0.5,0.4l1.2-0.5l0.2-0.2l-0.9-0.6l-2-0.5l-1.1,0.9l-0.3,0.4l-0.3,0.3l-0.3,0.1l-0.5-0.2
			l-0.4-0.3l-1.2-1.8l-0.5-0.9l-0.9-2.5l0.9-1.9l0.2-0.3l0.8-0.3l0.3,0l2.8-0.9l0.1-1.9l-0.1-1.6l-0.1-0.6l0-0.5l0.3-1.7l0.2-0.5
			l0.3-0.2l3.5-1.8l2.5-1l0.3,0.1l3.9,2.3l2.4,0.5l0.6,0.4l1.6,2l0.3,0.4l0,0.5l-1.8,3.6l-0.2,0.3l-0.3,0.3l-0.5,0.2l-1.9,0.1
			l-0.4-0.2l-0.5-0.4l-1.6-0.3l0.1,0.5l0.3,0.4l1.9,0.9l0.9,0.2l1.2,0.1l0.3,0.6l-0.3,0.9l-0.3,0.8L82.1,546.8L82.1,546.8z
			 M39.2,724l-0.3,0.3l-0.7,0.3l-1.8-2.9l-0.7-2.1l-1.2-4l0-0.7l0.4-1.9l-3.2-1.3l-1.7,1.2l-0.4,0.2l-0.7,0.3l-0.6,0.1l-0.4,0
			l-0.6-0.3l-0.3-0.4l-0.1-0.5l0.1-0.5l0.5-0.6l0.5-0.4l0.8-0.5l1-0.2l0.7-0.2l0.4-0.2l0.5-0.4l0.4-0.5l0.4-0.8l0.2-0.7L32,707
			l-1.2,1l-3.8,1l-0.4-0.5l-2.5-9.3l0.1-0.5l1-1.7l0.7-0.8l4-1.8l0.5,0l0.4,0.4l2.6,5.3l0.3,0.7l0.6,2.5l1.5,3.2l1,1.8l1,0.8
			l1.3,1.7l2.1,4.1l0.9,3.7l-0.1,0.8l-0.2,0.4L39.2,724L39.2,724z M55.9,721.2l-3.9-2l-0.5,0.1l-0.5,0.3l-0.4,0.2l-0.5,0.1l-3.5-0.2
			l-2-0.8l-0.5-0.3l-0.2-0.4l-0.9-3.1l0-0.8l0.2-0.5l0.2-0.4l1.7-2.6l0.4-0.3l1.9-0.5l0.4,0l0.3,0.6l0.8,0.9l0.2,0.6l0.3,0.5
			l1.4,0.9l1.1-1.9l0-0.5l-0.4-0.5l-0.3-0.1l-0.9-0.1l-1.3-1.7l-0.3-0.5l-0.6-1.6l-0.1-0.6l0-0.6l0.3-6.6l0.2-0.7l0.2-0.4l0.3-0.4
			l0.4,0.1l0.7,0.7l0.3,0.4l0.2,0.7l0.1,0.8l0.4,1.7l0.8,3l3.3,4.3l-0.3,2.1l0.4,2.5l0.4,1.9l0.3,0.7l1.7,1.7l0.4,0l0.2-0.4
			l-0.1-0.4l-0.2-0.4l-0.1-0.5l0.3-0.2l0.3,0.1l0.4,0.2l0.3,0.3l0.2,0.6l0,1.3l-0.1,0.8l-0.2,0.4l-0.3,0.3l-1.4,1.2l-0.5,0.3
			l-0.6,0.1L55.9,721.2L55.9,721.2z M42.6,712.1l-0.4,0l-0.4-0.1l-5.5-8.5l-2.6-5.3l-0.1-1.3l1-0.2l1.9,0.1l3.5,0.3l0.9,0.3l2.7,1.6
			l3.4,0.4l0.4,0.4l0.2,0.7l0.1,0.9l-0.1,6.4l-0.2,0.4l-0.4,0.2l-0.8,0.1l-1.4,1.2l-0.6,0.6l-0.7,0.8L42.6,712.1L42.6,712.1z
			 M60.4,572.9l-1.9-0.3l-1.3-1.1l-1.2,0.1l-1.6,0.7l-0.5,0.1l-1.1,0.1l-0.4-0.1l-0.4-0.2l-0.4-0.5l-3.1-2.7l-0.8,0.6l-1.9,0.7
			l-0.5,0l-0.3-0.2l-0.3-1l-0.4-1.3l0-0.4l0.1-0.9l0.3-0.6l0.9-1.1l0.3-0.4l0.5-0.2l0.7-0.1l0.3,0.1l0.6,0.1l1.3-0.3l2.2-0.7
			l0.6-0.3l1-0.9l0.3-0.3l0.4-0.2l0.6,0l0.6,0.1l0.3,0.1l2,1.1l0.3,0.2l0.3,0.3l0.3,0.3l1.4,1.7l0.6,1.1l0.1,0.5l0.1,0.5l0.1,1.1
			L60.4,572.9L60.4,572.9z M60.2,689.1l-1.2-0.4l-3.8-0.9l-0.6-0.4l-0.1-0.5l2-3l0.3-0.4l0.5-0.4l2.5-1.9l0.5-0.2l6.8,1.2l3.7,0.9
			l0.8,0l0.4-0.2l0.8-0.9l0.3-0.3l0.3,0l0.4,0.2l0.6,0.5l0.2,0.4l-0.1,0.6l-0.3,1.7l-0.5,0.4l-0.9,0.5l-0.4,0.1l-1.1,0.2l-3.1,0.4
			l-0.6,0l-0.7-0.2l-0.4-0.2l-0.7,0l-0.4,0.1l-4.5,2L60.2,689.1L60.2,689.1z M42.1,555.6l-0.5,0l-0.8-0.2l-0.6-0.2l-0.3-0.2
			l-0.5-0.4l-0.8-0.7l-1.5-2.3l-0.1-0.5l-0.2-1.7l0.3-0.4l3.8-1.6l0.4-0.1l2.6-0.4l4.7-0.4l1,0.2l0.4,0.1l0.8,0.3l0.3,0.2l0.5,0.4
			l0.9,1.1l0.3,0.6l-4,1.7l-4.6,2.9l-0.7,0.5L42.1,555.6L42.1,555.6z M26.5,612.3l-0.4-0.3l-0.3-0.5l-0.5-1.3l0.1-0.5l0.3-0.3
			L29,608l0.4,0.1l-0.4-0.9l-0.8-0.1l-0.8,0.4l-1,0.2l-0.5-0.1l-0.4-0.6l-1.6-3.6l0.1-0.4l0.4-0.5l0.6-0.3l2.8,0.7l0.4,0.1l0.5,0.3
			l1.6-1.3l2.1-2.6l1.4-1l0.7-0.2l0.4,0.6l0.1,0.7l0,0.7l-0.5,6l-0.1,0.4l-0.2,0.4l-0.6,1.1l-2.7,3.5l-0.4,0.3l-2,0.5l-0.7,0
			l-1.1-0.2L26.5,612.3L26.5,612.3z M27.4,725.3l0.6-1.2l0.9,0.1l0.8-0.4l0.4-0.2l0.7-0.5l0.3-0.3l0.5-0.8l0.1-0.6l-0.3-0.2
			l-0.5,0.6l-0.4,0.5l-0.4,0.3l-0.6,0.2l-0.4,0.1l-2,0.1l-1.5-0.5l-0.8-1.2l-0.1-4.8l0.6-1.7l0.5-0.2L32,713l1.4,0.1l0.3,0.6
			l1.5,6.1l-0.1,0.5l-1.2,1.4l-0.6,0.6l-1.6,1.7l-0.8,0.7l-0.4,0.3l-0.4,0.2l-0.9,0.2l-1.1,0.1l-0.6-0.1L27.4,725.3L27.4,725.3z
			 M42.4,596.4l-0.5-0.1l-0.4-0.5l-0.4-0.7l-0.1-0.5l0.2-0.5l0.6-0.9l0.4-0.8l-0.2-1.6l-0.5-1.7l-0.5-1.3l-0.1-0.7l0-0.6l0-0.8
			l0.1-0.5l0.2-0.9l0.3-0.9l0.4-0.8l0.6-0.3l2.9,0.9l0.5,0.3l0.4,0.3l0.8,1.1l0.4,0.8l1,2l0.6,1.6l-0.3,1.6l-0.2,0.4l-4,4.2
			l-0.3,0.3L42.4,596.4L42.4,596.4z M44.3,695.3l-0.4,0l-1.6-0.3l-1.9-0.5l-0.4-0.2l-0.3-0.5l0.3-0.9l-0.7-0.4l-0.8-0.1l-0.8,0.2
			l-0.5,0.4l-0.5,0.9l-0.4,0.8l-0.4,0.2l-0.7,0.2l-1,0.2l-0.6,0l-0.5-0.3l1.3-2.7l0.7-0.8l0.3-0.3l1.9-0.9l0.9-0.4l0.6-0.1l2.3-2.2
			l1.6-3.1l1.6-1.1l0.5,0.2l0.4,1.4l0.1,0.5l0.3,1.6l0.8,6.1l-1.4,1.4l-0.3,0.2L44.3,695.3L44.3,695.3z M65.6,592.2l-0.3,0l-0.6-0.2
			l-3.5-3l-0.8-4.4l-0.1-0.7l0-0.7l0.1-0.5l0.2-0.6l1.2-2.6l0.3-0.3l0.6-0.2l0.5,0l2.2,0.4l0.4,0.4l0.3,1.4l0.2,8l-0.4,2.3l-0.2,0.5
			L65.6,592.2z M43.1,564.8l-0.3,0l-2.2-0.3l-0.2-0.3l0.3-1.1l3.8-4.9l0.4-0.4l0.5-0.2l0.5-0.1l5.4,0.6l0.4,0.3l1.3,1.2l0.3,0.5
			l-0.3,0.4l-0.9,0.8l-0.6,0.3l-1.7,0.8l-0.5,0.1l-2.3,0.3l-1.5,0.1l-0.5,0.2l-0.3,0.2L43.1,564.8L43.1,564.8z M56.8,550.8l-0.4,0
			l-2.2-2.3l-0.7-3.9l0-0.7l0.4-0.5l2.7-1.1l0.5,0l0.5,0.2l0.5,0.4l1.3,2.2l1.6,3.2l0,0.4l-0.3,0.3l-3,1.4L56.8,550.8L56.8,550.8z
			 M44.8,519.4l-0.9-0.8l-3-0.4l-1.4-0.3l-0.3-0.3l0.3-2.3l0.3-0.4l0.4-0.3l1.8,0l0.5,0.1l3.7-1.1l1.4-1.7l2.4,2l0.9,1.7l0.3,0.9
			l-2.6,0.6l-0.4-0.3l-0.5-0.1l-0.2-0.4l0.4-0.4l0.2-0.4l-0.5-0.2l-0.8,0l-1.6,0.7l0,0.9l0.4,0.4l0.2,0.4l0.8,0.3l-0.7,1.3l-0.5,0.3
			L44.8,519.4L44.8,519.4z M53.1,577l-0.4,0l-3.7-0.8l-0.4-0.3l-1-2.5l0.5-1l1.7-1l0.4-0.1l0.4,0.1l0.3,0.3l0.5,1.1l0.3,0.3l0.4,0.2
			l0.5,0.1l0.5,0l1.1-0.1l0.5-0.1l1-0.4l0.8-0.2l0.8,0l0.4,0.1l0.3,0.2l0.5,0.7l0.4,0.8l0.2,0.8l-0.2,0.7l-0.3,0.2l-2.1,0.3
			l-2.5,0.5L53.1,577L53.1,577z M56.5,705.4l-0.3-0.1l-2.4-3.6l-0.2-0.5l-0.2-0.8l-0.2-1.1l-0.2-1.6l0.8-1.6l0.5-0.1l0.6,0.4
			l1.1,0.8l3.6,2.7l0.9,1.3l-0.9,1.9l-0.3,0.3L56.5,705.4L56.5,705.4z M64.9,611.5l-1.1-0.7l-0.3-0.3l-4.2-4.2l-0.1-0.7l0.2-1.2
			l0.3-0.4l0.4-0.2l1.4-0.3l0.5,0l2.8,0.8l1.4,0.8l0.5,0.4l0.3,0.7l-0.1,0.8l-1.1,3.4l-0.3,0.8l-0.3,0.3L64.9,611.5L64.9,611.5z
			 M36.6,545.8l-3.3-0.3l-0.6-0.4l-0.2-0.4l-0.6-1.3l0.1-0.6l0.5-0.8l0.4-0.3l5.3-2.5l1.5,0.3l1.2,1.5l0.4,0.6l0,0.4l-0.7,0.3
			l-2.5,1l-1.9,0.7l-0.4,0.2L36.6,545.8L36.6,545.8z M55.7,592.1l-0.3,0l-1.6-0.1l-0.4-0.3l-1.2-2.2l-0.8-1.4l-0.1-0.9l1.2-2
			l0.9-0.7l0.5-0.1l1.5,0.5l1.5,1.2l0.8,1.1l0.1,0.6l-0.1,1.3l-0.3,1.7L55.7,592.1L55.7,592.1z M27.9,730l-0.3,0l-0.4-0.1l-0.5-0.4
			l-0.2-0.6l-0.2-2.7L27,726l1.4,0.4l1.4,0.1l0.6,0l0.5-0.2L31,726l1.5-1.8l2-2.3l1.5,0.8l0.6,1.1l0.2,0.5l0.2,0.6l-0.4,0.9
			l-0.4,0.5l-4.7,2.6L27.9,730L27.9,730z M50.4,586.8l-0.2-0.2l0-0.5l0-1.1l0-0.7l0.2-0.4l0.4-0.4l-0.1-0.9l0.2-0.6l0.3-0.6l0.2-0.6
			l0.1-0.5l0.3-0.4l0.4-0.1l0.4,0.2l0.4,0.1l0.5,0l0.6-0.1l0.3,0.1l0.4,0.2l0.3,0.3l0.9,0.3l0.4,0.3l0.4,0.1l0.4-0.2l0.6-0.7
			l0.5-0.3l0.5,0.3l0.2,0.6l-0.1,0.9l-0.2,0.8l-0.1,0.6l-0.4,0.9l0,0.8l-0.4,0.2l-0.7-0.3l-0.3,0l-0.5-0.1l-0.6-0.7l-0.6-0.1l-0.6,0
			l-1-0.3l-1-0.1l-0.3,0.1l-0.4,0.5l-0.6,0.3l-0.4,0.5l-0.2,0.8l-0.2,0.5L50.4,586.8L50.4,586.8z M59.4,653.7l-0.4-0.2l-1.5-1.5
			l-0.1-0.6l0-0.6l0.5-2.9l0.2-0.5l0.3-0.3l0.3-0.2l3.8-0.4l1.8,1l-1.9,3.7l-0.6,0.8l-0.3,0.3l-0.3,0.3l-1.4,0.7L59.4,653.7z
			 M55.2,560l-1.3-0.9l-1.1-0.9l-0.4-0.5l-0.2-0.3l-0.6-3l0.1-0.7L52,553l0.4-0.3l0.4-0.2l0.6-0.1l0.6,0.2l0.3,0.4l2.5,4.4l0.3,1.2
			l-0.1,0.6l-0.1,0.4l-0.4,0.5l-0.6,0.2l-0.4,0l-0.4-0.1L55.2,560z M64.6,709.9l-0.5-0.6l-0.3-0.2l-0.6-0.3l-2.2-1.1l-0.7-0.2
			l-1.6-0.4l-0.5-0.3l-0.5-0.5l-0.2-0.4l3.3-3.4l0.5-0.3l0.4-0.1l0.7,0.1l0.5,0.4l0.1,0.7l-0.2,1.3l0.1,0.5l0.4,0.6l1,1.2l0.6,0.6
			l0.7,0.4l0.5,0.4l-0.1,0.6l-0.3,0.3l-0.7,0.6L64.6,709.9L64.6,709.9z M35,595.5l-0.2-0.5l-0.1-0.8l0-0.5l0.2-2.3l0.1-0.4l0.1-0.4
			l0.3-0.5l0.3-0.3l0.3-0.3l1.5-1l0.7-0.1l0.4,0.2l0.2,0.4l0.2,4l-0.6,2.3l-0.3,0.4l-0.3,0.3l-0.6,0.2l-0.4,0l-1.5-0.1l-0.3-0.2
			L35,595.5L35,595.5z M59.6,602.8l-0.3-0.1l-0.3-0.4l-0.6-1.3l-0.1-0.6l0.2-0.7l0.1-0.4l0.6-1.4l0.4-0.6l3.9-3.2l0.4,0l0.5,0.6
			l0.2,0.4l0.2,0.7l0.4,2.1l-0.5-0.2l-0.3-0.3l-0.5,0l-1.2,0.3L62,598l-0.2,2l-0.7,2L59.6,602.8L59.6,602.8z M34.2,686.5l0-0.8
			l-0.2-0.5l-0.3-0.3l-1.3-0.3l-0.5,0l-0.6,0l-0.5-0.1l-0.4-0.5l0.9-1.3l3.3-2.5l0.5,0.2l1.1,1.1l0.5,0.7l0.8,1.6l0,0.7l-0.3,0.8
			l-0.2,0.4l-0.3,0.4l-0.8,0.6l-1.9,0.7L34.2,686.5L34.2,686.5z M55.8,600.3l-1.8-3l-0.9-1.1l-0.5-1l0.2-0.8l0.2-0.4L54,593l0.4-0.2
			l2.1,0.4l0.3,1.4l0.3,3.1l-0.1,0.6l-0.3,1.1l-0.8,0.8L55.8,600.3L55.8,600.3z M38.9,558.3l-0.5,0l-2-0.9l-2.2-2.6l-0.1-0.6
			l0.2-0.5l0.3-0.3l1.6-0.8l0.6,0.2l4,4.2l0,0.4l-1.8,0.7L38.9,558.3z M42.1,580.3l-3-1.2l-0.3-0.2l-0.5-0.4l-0.6-0.7l-0.2-0.4
			l0.1-0.6l0.3-0.4l0.6-0.3l0.5-0.1l0.5-0.1l1.3-0.2l0.6,0.1l0.4,0.3l0.6,0.6l0.4,0.6l1.5,2.6l-0.3,0.4l-0.5,0.3l-0.6,0.2l-0.8-0.1
			L42.1,580.3L42.1,580.3z M47,544.5l-0.7-0.1l-1-0.1l-0.6-0.2l-0.3-0.2l-0.2-0.5l-0.3-2.9l3.1,0l0.8,0l0.6,0.2l0.3,0.2l0.4,0.3
			l0.3,0.5l0.3,0.6l0.2,0.7l0,0.6l-0.4,0.3L47,544.5L47,544.5z M69.3,519.4l-0.9-0.1l-2.4-0.8l-0.4-0.5l-0.3-0.8l0-0.7l0.3-1.1
			l0.3-0.5l1.8-1.3l0.6-0.2l0.4,0l0.3,0.2l0.3,0.3l0.2,0.7l0.2,4.3L69.3,519.4L69.3,519.4z M46.7,535.2l-0.5,0l-0.4-0.1l-1.3-0.8
			l-0.6-0.6l-1.5-3.3l1.5-2.2l0.4,0l2.1,1.9l1.2,1.2l-1.6,0.9l0,0.6l0.1,0.5L46.7,535.2L46.7,535.2z M55.7,525.9l-2.6-3.4l-1.1-1.9
			l-0.1-0.6l0.1-0.7l0.3-0.8l0.2-0.3l0.7-0.1l2.5,2.5l1,2.7l0,1.1l-0.7,1.1L55.7,525.9L55.7,525.9z M60.3,713.1l-0.8-1.4l-1.8-2.4
			l-0.2-0.4l-0.1-0.5l0.4-0.6l0.5,0l0.8,0.2l2.3,0.9l1.6,0.8l0.6,0.3l0.3,0.5l0,0.5l-0.3,0.4l-0.5,0.4l-1.5,1l-0.7,0.4l-0.4,0
			L60.3,713.1L60.3,713.1z M43,576l-1.7-1l-0.5-0.3l-0.3-0.3l-0.3-0.4l-0.1-0.6l0.1-2.2l0.3-0.8l0.7-0.2l0.4,0.1l2.7,1.9l-0.3,3.7
			l-0.3,0.3l-0.4,0L43,576L43,576z M35.6,552.1l-1.1,0.1l-3.6,0.6l-1.4-0.5l-0.1-0.5l0.1-0.4l1-1.4l0.4-0.3l0.6-0.2l0.4,0l0.8,0
			l2.3,0.2l0.5,0.2l0.5,1.9L35.6,552.1z M50.7,654.4l-0.9-1.4l-0.2-1.5l0.2-0.4l1.6-1.2l0.4-0.2l1-0.3l0.9,0l0.7,0.1l0.3,0.3l0,0.6
			l-0.1,0.9l-0.2,0.4l-2.8,3.1l-0.4,0.4l-0.3-0.4L50.7,654.4L50.7,654.4z M19,564l-0.3,0l-0.5-0.2l-1.4-2.7l-0.2-0.4l-0.1-0.4l0-0.5
			l0.2-0.6l0.5-1l0.6-0.3l0.5,0.2l2,2.4l0.3,1.9l-1.2,1.5L19,564L19,564z M48.5,539.2l-3.3-1.2l-0.5-0.4l-0.9-2.2l0.5-0.3l4.8,0.8
			l0.6,3.3l-0.1,0.4l-0.6-0.1L48.5,539.2L48.5,539.2z M39,546.7l-0.3,0l-0.4-0.2l-0.5-0.5l-0.3-0.4l-0.1-0.5l0.1-0.4l1.9-1.3
			l2.9-0.7l1.9,2l-1.4,0.6L39,546.7L39,546.7z M70.8,710l-0.2,0l-0.7-0.3l-2.7-1.3l-2-1.5l-0.4-0.7l0.1-0.6l0.6-0.3l0.5-0.1l0.3,0
			l0.7,0.1l3.1,1.5l0.4,0.2l0.4,0.4l0.2,0.5L70.8,710L70.8,710z M66.2,603.5l-0.3,0l-2.9-0.4l-0.8-0.4l-0.3-0.5l0-0.6l1-2.9l0.4-0.4
			l0.3-0.2l1.5,1.1l1.4,4L66.2,603.5L66.2,603.5z M58.9,554.4l-1.1-0.5l-0.6-0.4l-0.5-1.6l0.1-0.6l3.1-1.3l0.4-0.1l0.4,0.3l0.1,0.4
			l0,3.1l-0.4,0.6l-0.5,0.2l-0.8,0L58.9,554.4L58.9,554.4z M50,529.3l-2.3-0.1l-1-0.2l-0.5-0.2l-0.3-0.3l-0.2-0.3l-0.2-0.5l0.9-1.3
			l0.7-0.7l0.6-0.2l0.3,0.1l1.4,0.7l1.5,1.4l-0.1,0.8l-0.1,0.4l-0.3,0.2L50,529.3L50,529.3z M48.8,556.8l-0.7,0l-3.2-0.8l-0.5-0.4
			l0.5-0.4l1.6-0.5l0.8-0.3l0.4-0.2l0.7-0.5l0.5-0.4l0.5-0.2l1.2,0.1l0.3,0.5l0.1,1.6l-0.3,0.4l-0.3,0.3l-1,0.6L48.8,556.8
			L48.8,556.8z M39.3,683.5l-0.2,0l-1.3-0.8l-0.3-0.3l-1.1-2.4l0.3-0.3l0.7-0.1l2.4,0.2l0.3,0.1l0.6,0.6l0.8,1l0.2,0.5l-0.2,0.6
			l-1.1,0.6L39.3,683.5L39.3,683.5z M26.2,553l-0.3-0.1l-0.7-0.9l-0.2-0.4l-0.3-0.9l-0.1-0.8l-0.2-1.6l0.1-0.6l0.2-0.3l0.4-0.1
			l1.7,0.7l0.3,0.4l0.2,0.6l0,0.6l0,2.5l-0.6,0.5l-0.3,0.2L26.2,553L26.2,553z M55.9,579.8l-2.1-0.3l-0.8-0.2l-0.2-0.4l0.1-0.6
			l0.4-0.4l1.2-0.7l0.6-0.2l3-0.4l0.4,0.1l0.2,0.6l0.1,0.8l-1.9,1.3l-0.3,0.1L55.9,579.8L55.9,579.8z M51.1,534.8l-3-0.1l-0.4-0.4
			l-0.3-1.4l4.4-1.1l0.5,0.1l0.4,1.5l0,0.6l-0.4,0.3l-0.4,0.2l-0.7,0.2L51.1,534.8L51.1,534.8z M71.2,507l1.1-1.1l1.4-0.5l1.3,1
			l0.8,0.2l0.5,0l0,0l-0.4,0.5l-1.8,0.4L71.2,507L71.2,507z"/>
		<path id="CL-MA" class="st1" d="M120.5,869.5l-0.7,0l-1-0.1l-1.4-2.4l-1.3-5.2l-1-5.1l-1.2-3.9l-0.6-1.1l-1.5-1.3l0.4,1.1l1.3,2.3
			l0.7,2.3l3.8,15.2l0,1.7l-0.8,0.6l-1-0.4l-6.4-4l-0.7-0.6l-0.6-1.3l-0.1-1.8l-1.4-2.9l-1.7-3.2l1.3-1.1l0.5,1.1l3.1,4.7l2.7,3.3
			l0.9-0.5l-3-4.6l-4.3-6.8l1-0.7l0.8-0.8l1.1-1.9l-4,1.8l-2,3.6l-2.3-3.2l-1.3-3.2l-1.9-0.2l-1.5-0.3l-2-8.6l0-1.1l0.3-1.6l2.8,0.4
			l3.5,3l1.1,1.7l2,3.5l0.7,2l0.3-0.3l0-1.2l-4.1-8.1l-3.8-8.8l1-1l1.4,1.6l0.5,1.3l-1.3-5l-0.8-0.7l-0.6,0.6l-2.3,3.8l-0.6,0.7
			l-0.6,0.3l-5.6-0.8l-1.5-0.8l-1.5-5.1l-1.9-1l-0.8-0.4l-1.1-4.9l0.5-1.3l1.1-1.1l1.1-0.6l6.7-1l0.7,0.4l1.2,1.5l1.2-6.1l-0.7-4.7
			l0.7-1.3l2.4-1.1l0.9-0.1l1.8,0.9l0.6,1.4l0.9,0.5l0.6-2.1l-2-1.5l-1.4-0.1l-1.2-0.2l-2.3-1.9l-0.2-1l0.4-1.1l0.7-0.3l0.9-0.4
			l0.7-0.6l0.4-0.7l0.4-4l-4.6,6.1l-0.3,1l-0.3,3l-0.2,4l0.4,1.1l0.4,1.3l-0.2,0.9l-2.6,3.4l-0.5,0.4l-2.8,0.1l-2.6-2.3l-1.6-2.8
			l-2.8-4.4l-2.5-5.4l2.1-1.1l2.8,0.6l0.8,0.4l0.7,0.5l0.8,0.5l0.9,0.3l3.9,0.1l-1.6-0.8l-1.5-0.3l-2.7-1.5l-1.5-1.4l-5,0.3l-5.8-3
			l-7.2-5.4l-0.3-1.3l0.5-1.3l0.8-1.3l1.3-1.2l2.6-1.3l1.8,0.3l2.4-0.6l1.9,1.8l0.8,1.4l2.3,2l7.4,2.2l1.9,0.1l0.5-0.1l0.4-0.4
			l-8.2-2.5l-0.6,0.1l-0.7-0.2l-1-0.8l-6-7.8l0-1.9l0.5-1.1l2,0l1.4,0.2l3.3,2.7l7.2,1.8l-0.1-1.4l-0.6-1.2l-3.3-0.9l-2.8-0.7
			l-6.2-2.1l-1-1.1l-1.1-2.9l2.7-2.2l1.4-0.8l1.4-0.5l0.9,0.2l1.1-0.5l0.1-1.4l-3.6,1.1l-2.5,1.1l-0.6-0.1l-0.9-1.8l-0.5-2.2l0-1.1
			l1.9-2.6l3.6-1.9l0.7-0.3l4.2,0.4l0.7,0.9l1,2.5l1,1.2l1.1,0.4l0.9,0.1l2.2,1.7l1.1,2.5l0.1-1.5l-0.9-1.9l-1-1.6l-0.6-0.4
			l-2.2,0.1l-1.2-3l-0.3-2.6l-1.3-0.7l-2.2,0.6l-3.2-0.6l-0.6-0.5l-0.8-3l0.2-6.2l0.3-0.7l0.9-0.1l1.2,0.8l0.5,0.9l0.8,0.9l1.6,0.7
			l0.9,0.2l1.1-0.5l-1.4-0.6l-1-0.1l-0.6-0.3l-2-2.5l-1.9-7l0.2-0.9l0.7-1.4l0.4-0.6l0.6-0.4l0.9-0.2l0.9,0.4l0.7,0.5l1,0l-0.2-1
			l-1.9-0.7l-4.3,1.1l0,1.8l0.9,4l-1.4,3.9l-0.7,3.9l0.1,2.5l-0.1,6.2l-0.5,1l-0.7,0.2l-0.8-0.4l-3.8-3.8l-1.2-3.7l-1.2-8l-1.2-8.8
			l-0.7-1.4l-0.8-1.3l-0.8-2.1l-0.2-1.4l0.2-1l1.3-3.2l1.3,0.6l0.9,0.2l0.7-0.3l1-1l0.9-0.4l2.4-0.1l2,0.5l0,0l11.3,7.2l7.8,5
			l9.7,6.1l0.5,0.3l0,0l2.4,0.3l-1.2,1.8l-8.3,1.5l-1.2,0.3l-1.3,6.2l-0.6,4.5l0.5,0.8l1.9,1.8l3.2,8l-0.5,0.9l-0.9,1.1l-0.7,1.1
			l-0.1,4.1l1.3,1.1l0.8,0.6l0.7,0.7l0.1,1.4l-0.6,1.2l-0.5,1.5l-0.1,1.5l0.6,1.2l2.8,1.6l2.8,1.7l0.6,0.5l0.5,0.7l1.6,2.6l0.5,1.2
			l1.5,6.5l1.2,4.4l2.5,6.2l0.7,0.8l0.7,0.4l0.8,0l0.7-0.3l0.9-0.5l0.9-0.7l0.9-1l1.4-2.6l0.5-0.6l0.9-0.7l2.9-2l0.8-0.1l0.9,0.7
			l0.6,0.6l0.6,0.4l1,0.2l0.9-0.3l0.5-0.5l0.5-1.4l0.5-0.9l0.7-0.5l0.8-0.2l3.6,0l2.5,1.4l0,1.1l-0.7,2.6l0.3,1.1l1.1,1l0.8,0.8
			l1,1.3l0.5,1l0.4,7.3l-0.3,1l-1.5,0.4l-1.3,3.7l0.9,2.3l0.8,0.9l0.8,0.4l1.1,0.4l1.4,1.4l-0.2,1.3l-0.7,1l-0.4,1.3l0.3,2.2
			l0.4,1.8l-0.5,4.1l-0.5,0.7l-0.8,0.8l4.5,8l1,0.4l1.5,0l0.8,0.3l0.6,0.3l0.8,0.4l1.6,0.9l4.3,3.7l0.7,1.2l0.2,1.5l1.5,3.7l6.3-0.9
			l13.4-2l23.2-3.4l9.4-1.4l3.2-0.5l1.7,0.4l5.5,1.6l9.4,2.6l5-0.7l1.6-0.3l6.2,1.6l1.3,0.4l1.8,0.9l3.4,1.9l3,0.1l2.3,0l2.2,0.1
			l4.2,0.5l0.2,2.3l-1.4-1.9l-1-0.3l-5.1-0.1l-3.5,0.3l-0.6,0.1l-3.7-0.2l-1.2-0.3l-0.7-0.3l-1.3-0.9l-0.8-0.5l-1.5-0.7l-1.1-0.3
			l-1.1,0.1l-0.7,0.1l-1.6,0.4l-4.8,3.1l-0.6,0.7l-0.2,0.8l0.1,1.4l0.3,3.3l-1.5,3.5l-0.6,1l-1.3,1.7l-0.4,0.8l-0.6,0.6l-3.1,0
			l-1-0.7l-2.9,1.1l-6.2,3.9l-0.8,0.6l-8.6,7.1l-0.9,0.2l-4.4,1.2l-3.6,1.2l0.1,7.1l0.6,1.3l0.6,0.6l0.5,3.5l-1.3,6.9l-0.4,1.1
			l-0.5,0.8l-0.3,1.1l-0.1,1.5l0.1,8.4l0.3,1.6l0.3,1.2l0.6,1.6l0.6,1.2l0.6,1.5l0.4,1.4l0.4,1.8l0.1,1.6l-0.1,6.4l-0.4,1.4l-1.2,2
			l-5.1,3.4l-1.4,0.8l-5.2-1.8l-0.9-0.1l-1.3,0l-1.3,0.1l-0.7,0.1l-1.2,0l-2-0.3l-5-2.7l-2.5-0.3l-3.5-0.5l-2-0.8L157,937l-2.1-2.3
			l-1.7-2.1l-0.9-1.2l-1.3-2.3l0.2-4.2l3.5-4.2l5.1-0.1l1.2,2.1l0.3,1.1l0.1,1.8l-0.2,1.2l-1.7,1.5l-1.9,1.4l1.2,0.3l2.3-1.1
			l0.9-0.8l1.5-1.5l0-1l-0.4-1.6l-0.6-1.9l-0.2-1l0-1.6l0.6-1l3.6-0.5l1,0.9l2.8,8.8l-0.2,1.2l-0.5,0.7l-0.8,0.9l-2.5,2l-0.7,0.5
			l-0.9,0.9l0.2,1.4l0.3,0.2l1.3-1.1l3.3-1.8l0.8-0.7l0.9-2.6l-0.6-3.2l-0.7-2.3l-0.3-3l0.3-3.6l7-5.1l0.9,0l0.8-0.1l0.9-0.4
			l0.6-0.5l0.5-0.5l0.5-0.7l4.3-11l0.1-1.2L184,895l-2.7-0.4l-2.8,0.2l-6.8,5.1l-5.6,4.8l-2.1,2.4l-0.3,1.4l-2.3,5.2l-1.6,0.7
			l-0.8,0.1l-1.2-0.6l-0.7-0.7l-0.8-1l-0.7-0.9l-0.7-0.5l-2.5-0.5l-6,2.5l-0.7,1.1l2.3-0.7l2.9-0.4l5,3.2l0.8,1.2l-0.2,0.9l-3.9,1.8
			l-1-0.1l-1.3-0.8l-2.2-0.3l-1.3,0.9l0.9,1.2l1.1,0.3l0.6-0.1l1,0.3l-2,6l-0.9,0.5l-1.6-0.3l-1-1.1l-0.6-0.5l0.5,1.8l2.8,2.5
			l0.7-0.8l0.8-0.3l3.6,4.1l0.6,1.1l-0.4,1l-2.7,0.9l-0.3,0.1l-0.9-0.8l-6.4-3.9l-4.2-1.6l-2.5-1.2l-0.8-0.8l-3.4-2l-0.6-0.2
			l-0.9,0.1l-0.8-0.2l-2.3-1.6l-3-3.2l6.5-0.5l2.2-0.8l1.6,0l3.1,1.9l2.6,3.2l0.8,0.6l1.2-0.3l0.1-2.6l-1.8-1.2l-1.4-1.1l0.7-2.1
			l1.4,0.1l1.7-0.2l-1.5-0.8l-2-0.1l-0.8,0.4l-0.6,1l-0.7,0.4l-2.8-1.8l0.6-1l0.3-0.5l0.3-2.3l-1.4-1.5l-1.3-2.7l-0.8-3.7l1-1.8
			l5.1-4.6l4.3,1.8l3.6,0.6l1.3-0.6l3-3.5l2.8-4.5l0.3-1l4.6-1.4l3.6,1.9l1.4,0.1l1.6-0.1l2.1-0.4l1.1-0.3l0.8-0.2l0.9-0.5l3.8-2.7
			l-1.7-2.8l-0.8-0.5l-1.1,0.1l-0.7,0.4l-0.9,0.1l-3.8-0.1l-4.5-0.3L154,885l-4.2,0.8l-1,0.4l-0.8,1.3l-0.5,1.9l-1,3.6l-4.1-2.6
			l1.1-2.2l0.7-0.7l0.9-0.1l1.2-0.9l-0.7-0.7l-3,1.5l-0.5,0.6l-2.4,0.7l-4.7,0.7l-2.6,4.4l0.6,0.5l1.9-1.7l3.9,0.9l0.2,1.1l-1.7,3.5
			l-1.1,1.5l-1.7,2l-1.7,0.6l-0.7,0.3l-0.7,1.2L131,905l1.4,2.8l1.3,3.1l0.2,2.1l-0.6,2l-2.9,1.6l-0.2,0.2l-0.9,0.7l-2.3,0.6
			l-3.6-0.9l-4.3-3l3.5-3.6l1.9-2.7l-3.6,0l-6.3-2.8l1.3-1.4l2.7-0.2l0.8,0.7l4.5-1.2l-0.8-1.4l-0.4-1.8l3-10.7l1.1-0.9l2.6,0.1
			l1.6,0.2l0.9,0.1l-1-1l-2.8-0.2l-0.9,0l-0.8,0.2l-2.1,0.8l-0.7,0.9l0.8,2.5l-0.1,1l-2.1,4.7l-1.1,0.2l-0.8-0.4l-0.4-0.9l-0.4-2.1
			l-0.9-0.4l-0.7,0.4l-2.8,3.3l-1.4,1.9l-0.8,2l-0.3,1l-2.6-0.8l-0.6-5.9l1.3-2.2l1.1-0.5l0.8,0.3l0.2-0.9l-1.5-0.2l-0.6-0.8
			l-2.1-4.1l-0.2-1.4l0.3-0.9l0.9,0.1l0.9,0l0.4-2.6l-1.2-4.3l-2.2-2.8l-2.8-3.1l-0.7-1.2l0-1.6l0.7-0.8l0.9,0.7l0.7,1.7l4.3,4.9
			l0.9,0l1.2-1.3l3.8,1.7l0.7,0.1l1.6-0.6l0.6-0.6l0.4-2.2l1.1-2.5l1.8-1.3l2-1.4l1.1,0l0.6,3.3l0.2,2.2l2.6,2.6l1.4,0.5l0.8-1.3
			l0.7-6.9l-0.6-1.7l-0.8,1.1l-0.5,2.6l0.2,1.2l-0.5,2.1l-2.1-1.1l-0.6-4l1.5-6.4l1.6-1.2l3.5,1.8l0.3,2.7l1.4,1.8l1.2,0.4l0.6,0.5
			l1.8,2.5l0.8,1.3l-0.4,5.9l-0.8,1.3l-3.6,2.1l-4.9,4.2l0.9,0.2l2.2-1.2l5.1-2.9l1.4-1.3l2.2-3.1l-0.1-5.4l-0.6-1l-2.3-2.1
			l-3.4-3.3l-1.1-4l0.8-1l3.4,0l0.7-0.5l0.5-0.7l0.3-0.8l-1.3-6.1l-1.5-2.7l-5.2-4.6l-1.8-1.3l-0.8-0.3l-1.3,0l-1.4,0.2l-2.7-0.8
			l-4.4-2.1l-0.8-1l-1.3-0.8l-1.2,0.4l-2.3,1l-0.7,1.1l0.5,0.8l1.2,0.3l0.7-0.3l1-1l2.7,0.4l2.7,1l4.1,2.7l4.7,3.6l0.7,0.2l3.5,0.4
			l0.7,0.7l-0.1,2.4L135,855l-2.7,0.6l-2.2-1.1l-0.9-1.4l-5.1-1.5l-6.4-3.5l-2-0.9l-1.2,0.3l2.3,4.2l1,0.4l1.2,0.1l0.8-0.1l0.9-0.7
			l1.1,0.5l0.9,0.7l1.2,1.5l-1.3,3.3l-0.6,0.5l-1.1,0.4l-1.9,0.9l3.4-1l1.6-1.8l1-0.8l1.1,0.5l0.5,1.2l-0.8,1.2l-1.9,1.1l-1.6,1.2
			l-1.3,1.2l-0.3,1.3L120.5,869.5L120.5,869.5z M271.7,980.9l0.7,4.9l-0.1,0.2l-0.2,0.1l-0.5,0l-0.4-0.1l-0.7-0.5l-1.2-1l-0.7-0.4
			l-4.2-1.3l1.5,1.9l0.4,0.3l0.5,0.4l0.8,0.4l1.3,0.3l0.5,1l-0.5,0.9l-0.9,0.6l-4.5,1.6l-3,0.8l-0.7,0.1l-0.6,0l-11.3-2.4l-2.1-0.5
			l-3.3-1.2l-0.5-1.1l0.1-0.6l0.7-1.1l0.1-0.6l-0.6-3.1l-0.3,0.1l-2,1.9l0.2,3l-0.4,1.2l-9.8,3.7l-3.5,0.8l-1,0.2l-1-0.1l-0.8-0.4
			l-0.6-0.9l-0.3-1.6l0.4-0.8l0.5-0.9l1.1-2.9l0-0.7l-0.4-0.2l-2,3.6l-0.5,1.8l-0.2,0.9l0.1,0.5L221,990l-1.1-0.1l-5.7,0.5l-2.9,2.1
			l-0.4,0.2l-0.3,0l-1.2-0.1l-0.7-0.3l-0.5-0.6l1.1-2l0.4-0.5l0.4-0.2l1.1-0.4l0.8-0.5l1.6-1.3l2.2-2l0.5-0.6l1.3-2.7l0.1-0.6
			l-0.3-0.2l-0.6,0l-1.7,0.3l-0.4,0.2l-1.6,2.4l0.5,0.4l0.8,0.4l-0.1,0.5l-1.2,1.1l-2.5,1.3l-2,0.9l-2.8,0.3l-0.9-1.5l0.4-0.3
			l1.3-0.2l2.2-1.1l0.3-0.4l-0.4-0.3l-0.4,0l-0.3,0.1l-1.7,0.8l-1.7,1.8l-1.8,3.2l-0.7,0.3l-0.3-0.3l-0.1-0.6l0.2-0.7l0.2-0.5
			l0.3-0.7l0.2-0.5l0.1-0.5l0.3-3.4l-0.2-1.1l-1.3-0.1l-0.7,0.7l0.2,0.7l-0.1,0.6l-0.3,0.7l-2.8,2.2l-0.4,0.3l-2.8-0.8l-0.6-0.2
			l-0.3-0.4l-0.1-0.5l0.3-0.4l0.4-0.1l0.2-1.6l-0.4-1.8l-2.5-2.5l-0.5,0.1l-1.2,1.8l-1.3,6l0,1.1l-0.3,0l-0.5-0.2l-5.1-2.8l-0.4-0.4
			l-0.8,0l-0.8,0.4l-1.1,1.3l-0.5,0.9l-0.5,0.3l-2.7,0.6l-0.3,0l-0.7-0.1l-0.5-0.4l-0.4-0.9l-1.1-2.8l-0.7-2.9l-0.1-2.4l0.3-0.4
			l0.4-0.1l1.6,0.4l1.6,1.3l0.6,1l0.2,0.5l0.5,0.6l0.6,0.2l2.3,0.5l1.9,0.4l0.3,0l2.5-1.8l-3.9-3.4l-0.7-0.3l-0.4,0.1l-0.9,0.7
			l-0.5,0.1l-1.4-0.6l-0.4-0.5l-0.5-1.5l1.5-1.2l0.7-0.2l0.7,0l0.3,0l0.6,0.5l0.5,1.2l2.4,2.6l0.5,0.3l0.5,0.2l1.1,0.1l2-1.1
			l0.1-0.5l-0.6-0.4l-1.7,0l-0.5-0.2l-0.4-0.3l-0.6-0.8l-0.5-1.1l0.4-0.7l0.4-0.1l4.3,1.2l1.9-1.3l-1.5-0.6l0.4-0.9l1-1l0.5,0
			l5.3,2.2l6.6,1l0.6-2.8l-0.1-0.7l-0.1-0.6l-0.2-0.6l-0.4-1.2l0.2-0.6l1.1-1l1.1-0.5l1.3-0.2l1-0.1l3.2-0.1l0.3,0l1.2,0.3l0.2,0.4
			l-1.3,2.9l-0.7,3l-0.2,3l0,4.1l0.8-1.3l2.5,1.6l-1.7-2.3l-0.3-0.4l-0.5-1.1l0-0.9l0.5-3.1l0.2-0.5l0.5-1l0.3-0.5l1-1.3l0.5-0.1
			l0.5,0.8l0.5,0.6l3.4,2.2l1.1,0.3l0.4,0.2l0.4,0.3l1.7,1.1l0.4,0.3l0.3,0.4l0.4,0.6l0.5,0.6l0.7,0.2l0.6,0l3-1.9l-3-1.6l-0.8-0.4
			l-1.3-0.5l-0.8-0.2l-1.6-0.6l-0.6-0.2l-0.7-0.3l-1.3-0.6l-0.4-0.5l-1.8-2.4l0.1-1l-0.2-0.7l-0.5-0.7l-0.4-0.4l-0.6-0.5l-0.8-0.4
			l-1.8-0.3l-0.6,0l-1.3,0l-2.5,0.5l-1,0.1l-0.6-0.1l-0.5-0.2l-0.6-0.5l-0.5-0.6l-1.8-4.5l1-0.5l0.8,0.5l2.4,1.3l4.1,1.4l9.5,3.7
			l6.2,4.3l0.5,0.2l1.7-2.6l0-0.5l-0.4-0.3l-2.2-0.2l-0.5-0.1l-0.8-0.6l-0.3-0.5l0-0.6l1.6-2.1l0.9-1.1l0.4-0.4l0.4-0.1l0.3,0
			l1.6,0.8l1.2,1.2l3.9,6l2.9,5.2l0.8,0.8l0.5-0.3l-0.1-3.7l-2.6-4.4l-1.5-2.4l-0.5-0.3l-0.7-0.6l0.3-1.3l0.2-0.3l0.6-0.1l1.2,0.2
			l3.5,1.2l0.8,0.6l0.9,0.9l7.4,0.7l4.2,1.7l0.5,0.2l0.3,0.4l0.2,0.7l0,0.6l-1.8,3l-0.3,0.3l-1,0.8l-0.3,0.5l-0.8,2.6l-0.2,0.9
			l1.3,2.6l0.4,0.3l0-1.8l0.7-2.8l0.5-1.8l0.2-0.8l0.3-0.5l0.8-0.8l0.6-0.3l0.4,0.1l0.3,0.4l0.5,0.9l0.7,1.2l0.1-0.2l0.5-1.3
			l-0.7-1.6l-0.4-0.7l-0.2-1l0.1-0.8l0.3-0.9l0.3-0.2l1.3-0.2l0.3,0l0.9,0.2l1.2,0.8l0.4-0.1l0.3-0.5l-0.2-1.8l-0.5-0.4l-0.5-0.2
			l-2.1-0.9l-5.9-2.4l-4.3-1.3l-0.8-0.2l-2.6-0.7l-0.5-0.2l-0.5-0.4l-0.7-0.9l-3.4-0.8l-0.8-0.1l-0.6,0l-0.7,0l-0.6,0l-0.8-0.2
			l-2.7-0.6l-5.2-2.6l-0.6-0.5l-0.3-0.6l-3.4-7.2l-1.4-4.1l-0.4-1.1l-0.2-0.9l0-1l0.4-1.1l0.4-0.6l6-5.2l0.4-0.2l0.9,0l0.6-0.1
			l0.3,0l0.6-0.1l1.4-0.7l10.7-8.2l0.3-0.3l0.3-0.8l0-1l-0.1-0.5l-1.2-4.9l-0.4-0.6l-0.6-0.4l-5.6,0.4L233,913l-8.2,2.5l-0.3,0.1
			l-1.1,0.6l-0.9,0.8l-1,1.2l-0.3,0.5l-0.5,1.2l-0.5,0.4l-3.5,2.3l-0.4,0.1l-0.3,0l-0.5-0.2l-0.7-0.3l-6-3.7l-0.3-0.5l-1.4-3.6
			l-0.5-2.4l-0.1-0.7l-0.4-8.8l0.1-0.7l0.1-0.5l0.3-0.6l1.8-3l0.4,0.3l-0.3,1.2l0.1,0.8l0.9,2.3l0.5,0.1l3.2-1.6l0.4-0.3l0.6-0.5
			l0.3-0.4l0.3-0.4l0.2-0.4l0.1-0.5l0.4-2.9l0-0.6l-0.2-0.8l-0.4-0.5l-3.1-0.1l-1.7-2l-0.1-0.6l-0.4-0.7l-0.6-0.5l-0.7-0.2l-0.9,0
			l-0.3,0l-0.6,0.2l-0.8,0.3l-0.4,0l-0.2-0.4l0.5-1.1l0.7-0.6l5.2-1.8l0.5-0.2l0.7,0l0.8,0.3l0.4,0.3l0.5,0.5l0.6,1l1.2,1.3l0.5,0.5
			l0.8,0.5l0.8,0.2l0.6,0l0.6-0.1l0.7-0.4l4.6-3.7l0.5-0.6l0.4-0.9l2-4.9l0.1-0.9l-0.1-0.6l-0.7-3.8l0.5-0.8l0.6-0.6l3-2.2l1-0.5
			l1.9,1.9l0.3,0.3l0.3,0.4l0.2,0.5l0.1,0.6l0.3,0.5l3.9,3.9l0.4,0.3l1,0.6l0.9,0.4l0.8,0.1l0.5-0.1l0.7-0.5l3-2.1l3.4-3l0.3-0.3
			l0.3-0.7l3.6,0.9l2.5,1.4l0,0.4l1,6.9l3.3,23.2l0.5,3l1.2,8.3l2.3,16.1l1.1,7.8l2.4,16.7l0.2,1l1.4,9.5L271.7,980.9L271.7,980.9z
			 M60.8,782.4l-0.4,0l-2.4-0.9l-0.7-0.6l0.6-1.7l0.8-1l1.7-1.5l0.7-0.4l0.7,0.3l1.1,0.5l-1.7-1.7l-0.8,0l-0.8,0.5l-2.1,2.3l-1,0.4
			l-0.9-1.2l-0.1-2.1l0-4.3l-1.7-4.4l0-6.8l1-1.4l1.5-1.6l3-5.8l-1.1,0.6l-1.4,2.6l-2.7,4.3l-2.1,1.9l-0.6-0.9l-0.5-1.8l-0.8,1.5
			l0.1,1.2l0.4,2.3l0.3,1.7l0.7,1.1l0.9,0.9l0.2,6l-0.3,4.2l-1-0.1l-3-1.6l-2.7-3.9l-3.1-5.1l0.3-2.7l-1-3.1l-1.3-1.7l-1.4-1.1
			l-0.9,0.6l-0.8,0.7l-1.1-2.3l-0.3-1.3l-0.4-2.5l0.9-1.6l0.6-0.3l0.7,0l1.9,2.5l0.5,1.2l1.4,2l2.8,2.7l0.9,0.5l0.3,0l0-0.4
			l-1.4-1.8l-1.3-1.3l-0.6-0.6l-0.8-0.9l-1.7-2.8l-0.2-2.1l1.3-0.5l0.7,0.7l2,2.4l0.9,0.2l2-3.7l0.2-0.9l-0.9-1.7l1.1,0.6l2.7,2.5
			l2,2l0.5-2.2l0.5-8.8l-2.1-1.9l-1.2-1l-0.7-0.4l-0.7-0.9l-2.1-3.3l-1.5-2.9l0.1-2l1.9-1.9l3.6-3.4l2.7-1.2l6,0.5l0.8,1.7l1.7,6.4
			l1,1.8l0.3,0.9l0.6,5.6l1.6,4.6l0.3,0.9l0.5,3.8l0,5.5l-0.2,2.1l-0.5,1.3l0,1.8l1,1.9l-1.2,1.8l-1,3.3l0.3,1.3l1.6-2.2l-0.3-0.9
			l-0.1-1l1.8-0.7l0.8,0.7l0.9,1.3l0.6,2.8l-0.2,8.9l-0.3,0.8l-1.5,2.5l-2.2,2.6l-0.9,0.4L60.8,782.4L60.8,782.4z M277.7,1007.2
			l-0.6,0l-0.7-0.1l-0.7-0.7l-0.8-1.3l-0.8-0.6l-0.9,0.1l-0.9,1l4.7,3.8l1.5-0.7l0.8-0.7l0.7-0.4l0.9-0.3l1.5,0.1l2.1,0.6l5.6,1.8
			l0.7,1l0,1.5l-0.3,1.1l1.3,0.2l1.7-0.5l-0.8,2.9l2.2,2.8l0.9,0.2l1.4,0l0.3,4.1l-1.8,2.4l-0.3,0.4l-0.1,0.1l-0.8-0.1l-0.5-0.7
			l-1.2-1.4l-2.7-2.3l-1.5-2.4l0.1-1.9l-3.6-2.2l-0.6-0.1l-0.8,1.4l-1.7,0.4l-2.2-1.5l-2,0.2l-3.5,0.6l-0.9,1.6l-1.5,0.9l-0.7,0.1
			l-1.4-0.8l-1.5-1.4l-1.1-1.5l0.7-1.6l1.8-0.9l0.7-0.2l0.8,0.2l0.9-0.4l0-2.6l-3.5,1.9l-0.6-0.9l0.1-3l0.5-2.7l1-1.5l0.1-1l-4,4.2
			l-1.7,0.7l-3.4-0.5l-0.8-0.3l-0.9-0.7l-0.8-1l-1.3-3.2l-3.6,1.2l-0.7,0.4l-0.6,0.6l1.8-0.4l2-0.1l1.3,2.9l-2.9,1.6l-0.1,2.2
			l3.1,3.5l0.5,3.1l2.6,0.2l2-0.2l0.2,3.1l-0.4,0.6l-4.7-0.5l-2.9,1l-2.6-4.2l0.5-1.9l1.5-0.6l0.5-0.6l-2.2-0.8l-0.8,0.1l-2,2.4
			l-1.4-2l-2.8-0.8l-0.1-1.6l0.6-1.8l2-2.1l0.8-0.4l0.9-0.6l0.5-1.1l-1.2,0.2l-1.2,1l-2.3,2.4l-4.2,1.9l-0.7,0.1l-2.1-1.5l1.5-0.5
			l0.5-0.6l-2.1-1.7l-3.2,0.3l-0.6-0.5l0.4-1.5l1.9-2.9l1-0.7l2.9-1.1l4.3-1.1l7.9-2.7l4.7-2l5.8-1.4l4.7-0.5l0.7-0.2l1.8-1.9
			l2.3-0.8l4.2-1.1l3.3,0.8l2.2,2.2l0.8,1.9l-0.2,1.4l-6.2,4.1l-0.4,0.9l-1.6,0.7l-3.7-0.5l-1.6-0.7l-1.2-0.9l-1-0.7l-0.7-0.4
			l-3.6-1.8l-0.6,0.1l-0.4,1.3l3.2,2.7l2.2,1l3.7,1.5l5.2-0.5l4.4-0.6l1.9-0.1l3.3,1.6l2.3,1.9l0,1l-8.4,2.6L277.7,1007.2
			L277.7,1007.2z M129.2,953.4l1.3-1.2l-0.4-4.8l-3.8,0.8l-1.1,1.1l-1,0.7l-0.8,0.4l-2.5,0.4l1.2-1.3l0.8-0.6l0.5-0.7l-0.6-1.9
			l-0.9,0.1l-1.1,0.3l-0.9,0L119,946l-0.2-2l0.2-1.1l0.4-0.6l1.2-0.4l0.8,0.5l0.6,0l0.6-0.6l0.8-1l0.6,0l2.4,0.9l0.7,0.7l0.5,0.9
			l0.9,1.1l0.9,0.4l2.6,0.4l0.8-0.1l2.7-0.5l2.6-0.8l-0.2-1.3l-0.9,0.1l-0.5,0.7l-2,0.5l-1.9,0.1l-1,0l-2.2-0.2l-1-0.5l-4.4-5.2
			l-0.9-1.8l1.2-0.3l1.1,0.2l1.7,0.6l5.5,0.3l-1.1-2.4l-1.5-1.6l2.7-1.4l2.2-0.1l2.7,0.7l1.9,5.1l-0.1,2.3l-0.3,2l1.3,2.6l1-5.4
			l0-1.6l-1.1-1.7l-1-1.8l2.2,0.5l1.8,1.7l2.4,3.8l2.2-2.4l3,0l1.5,0.7l1.4,1.8l0.1,1.4l-0.9,0l-0.8,0.4l-0.4,1.1l1.7,3.1l0.8-1.6
			l0.9-1.5l3.4,0.8l0.8,0.4l3.3,3.2l-0.9,0.9l-0.5,0.2l-0.3,2.1l-0.9,0.8l-0.7,0l-2.4-0.2l-1.6,1.9l0.6,3.5l0.6,0.4l1.3,0.4l1,0.1
			l0.2,2.3l-2.9,0.7l-2.7,3.1l-0.7,0.1l-0.7-0.2l-1.4-1.3l-2.3,1.7l-3,2.6l-1.5,0.2l-3.7-1.2l-1-0.8l0.5-0.9l3.3-0.5l3-2.7l0.2-8.7
			l-2.3-0.8l-0.7,0.6l-1.6,1.9l-0.9,0.5l-2.6,0.2l-0.3-1.1l-0.3-1.3l-1.1-0.3l-0.5,5.3l0.1,1.2l-0.4,3.5l-2.8-0.8l-1.4-2.4l-1.4-2.6
			l-0.9-1.8L129.2,953.4L129.2,953.4z M289.1,984.5l2.8-0.4l3-0.1l2.6-0.1l4-0.4l1.8-0.5l0.6-0.1l3.7-0.6l1.3-0.1l2,0.2l1.1,0.1
			l1,0.3l0.7,0.2l1.2,0.4l0.6,0.4l4,4.5l0.5,3.2l-0.4,2.3l-0.3,0.9l-0.2,0.5l-3.1,5.6l-0.3,0.3l-1.2,0.3l-0.3,0.1l-3.1-0.5l-0.5-0.1
			l-0.7-0.3l-0.5-0.4l-0.3-0.5l0-0.8l0.5-0.8l0.2-0.6l0-0.6l-0.3-0.4l-0.7-0.5l-0.7-0.4l-0.8-0.2l-0.9-0.1l-0.6,0.1l-0.5,0.2
			l-0.9,0.6l-0.3,0.4l-0.2,0.5l-0.2,0.8l-0.1,1.3l0.3,1.3l-0.3,0.4l-0.4,0.1l-4.2,0.3l-0.5-0.1l-1.7-0.7l0.3-0.6l0.4-0.1l-0.2-0.9
			l-1.1-1.4l-0.5,0.3l-3.5,2.6l-0.9,0.7l-0.2,0.1l-0.6,0l-0.5-0.1l-0.5-0.2l-0.6-0.5l-0.3-0.5l-1.9-5.3l0.1-0.9l-1.4-4.7l-0.5,0.2
			l-2.6,0.5l-1-1l-0.6-1.7l0.4-0.7l0.3-0.2l3.8-1.2L289.1,984.5L289.1,984.5z M123.4,926.4l1.9-0.7l0.4,0.1l2.3,1.1l3.6,1.8l0.4,0.5
			l-0.2,0.7l-0.4,0.3l-0.3,0.1l-3.3,0.3l-7.5-0.9l-0.5-1.3l-0.3-0.5l-2.1-0.6l-1.1-1.7l-3.8-2.7l-0.5,0.2l-3.2-2.4l-2.1-2.1
			l-2.4,0.9l-1.1,0.8l-1.3,1.1l-6.8,0.7l-0.7-0.3l-1.1-2.7l-2.5-2.4l-0.6,0.1l-1.9-0.2l-2.6-1.5l-0.3-0.5l0.1-0.9l0.2-2.4l-1-1.2
			l-0.3-0.2l-0.8-0.1l-1.5-0.5l-0.4-0.2l-1.8-1.8l0.9-2l0.4-0.1l1.5,0.7l4.8,3.5l1.9,1.7l1.5,2.5l1.5,1.3l3.3,0.3l0.3-0.7l1.1-0.5
			l1.9-0.7l3.2,0.7l4,1.6l2,1.3l1.3,0.6l2.3,0.8l1.8-0.2l-0.1-0.9l1.4,0.1l1.5,1.5l0.3,0.4l0.8,2l-0.2,0.6l-0.4,0.6l-0.2,0.7
			l1.5,2.7l0.4,0.5l0.5,0.2l0.8-2.2l-0.4-0.9l-0.4-1l-0.5-1.6l0.3-0.6l0.4-0.1l0.6,0.1l0.9,0.2l3.8,3.5l0.2,0.5L123.4,926.4
			L123.4,926.4z M189.3,953.7l1.1,3l2.4,0.2l2.4-1.5l2.2,1.1l0.3,0.5l1.1,3.7l0.8,4.5l-2.7,5.9l-0.3,0.4l-0.5,0l-0.6-0.4l-1.3-1.3
			l-1.7-0.1l-2.9-0.9l-3.5-4.8l-0.3-0.8l0.1-0.8l0.3-0.4l0.9-0.2l0.4-0.3l0.1-0.4l-1.4-1.7l-2.1,2.3l-0.6,3.4l-0.1,0.6l0.1,1.1
			l-3-0.2l-0.6-0.3l-0.8-1.5l-0.5-1l-0.4-0.9l0-0.7l1.4-2.3l-1.6-5.6l0.2-1.2l0.5-0.8l0.4-0.4l1.2-0.4l2.9-0.4l2.9,0.8l2.4,0.9
			l0.3,0.2L189.3,953.7L189.3,953.7z M212.8,961.1l-0.3,0l-2.6-0.6l-1.3-0.4l-1.2-0.4l-0.4-0.3l-3-2.1l-0.6-0.6l-2.2-2.9l-1.3-4.9
			l-0.1-0.6l-0.4-2.8l0.2-0.5l1.4-1.4l1.4-0.8l0.5,0l2.6,0.5l0.7,0.5l0.4,0.1l0.3,0l0.5-0.4l0.3-0.7l-0.1-0.6l-0.4-0.7l-0.6-0.6
			l-0.4-0.2l-1.4-0.4l-0.3-0.4l-0.3-0.6l-0.6-3.2l0.1-0.7l0.8-0.4l0.4-0.3l0.3-0.3l0.4-0.6l0.5-0.8l0.3-0.7l0.2-0.5l0.1-0.8l0.1-1
			l0.1-0.7l0.2-0.5l0.4-0.5l1.3-0.4l0.5,0.4l0.4,3.6l0,0.6l-0.1,0.6l0,0.6l0.1,1l0.1,0.6l0.2,0.6l2.4,6.6l2.3,4l1.5,2.8l0,0.8
			l-0.5,0.8l-0.6,0.3l-1.1,0.2l-0.3,0l-0.6-0.1l-0.5-0.2l-0.9-0.5l-1-0.7l-1-1.1l-0.4-0.4l-3.1-2.3l-0.1,0.6l0.1,0.6l0.6,1.6
			l0.3,0.5l0.3,0.4l0.7,0.7l0.6,0.4l0.3,0.3l0.7,0.9l1.8,3.9l0.3,0.8l1,3.6L212.8,961.1L212.8,961.1z M177.5,952l-1.2,1.7l0.4,0.5
			l0.7,0.6l1.6,3.9l0,0.8l-1.3,2.8l-0.4,0.8l-0.4,0.2l-0.3,0l-1.1-0.2l-0.5-0.2l-0.4-0.3L174,962l-3-3.6l-0.2-0.8l0-1.1l-0.3-0.4
			l-0.4,0.1l-0.2,0.8l0.1,0.7l0.2,0.7l1.5,3.3l1.3,1.2l0.4,0.2l0.8,0.3l3.4,3.2l0.1,0.8l-0.2,0.6l-1.7,4.1l-0.3,0.2l-0.4,0l-2.6-0.2
			l-0.7-0.9l0-2.7l-5.3-4l-3.1-2.5l-0.5-0.4l-0.4-0.5l-0.3-0.5l-1.6-5.1l-0.3-1.1l0-0.8l1.2-0.4l0.3-0.1l0.3,0l1.9,0.5l0.5,0.4
			l0.5,0.9l1.2-0.2l1-3.8l0.3-1.4l0.7-0.5l0.6-0.3l6.8,1.4l2.1,0.7l0,0.8L177.5,952L177.5,952z M54,794.6l-0.5,1l-2.8,5.3l-0.3,0.5
			l-0.6,0.3l-2.1,0.2l-0.3-0.1l-0.2-0.4l-0.1-0.7l0.2-0.8l0.9-0.8l0.7-1.1l1-2.1l-0.5-0.3l-1.9,0.8l-1.3,1.1l-2.8,1.7l-0.4,0.1
			l-0.4-0.3l-0.1-0.7l-0.1-3.2l0.3-2.6l0.4-2.3l0.1-0.6l0.3-0.5l0.4-0.3l0.5-0.1l0.5,0.1l2.1,0.5l0.2,0.4l-0.2,0.5l-0.3,0.2
			l-0.8,0.3l-1.2,0.2l-0.1,0.4l0.5,0.7l0.5,0.3l1.3,0.5l2.4,0.2l1.5-0.5l-0.4-2.2l-0.5-1.3l-2.1-0.3l-2.4-1.1l-2.6-1.6l-0.8-1.6
			l2.1-2.2l0.5-0.1l4.8,0.5l0.4,0.2l4.5,4.1l-1.2,1.6l-0.4,0.6l-0.2,0.5l1.3-0.1l4.6-1.9l0.3-1.2l-0.4-0.5l1.1-0.7l0.5,0.4l0.4,0.9
			l0.1,1.5l-0.3,1.5l-5.1,4.1l-0.4,0.3L54,794.6L54,794.6z M69.1,830.3l-5.1-1.6l-2.8-3.6l-0.2-0.5l-0.1-0.7l0-0.7l0.5-2.2l0.3-0.3
			l1.7-0.1L67,821l1.7,0.4l2-1.5l-0.4-3.6l-0.2-0.9l-0.4-0.6l-0.9-0.7l-0.4-0.1l-0.5-0.2l-0.2-0.4l0.1-0.5l0.6-0.5l1.1,0.1l2.1,0.6
			l2,1l2.7,2l0.3,0.6l0.2,0.8l1.8,7.4l-0.2,2.7l-0.3,0.4l-0.4-0.1l-0.3-0.9l-0.7-1.6l-1-1.1l-0.5-0.1l-0.3,0.2l-3,2.5l-0.3,2
			l-0.2,0.4l-2.3,1.2L69.1,830.3L69.1,830.3z M222.8,993.8l0.8,0l0.3,0.3l-3.5,2.3l-1.2,0.3l-0.5,0.6l0,0.8l0.2,0.8l-0.2,0.5l-3.1,1
			l-1,0.1l-0.8-0.2l-0.7-0.3l-0.3,0.3l-0.2,0.9l2.4,0.6l4.8-0.1l3.6-1.2l0.4-0.1l1.5-0.3l0.3,0.1l0.3,1l0.9,3l-0.7,1l-0.8,0.2
			l-0.4-0.1l-0.4-0.3l-0.4-0.7l-0.9-0.7l-0.6,0l-0.3-0.1l-0.9,0.9l0.1,1.2l0.3,0.4l0.8,0.3l0.6,0l0.4,0.2l0.3,0.5l-0.2,0.8l-4,2.6
			l-0.5,0l-0.3-0.4l-0.3-0.7l-0.2-0.9l-0.2-1.3l0.3-1.2l-1.9-1.7l-2.4,2.7l-0.7,0l-6.6-1.5l-2.3-1.4l-0.8-3.9l0.3-0.5l0.4-0.3
			l3.1-1.2l2.5,0.2l1.3,0.2l1.4,0.5l3.6-0.4l0.5-0.4l-1.7-0.5l0.1-0.5l2.7-2.1l0.4-0.2l1.8-0.3L222.8,993.8L222.8,993.8z
			 M82.2,816.2l-1.1-2l-0.4-0.4l-0.7-0.4l-1.2,0.9l-0.1,0.5l-2.6-0.6l-3.2-1.9l-0.3-0.3l-1.8-2.9l-0.3-0.6l-0.3-0.9l0-0.5l1.9-2.4
			l1.7-2.4l-2.3-0.6l-0.3,0l-1,0.5l-0.4,0.1l-3.3-1.1l1.5-1.8l0.3-0.3l0.8-0.8l0.5-0.3l0.4,0l5.3,2.5l3.5,5.6l1.5,2.4l2.2,3.9
			l0.3,0.9l0.1,1.1l-0.1,1.5l-0.3,0.2L82.2,816.2L82.2,816.2z M236.8,999.2l0-1.5l-0.1-0.6l-0.7-1l-0.9-0.2l-0.3-0.7l0.2-3.3
			l0.3-0.3l1.6-0.9l0.3-0.1l3.1-1l1.6-0.2l8.5,0.5l0.9,0.1l5.1,0.8l1.3,0.9l-0.5,0.4l-0.9,0.2l-5.2,2.2l-2.7,1.3l-4.2,1.4l-3.1,1
			L236.8,999.2L236.8,999.2z M103.6,902.6l-0.3,0l-0.4-0.2l-4.4-3.9l-0.3-0.5l0-0.5l0.4-1.8l0.2-0.4l1.4-2.2l4-5.1l1.6-1.4l0.4-0.1
			l0.4,0.1l0.4,0.3l0.4,0.5l1.6,2.4l-0.8,6.2l-1.1,3.8l-0.2,0.5l-0.3,0.7l-0.5,0.3l-0.5-0.1l-0.3,0.1l-0.9,0.7L103.6,902.6
			L103.6,902.6z M63.8,848.3l-0.3,0l-0.7-0.4l0-1.2l1.8-1.9L66,844l0.6-0.4l1.8-2.7l0.2-0.6l-0.3,0l-2.9,2.2l-0.5,0.6l-0.6-0.1
			l-0.4-0.5l-0.2-0.6l0-0.6l0.2-0.5l3.9-5.7l2.2-1l2.9-0.6l1.5,1.4l0.3,0.4l1,2l0.3,3.9l-0.3,0.7l-1,1.6l-0.3,0.2l-0.7,0.1l-0.4-0.2
			l-1.5-3.3l-1.1,0.8l-0.4,1.5l-0.9,2.9l-0.4,0.3l-1.2,0.4l-1.1,0.2l-1.6,0.4l-0.5,0.4L63.8,848.3L63.8,848.3z M49.4,818.2l-2.9-0.4
			l-0.6-0.2l-0.4-0.3l-2.4-4.5l0.2-0.6l1.1-1.6l0.9-0.7l0.4-0.1l0.4,0l0.8,0.4l0-1.3l-1.2-2l-0.9-0.6l-1.1-0.6l0-0.6l1.2-1.5
			l0.6-0.2l6.1,0.4l2.5-0.2l0.3,0.3l-0.1,0.6l-2.3,4.3l-0.5,0.2l-0.3,0l-0.6-0.1l-0.5-0.1l-0.6-0.4l0.1,1.3l0.6,2.9l0.6,3.3
			l-0.3,1.5l-0.5,0.4l-0.4,0.2L49.4,818.2L49.4,818.2z M47.7,777.4l-0.6-0.8l-2-1.8l-0.7-0.1l0.4,1.3l0.3,0.8l0.1,0.5l-0.4,0.3
			l-0.7-0.2l-1.1-0.8l-0.6-0.6l-1-1.4l-0.1-0.5l0-0.6l-1.8-1l-2.8,3.6l-0.6-0.1l-1.1-1.7l-0.2-0.4l-1.1-5.4l1-1.7l5.1-1.3l0.4,0.1
			l0.4,0.2l0.5,0.4l1.3,1.4l4.2,6.1l0.2,0.4l1.1,3.2L47.7,777.4L47.7,777.4z M68.8,878.3l-0.7-0.9l-3-5.7l1.5-7.2l0.4-0.7l1,0.8
			l0.2,0.5l-0.3,0.7l0.1,0.5l0.7,0l0.9-0.3l0.6-0.3l0.6-0.9l-1.7-5.5l-1.2-2.2l-0.8-0.3l-0.5-0.3l-0.1-0.5l0.3-0.6l0.5-0.5l0.4-0.3
			l0.6-0.2l1.9,0.4l0.6,0.6l0.2,0.5l1,4.1l0.4,1.5l-0.2,2l-0.6,5.9l-0.8,5l-1.1,2.8l-0.3,0.6l-0.3,0.3L68.8,878.3L68.8,878.3z
			 M40,741.1l-2.3-4.8l-0.4-0.6l-2.7,1.9l-0.7,2l-0.2,0.4l-0.4,0.4l-0.6,0.2l-4.5-2.6l-0.3-0.4l-0.2-0.4l-0.2-0.7l-0.1-0.5l0-0.6
			l0-0.5l0.3-1.5l0.3-0.5l2.1-1.1l5.1-0.4l0.5,0.1l1.2,0.3l0.4,0.2l0.7,0.8l3.2,6l0.1,0.6l-0.9,1.4l-0.3,0.3L40,741.1L40,741.1z
			 M50.2,748.4l-3.2-2.8l-4.5-0.8l-1.4-0.7l0-0.7l0.2-0.6l0.6-1.5l0.3-0.6l1.5-2.7l4.2-0.4l0.9,0.5l1.9,1.6l0.4,1.6l0.1,0.6l0,7.5
			l-0.5-0.3L50.2,748.4L50.2,748.4z M55.6,857l-0.3-0.7l-0.5-3.6l1-1.5l1-2.2l-0.1-2.4l-0.4-3.3l-0.2-0.8l0-0.7l0.1-0.6l0.2-0.5
			l1.2-1.4l0.4-0.4l0.4-0.1l4.1,2.7l0.5,1.4l0.1,1.4l-0.1,0.6l-0.4,0.4l-0.4,0.1l-0.5-0.3l-0.5,0l-0.3,0.2l-1.2,4.3l0.2,0.8l0.2,0.8
			l0.1,0.8l-0.1,0.7l-0.2,0.9l-3.5,3.1l-0.3,0.2L55.6,857L55.6,857z M94.7,887.7l-1.5-0.8l-1.4-1.9l-0.8-3.7l0.1-0.5l0.4-0.4
			l0.3-0.2l0.6,0l0.7,0.2l0.4,0.3l0.8,0.3l0.3-0.2l-1.5-2.4l-0.4-0.3l-0.8-0.5l-2.7-0.5l-1.6,0.5l-0.4,0.2l-0.7,0l-0.6-0.2l-0.9-0.6
			l-0.2-0.6l1.7-2.1l0.5-0.4l0.5-0.3l0.3-0.1l0.5,0.2l0.4,0.2l2.6,1.6l2.2,1.7l1.4,1.2l5.2,4.8l0.1,0.7l-1.1,1.1l-3.4,2.5l-0.9,0.2
			L94.7,887.7L94.7,887.7z M33.8,750.6l-0.3,0l-3.5-1.3l-0.5-0.3l-0.2-0.4l1.1-3.4l1.4-1.3l0.4-0.2l0.6,0.2l1.3-1.6l0.5-2.3l1.1-2
			l0.4-0.5l0.5-0.3l0.4,0.1l0.6,1l1.6,3l0.2,0.6l-0.4,1.3l-0.4,0.8l-0.2,0.4l-3.5,5.1L33.8,750.6L33.8,750.6z M68.3,820.1l-2.4,0.1
			l-1.2-0.2l-3.2-0.6l-0.5-0.5l-1.2-3.1l-0.1-1.6l0.1-0.5l1.4-2.5l1.9-1l0.4,0.1l2,1.4l3.2,4.9l0.1,0.5l-0.1,1.8l-0.3,1L68.3,820.1
			L68.3,820.1z M91.1,867l-2-0.1l-4.5-1.9l-1.8-1.7l-3.1-6.1l3.9,0.7l6.6,3.9l2.6,1.3l0,0.5l-0.8,2.8l-0.3,0.4L91.1,867z
			 M202.6,999.7l-0.5,0l-2.3-0.7l-1.8-1.1l-3.1,2.7l-0.4,0.3l-2-0.3l-1.8-2.8l1.1-3.1l1.4-0.1l4.6,0.3l2,0.3l0.9,0.5l1,0.3l0.7-0.2
			l0.6-0.5l0.4-0.7l0.3-0.1l1.7,0.9l1.2,2.3L206,998l-1,0.2L202.6,999.7L202.6,999.7z M105.7,877.9l-0.2-0.4l-1-1.4l-1.6-1.8
			l-2.3-1.8l-0.6-0.3l-1.9-1l-4.1-1.7l-0.4-0.2l-0.6-0.4l-0.3-1.6l0.3-2l0.9-0.9l0.4,0l0.6,0.3l5.6,3.8l1.7,1.2l1.2,0.9l0.3,0.5
			l2,3.2l1,2.5l0.1,0.8l0,0.9l-0.5,0L105.7,877.9L105.7,877.9z M94.1,859.4l-0.7-0.1l-0.5-0.2l-4.5-2.4l-0.7-0.4l-0.6-0.6l-0.2-0.9
			l0.2-0.5l1.3-0.5l1.3-0.2l1.1-2.8l-0.9-2.7l0.1-0.5l0.2-0.2l0.4,0l0.5,0.4l5.3,9.2l0.1,0.7l-0.3,0.5l-0.3,0.3l-0.7,0.5l-0.6,0.3
			l-0.3,0.1L94.1,859.4z M316.9,1026.3l-0.2-1.6l-0.3-0.2l-1.6-0.2l-1.7,0.7l-2.8-0.6l-0.3-1.3l0-2.5l2.8-4.1l1.6-1.1l0.5-0.1
			l3.6,7.1l0.8,2l-0.1,0.6l-0.6,0.7l-0.6,0.3L316.9,1026.3L316.9,1026.3z M71.9,878.9l-0.2-0.1l-0.8-1l1.5-10.6l0.1-0.7l0.4-1.5
			l0.2-0.7l0.3-0.5l0.4-0.1l3.9,0l0,0.7l-3.2,11.3l-0.3,0.4l-2.1,2.6L71.9,878.9L71.9,878.9z M160.4,961.3l1.8,1.3l1.1,1.7l-0.9,2.9
			l-1.1,2.8l-0.6,0.3l-3.1,0.6l-1.1,0l-0.7-0.3l-0.4-0.3l-0.6-2l2.8-6l0.5-0.7l0.9-0.7l0.8-0.1l0.3,0.2L160.4,961.3L160.4,961.3z
			 M103.5,886.4l-1.4-1.4l-1.4-2.6l-2.8-1.8l-2.7-2.6l-0.3-0.4l-0.4-1l0.3-0.7l0.8-0.7l0.3,0l1.5,0.7l1.5,1.8l4.3,1.6l0.7,0.6
			l0.4,0.6l0.2,0.5l1.2,3.1l0,0.8l-0.3,0.6l-1.1,0.9l-0.7,0.1L103.5,886.4L103.5,886.4z M122.5,932.8l0.7,0.2l0.5,0.6l-1.6,3.1
			l2.2,2.4l0.3,0.7l-2.5,1.9l-0.6-0.1l-4.2-1.7l-4-2.2l-0.6-0.6l-0.7-0.9l0-0.5l0.5-0.1l1.2,1l1.1,0.6l0.7,0.3l0.5,0.1l0.3,0
			l1.2-0.1l2.3-1.3l-0.1-0.5l-0.3-0.2l-1-0.3l0.1-1.9l3.3-0.4l0.3,0L122.5,932.8L122.5,932.8z M41,737l-0.8-1.1l-3.5-7l0.9-0.2
			l1.5,0.3l0.5,0.1l0.9,0.3l1.1,0.5l1.1,0.6l0.4,0.3l0.3,0.3l0.5,0.7l0.2,0.4l0.9,2.1l0,0.5l-0.2,0.4L42,737l-0.5,0.1L41,737L41,737
			z M78.3,833.4l-4.1-1.3l-0.5-0.3l-1.2-2.4l-0.1-1.3l2.7-2.7l0.5-0.1l0.4,0.1l0.4,0.5l2.3,3.5l0.2,0.4l0.2,0.5l0.2,1.3l-0.5,1.7
			l-0.4,0.1L78.3,833.4L78.3,833.4z M82.6,833.3l-2.1-6l-0.8-2.5l-0.9-4.3l0.1-0.5l0.7-0.2l0.8,1.1l2.6,5.4l1.6,4l0.5,1.7l-1.3,2.3
			l-0.4,0.3l-0.4,0l-0.3-0.4l-0.1-0.8L82.6,833.3L82.6,833.3z M220.2,962.4l-0.3,0.1l-0.6,0l-4.1-1l-0.6-0.2l-1.4-1.6l-0.3-0.4
			l-0.2-0.6l0.1-0.9l0.2-0.6l0.4-0.2l0.6,0l5.4,1.3l1.9,0.8l0.6,0.7l0,0.8l-0.3,0.6l-0.6,0.9l-0.4,0.2L220.2,962.4L220.2,962.4z
			 M132.4,968.3l-1.9-0.7l-3.8-1.1l-0.4-0.5l2-2.4l1.1-0.2l1-0.1l2,0l0.4,0.1l1.7,0.7l0.2,0.5l0.8,2.4l-0.4,0.6l-0.5,0.2
			L132.4,968.3L132.4,968.3z M326.3,995.8l0.7,0.5l1,2.4l-0.3,1.3l-0.8,0.9l-0.5,0.2l-3.2,0.3l-1.5,0.1l-0.3-0.2l-0.7-2.5l0.6-1.5
			l0.6-0.5l2.1-1.2l0.8-0.2l0.6,0l0.5,0.1L326.3,995.8L326.3,995.8z M122.2,867.2l-0.3-1l0-0.9l0.1-0.7l0.1-0.5l0.8-2.8l0.2-0.2
			l2.1-1.5l2.2-1.2l0.1,1.5l-1.9,6.3l-0.7,0.4l-1.5,0.8l-0.6,0.2l-0.3-0.1L122.2,867.2L122.2,867.2z M89.6,839.8l-0.4-0.2l-0.4-0.4
			l-1-3l0-0.5l0-2.3l0.2-0.5l0.3-0.2l0.5-0.1l2.2,0l0.8,0.4l0.3,0.6l0.7,2.3l0.1,1.1l-2.4,2.8L89.6,839.8L89.6,839.8z M42.2,729.6
			l-0.2-0.1l-3.4-1.6l-0.2-0.7l1.4-2.6l2.5-4l0.4-0.1l0.3,0.5l0.2,0.5l0.2,0.7l0.1,0.6l0,0.6l-0.3,3.3l-0.4,2.1l-0.2,0.5L42.2,729.6
			L42.2,729.6z M63.9,802.5l-0.7-0.1L63,802l0.3-4.5l1.4-1.5l0.3-0.2l0.5-0.1l1.8-0.1l1.9,0.3l0.2,0.5l-0.3,0.8l-2.1,2.5l-2.1,2.3
			l-0.4,0.2L63.9,802.5L63.9,802.5z M67.6,761.2l-0.5-1.7l-0.9-4l-0.1-1.8l0-0.7l0.3-0.2l2,1.3l0.8,0.6l0.4,0.4l1.7,2.6l-0.1,0.4
			l-3.1,3.7L67.6,761.2L67.6,761.2z M63.3,868.6l-0.3-0.2l-0.2-0.4l0.1-4.5l0.3-1.9l0.1-0.5l0.4-0.6l0.6-0.6l0.5-0.3l0.8,0l0.7,0.5
			l0.2,0.7l0,1.8l-0.2,2l-0.2,1.5l-0.2,0.6l-0.3,0.4l-1.1,1.3l-0.6,0.3L63.3,868.6L63.3,868.6z M88.4,843.5l-1.9-0.7l-1.3-0.7
			l-0.4-0.4l-0.8-2.4l-0.3-1.4l0-0.9l2.1-1.1l0.4,0.2l2.1,4l0.2,0.4l0.4,2.5l-0.1,0.5l-0.4,0.1L88.4,843.5L88.4,843.5z M335,997.2
			l-1.4-0.1l-0.3-0.4l-0.3-0.9l-0.1-0.5l0.2-2.2l2.3-2.2l0.7-0.1l0.5,0l2.1,0.6l0.5,0.8l-2.1,3.8l-1.6,1.1L335,997.2L335,997.2z
			 M219,991.4l0.7,0.1l0.6,0.2l0.8,0.9l-0.2,0.6l-0.3,0.2l-5.2,1.9l-2.2,0.3l-1.6-0.7l-0.5-0.7l0.3-0.5l0.9-0.7l3-1.4l2.1-0.6
			l1.4,0.3L219,991.4L219,991.4z M57,817.4l-0.4-0.4l-0.3-0.4l-1-1.9l-0.2-0.8l0.5-2.9l0.4-0.3l2.2-0.2l0.3,0.3l0.2,0.6l0.7,6.1
			l-0.3,0.3l-1,0L57,817.4L57,817.4z M158.1,979.4l-0.4-0.1l-1.7-1.7l-0.8-2l3-2.3l0.6,0l3.3,0.8l0.2,0.5l-0.1,1.1l-1.9,1.2l-0.3,0
			L158.1,979.4L158.1,979.4z M75.6,874.7l0.1-1.1l0.1-0.5l0.3-0.5l3.8-5.2l1.1,0.5l0.7,0.6l0.2,1.4l-0.2,1l-1.5,1.4l-3.1,2.7
			l-1.2,0.8l-0.3-0.2L75.6,874.7L75.6,874.7z M217.2,956.8l-0.3,0l-2.8-1.5l-0.9-0.8l-0.5-0.6l-0.2-0.7l0.1-0.5l0.3-0.3l4.8-1.7
			l0.3,0.4l0.5,0.9l0.3,1l-0.4,2l-0.3,1l-0.3,0.4L217.2,956.8L217.2,956.8z M112,944l-0.4-0.1l-1-2.3l-0.2-3.9l0.2-0.5l0.4,0
			l4.1,2.1l0.7,0.5l0,0.6l-0.2,0.5l-2.6,2.4l-0.4,0.3l-0.4,0.2L112,944L112,944z M119.9,911.3l-0.8,0.2l-0.4,0l-1.1-0.9l-0.3-0.4
			l0.2-0.7l0.5-0.1l0.3-0.2l-1.1-0.5l-1.2-0.2l-2.4,0.1l-0.5,0.2l-2.5,0.9l-0.6,0.5l-0.4-0.3l1.3-1.7l3.4-1.4l4.4,0.6l0.4,0.2
			l1.4,1.3l-0.1,2.2L119.9,911.3L119.9,911.3z M100.8,859.2l-0.3,0l-0.7,0l-0.6-0.2l-0.3-0.4l-3.2-4.8l-0.2-0.9l0.2-0.5l0.7-0.1
			l2.1,0.8l1.8,1.8l1.1,1.8l0,0.6L100.8,859.2L100.8,859.2z M309.8,1033.2l-1.3-2.4l-0.4-0.2l-1.7,0.3l-3.3,1.5l-0.4-0.1l-0.3-0.4
			l-0.2-0.8l0.3-1.1l0.9-0.4l0.3-0.1l0.8,0.2l0.6,0.1l1.2,0.1l3.1-0.4l1-1l0.3-0.2l1.4,0.2l0.6,0.6l-0.5,2.5l-0.3,0.4l-1.4-0.3
			l-0.3,0.1L309.8,1033.2L309.8,1033.2z M320.3,984.5l1.5,0.2l3.3,0.7l0.4,0.4l1.7,3.7l-0.4,0.3l-0.6-0.2l-7.1-3.5l-0.4-0.6l0.1-0.6
			l0.2-0.3l0.6-0.2l0.6,0.1L320.3,984.5z M76.6,886.8l-2-1.5l-0.7-2.3l4.9-2l0.7,0.1l0.2,0.5l-1.5,4.3l-0.8,0.7l-0.5,0.3L76.6,886.8
			L76.6,886.8z M98,838.3l-2.2-0.2l-0.3-0.2l-0.8-0.6l-0.9-1.7l0.1-0.5l0.6-0.9l1-1.3l0.5-0.2l0.5,0.1l0.6,0.2l0.4,0.4l0.3,0.3
			l0.3,0.4l0.3,0.8l0.1,1l-0.2,1.8l-0.1,0.5L98,838.3L98,838.3z M45.1,725.1l-0.7,0l-0.4-0.2l-0.1-0.6l0.7-2.7l0.4-0.7l2.5-0.3
			l1.5,0l0.9,0.3l-2.3,2.9l-0.4,0.5l-0.4,0.3l-0.8,0.4L45.1,725.1L45.1,725.1z M75,880.7l-0.5-0.1l-0.3-0.3l-0.2-0.5l-0.1-1l0.2-1.1
			l4.7-3.8l0.5,0.9l-1.8,4.5l-1.7,1l-0.5,0.2L75,880.7L75,880.7z M304.3,1019.5l-0.3-0.3l0.3-5.4l0.3-0.7l0.6-0.5l0.4,0l0.6,0.5
			l0.4,0.3l0.5,0.5l0.3,0.4l0.4,0.8l0.2,1.8l-1.3,1.4l-0.6,0.5l-0.7,0.4L304.3,1019.5L304.3,1019.5z M229.1,998.6l-0.3,0l-0.5-0.2
			l-0.5-0.4l-0.1-0.5l0.3-0.5l0.3-0.4l3.8-2.9l0.5-0.3l0.4,0l0.3,0.2l0.4,0.5l0.1,0.8l-0.8,1.7l-2.6,1.5L229.1,998.6L229.1,998.6z
			 M103.3,928.5l-0.1,0.6l-1,2.4l-0.7,0.7l-1.7,0.9l-0.5,0l-0.3-0.2l-0.6-0.6l-0.2-0.5l1.4-1.8l1.1-1.3l1.1-1.1l0.3-0.1l0.4,0.2
			l0.7,0.5L103.3,928.5z M320.3,1031.3l-3.2-1.2l-2-1.2l0.1-0.7l0.3-0.3l0.5-0.3l1.6-0.1l2.2,0.4l1.2,1.3l0.4,1.8L320.3,1031.3
			L320.3,1031.3z M99.5,863.4l-2.4-0.1l-0.4-0.3l-0.6-2.1l0.6-1.9l0.3-0.3l0.4,0l0.4,0.3l0.3,0.3l0.7,0.6l1.6,1.9l0,0.7l-0.5,0.7
			L99.5,863.4L99.5,863.4z"/>
		<path id="CL-TA" class="st1" d="M27.1-345l4.6-0.9l4.1-3.5l4-4.1l8-1.2l5.1,2.7l4.4-1.2l0.1-3.5l2.4-3.3l4.4-0.6l0,0l-0.2,0.9
			l2.4,3.1l3.8,1.9l1.4,0.9l2.8,2.4l0.5,0.4l1,0.3l0.8,0.1l1,0.3l2,1.3l1.7,1.8l-2.6,3.7l-0.5,0.9l-0.7,1.4l-2,3.3l0.1,1.2l2.1,1.1
			l1.9,1.2l1.6,2.4l-0.9,4.4l-1,0.1l-1.1,0.3l-3.5,1.5l-0.1,0.8l0.6,0.6l1.8,2.9l1,3l-0.9,0.6l-0.5,0.7l0.3,1.5l0.5,0.8l0.5,0.6
			l1.1,0.9l0.9,0.4l1,0.3l0.9,0.2l0.9,0.2l0.7,0.2l1.8,0.9l0.9,0.7l-0.1,0.6l-1,0.8l-0.5,0.6l-0.8,1.6l0.6,4.2l0.3,0.6l0.1,0.1l0,0
			l-2.2,0.2l-5.4,0.1l-2.5,0.7l-0.6,0.3l-0.5,0.4l-0.2,0.8l0.5,0.5l0.9,0.4L77-298l0.8-0.1l0.7-0.2l1.5-0.6l0.9,0.1l0.5,0.7l0,1.4
			l-0.2,0.9l-0.9,2.4l-0.4,0.8l-0.2,0.8l-0.1,0.9l0.1,1l-2.5,1.6l-3.6,0.9l-7.4,3.5l-9,3.6l-2.1,0.8l-2.1-0.4l-1.8,0l-3.3,0.1
			l-0.7,0l-3.1,0.6l-0.4,0.2l0,0l-1.2-1.7l-0.3-1l0.5-1.1l-2.5-5.8l-0.9-1.5l-0.8-1.2l0.2-1.8l0.4-1.1l-0.5-1.6l-0.6-0.8l-0.5-0.3
			l-1.2-0.8l-0.6-12.7l0.4-2.9l0-0.9l-1-1.8l0-2.4l0.3-1l0.2-0.9l-0.3-2.4l-0.1-0.9l-0.7-2l-2.2-7.9l-1.6-4.6l-1.6-3.6l-1.6-2.2
			L27.1-345z"/>
		<path id="CL-AN" class="st1" d="M86.3-300.7l0.8,0l0.7-0.2l0.9-0.1l7,8.3l1.5,1.8l1.5,9.7l0.6,0.5l1.1,1.1l0.6,0.9l0.7,1.4
			l0.8,2.3l0.2,0.7l0.2,1.2l0.1,1l0.3,1.5l3,2.3l0.8,0.3l1,1.3l1.2,4.1l0.2,1.1l-0.2,0.9l1.8,3.8l1.8,3.8l-0.3,5.1l0.8,3.6l2.6,1.2
			l6.3-0.2l6.9-2.6l4.3-1.6l2.6,2.1l3.5,2.8l-0.8,4l-0.8,3.9l-0.8,3.9l-0.2,1.1l-2.4,20.6l-8.2,5.3l-7,4.5l-7.9,5l-1.7,1.1l-0.5,1.7
			l-1,1.7l-1.4,0l-0.6,0.6l-1.6,3.5l-1,2.3l-0.7,2l-0.5,1.8l0,1l0.9,1.7l1.5,0.6l5.3,6.6l-1.7,1.3l-1.9,0.6l-0.3,0.3l-0.4,1
			l-0.2,2.3l0,0l-1.6,0.2l-1.1,0.5l-0.8,0.7l-1,1.2l-0.8,1.1l-0.6,0.6l-0.7,0.3l-1.5,0.1l-1.1,0l-0.9,0.3l-1,0.6l-0.8,0.6l-0.6,0.5
			l-1.3,1.4l-0.4,1.7l0,2.3l-0.4,1.2l-0.6,0.1l1.1,5.6l-8.5,1.3l-0.6,3.6l-2.8,1l-2.3,3.8l-5.1-2.7l-2.8-2.8l-0.4,0.1l-2,0.1l-0.9,0
			l-1.1,0.1l-1,0.6l-0.5,0.4l-1,0.9L62-139l-3.4,2.8l-2,0.5l-2.6,0.8l-1.2,0.4l-0.8,0.3l-0.7,0.4l-0.5,0.4l-0.5,0.4l-1.4,1.4
			l-1.1,2.1l0,0l0.6-1.5l0-0.7l-0.3-1l-0.8-1.7l-0.9-0.7l-0.7-0.6l-1.3-2.2l0.4-3.5l0.3-1.6l1-3.3l1.4-2.5l0.9-1l2-3.7l0-3.4
			l-0.3-1.8l-0.9-1.7l-1.6-1.7l-0.5-4.2l-1.2-1.7l-0.8-1.7l-1.7-3.9l-0.3-5.1l-0.2-5.2l0-1.6l-0.5-0.6l0.1-2.7l0.2-1.7l0.2-0.7
			l-0.1-2.2l-0.4-1.9l-0.7-1l-0.2-1.1l-0.3-4l0.1-2.2l0.7-1.3l0.7-0.7l0.3-0.9l0.4-1.6l0.1-0.9l0.1-0.8l-0.2-1.3l-0.4-0.9l-0.5-0.9
			l-0.5-0.4l-1.1-0.5l-0.9-0.3l-0.6,0.4l-0.5,1.9l-2.5-0.1l0.1-3.9l-0.5-4.6l-0.2-5.3l0.8-1.3l1-0.6l0.4,1.4l0.7,0.7l1.7-0.6
			l0.9-0.6l0.5-0.6l0.4-0.7l0.3-0.6l0.5-2.1l0.4-1.8l-0.3-0.9L43-234l-0.5-1.4l0.1-4.6l-0.2-6.2l-0.2-4.4l-0.1-4.8l0.1-2l0.3-2.4
			l-0.1-8l-0.3-0.9l-0.4-2.1l0.3-1.7l1.2-1.3l-0.1-1.6l0.5-3.4l0,0l0.4-0.2l3.1-0.6l0.7,0l3.3-0.1l1.8,0l2.1,0.4l2.1-0.8l9-3.6
			l7.4-3.5l3.6-0.9l2.5-1.6l-0.1-1l0.1-0.9l0.2-0.8l0.4-0.8l0.9-2.4l0.2-0.9l0-1.4l-0.5-0.7l-0.9-0.1l-1.5,0.6l-0.7,0.2L77-298
			l-2.4-0.6l-0.9-0.4l-0.5-0.5l0.2-0.8l0.5-0.4l0.6-0.3l2.5-0.7l5.4-0.1l2.2-0.2l0,0l0.2,0.3l0.7,0.6L86.3-300.7z"/>
		<path id="CL-AT" class="st1" d="M104.8-162.1l-0.2,2.6l0,0.7l0.1,1l0.2,0.8l1.8,3.6l2,3l0.3,0.8l1.9,5l2.8,7.9l-0.4,1l-1.5,1.9
			l-1,1l-0.6,0.7l-0.4,0.8l-0.2,1.6l0,1l0.1,1.8l0.1,0.7l0.3,1.5l0.3,0.6l0.4,0.6l1,1.1l3.6,3.2l5,5.7l0.3,0.6l-0.5,3.7l-0.8,0.7
			l-1,0.8l-0.5,0.3l-6.5,3.3l-1.6-0.7l-1.3,0l-1.2,0.3l-0.7,0.5l-0.9,2l-0.4,1.2l-0.2,1l0.4,1.2l-0.6,2.9l-3,8.3l-0.7,1.1l-0.7,3.5
			l0,1.4l-0.4,4.3l-0.2,0.8l-0.3,0.9l-0.4,0.7l-0.8,0.3l-1,0.3l-1,0.7l-0.6,2.2l-0.1,1.5L95.5-69l-1.1,2l-3.2,5L89.3-60L88-58.7
			l0.5,4.6l0,1.2l-0.8,0.6l-0.9,2.8l0.2,1.6l0.3,0.7l0.4,0.7l0.3,1.1l-0.5,3.1l-0.3,4.4l0.3,1.8l-0.1,0.8l-0.3,0.6l-0.8,0.8
			l-1.8,0.5L83-31l-1.6,3.3l0.1,2l0.3,0.7l1,1.5l1.6,3.5l0.2,0.4l0,0l-3.5,0.2l-5.5-1.5l-2.4-0.8l-4.2-0.5l0-0.9L69-24.4l-0.6-1.3
			l-0.4-0.5l-4.5-3.9l-0.8-0.6l-0.9-0.6l-1-0.5l-0.9-0.4l-1-0.1l-2,2.1l-0.8,2.5l-1.4,6l-4.5,1.2l-2.8-3.1l-2.5-3.8l-0.4,0.3
			L44-26.8l-3.4,1.3l-1.1,0.4L38.4-25l0,0l0.1-2.6L37-31.8l-0.5-2.6l0.1-0.9l0.8-1.3l2.3-2.9l1.9-3.2l0-1.8l-0.1-2l0.5-1.5l0.6-1.4
			l1.3-4.4l-0.4-3.8l-0.4-2.7l-0.4-6.4l0.5-4l0.4-2l0.8-2.2l0.9-1.7l1.2-0.8l1.3-1.3l0-4.5l-0.7-1.7L45.7-88l-1.6-4.9l0.1-0.8
			l0.2-0.9l0.6-0.6l1.7-0.6l1.2-2.2l0.6-1.8l-0.8-1.9l-0.6-1l-0.3-0.8l2.2-9.3L49-114l-0.3-4.1l0.6-4.5l-1.4-3.1l-0.2-1.1l-0.1-2.6
			l0,0l1.1-2.1l1.4-1.4l0.5-0.4l0.5-0.4l0.7-0.4l0.8-0.3l1.2-0.4l2.6-0.8l2-0.5L62-139l0.6-0.7l1-0.9l0.5-0.4l1-0.6l1.1-0.1l0.9,0
			l2-0.1l0.4-0.1l2.8,2.8l5.1,2.7l2.3-3.8l2.8-1l0.6-3.6l8.5-1.3l-1.1-5.6l0.6-0.1l0.4-1.2l0-2.3l0.4-1.7l1.3-1.4l0.6-0.5l0.8-0.6
			l1-0.6l0.9-0.3l1.1,0l1.5-0.1l0.7-0.3l0.6-0.6l0.8-1.1l1-1.2l0.8-0.7l1.1-0.5l1.6-0.2l0,0l-0.1,0.2l-0.4,1.4L104.8-162.1z"/>
		<path id="CL-CO" class="st1" d="M38.4-25l1.1-0.1l1.1-0.4l3.4-1.3l0.6-0.4l0.4-0.3l2.5,3.8l2.8,3.1l4.5-1.2l1.4-6l0.8-2.5l2-2.1
			l1,0.1l0.9,0.4l1,0.5l0.9,0.6l0.8,0.6l4.5,3.9l0.4,0.5l0.6,1.3l0.1,1.3l0,0.9l4.2,0.5l2.4,0.8l5.5,1.5l3.5-0.2l0,0l0.1,0.3
			l0.3,1.5L85-16.8l0,0.9l0.3,0.7l0.4,0.5l1,0.5l0.1,0.2l0.7,2.6l0.5,4L88-5.5l-0.1,0.9l2.3,3.2L91-1l0.5,0.7l0.1,1.6l-1.3,4.8
			l-0.9,1.8l-1.6,1l-0.9,0.2l-0.6,0l-2.2,1.9l-1.7,4.3l-0.8,2.8l-0.3,1.4l-0.6,5.1l0,2.3l0.1,1.4l0.2,0.8l1.3,1.1l0.1,1.2l-1.6,2.4
			l-1.9,1l-0.7-0.6l-1.7,2.5l-0.2,0.8l-0.1,4.9l0.5,5l0,2.1l-0.1,1.2l5.1,8.6l0.4,0.5l0.6,0.6l0.6,0.3l1.2,0.1l2-0.4l0.6,0.2
			l1.6,1.4l0.3,0.9l-0.5,2.8L87.1,66l-1,1.5l1.7,4.7l0.1,1.3l0,0l-2.7,0.8l-0.9-0.4l-0.4-0.8l-0.7-1.6l-0.9-0.6l-0.8-0.1l-0.6,0.1
			L80,71l-1.4,0l-1.5-0.8L77,69.4l-0.3-1.1l-2.2-0.9l-8.8,1.6L65,70.5l-1.2,1.8l-0.6,0.5L57.5,75l-1.2,0.1l0,0L55.4,75L54,74.5l0,0
			l-0.8,0.1l-0.6,0.5L52.1,76l0,0l-0.3-3.3l0.1-1.7l0.1-0.8l0-1.4l-0.4-2.9l-0.8-4.1l-1.1-1.9l-1.2-3.3l-0.3-2.1l-0.3-0.9l-2.5-6.8
			l-1.8-4.4l-0.3-0.6L43,40.7l0.1-1.9l-0.3-3.1l-0.5-1.1l-0.6-0.7l-0.3-0.7l-1.3-4.7L39.6,25l-0.4-3.3l-0.2-1.8l-0.3-5.6l0.6-2.4
			l0.8-0.5l0.4,0.5l1,0.2l0.7-0.1l1-0.7l2.6-3.5l0.4-1.1l0.4-6.9l1.2-1.7l-0.4-2.5l-1-0.8L45.7-7l-0.8-6.5l0.1-2.6l0.2-1.2L44.9-18
			l-1.4-3L43-21.7l-0.8-0.6l-1.7-0.9l-0.8-0.3L39-23.8l-0.4-0.7L38.4-25z"/>
		<path id="CL-RM" class="st1" d="M106,142.1l-0.1-0.7l-0.3-0.7l-0.8-0.4l-1.5-0.3l-1.1-0.9l-0.2-0.7l-0.2-2.3l-0.6-1.4l-0.6-0.3
			l-0.8,0.2l-0.7,0.7l-0.7,0.3l-2.1-0.4l0-1.8l-1.7-3.6l-0.7-0.5l-1.1-0.2l-1,0.2l-3.2,1.8l-1,0.9l-2.1,0.5l-0.8-0.1l-2.2,1.8
			l-3.2,5l0,0.8l0.3,1.5l-2.3,0.9l-2.8,0.5l-0.1,0l-2.9-3.1l-3.9-1l-2.3-3.1l-4.7,1l-3-0.8l0,0l1.4-1.2l0,0l0.5-3.3l0.6-0.1l1.7-0.2
			l1.5,0.2l0.9-0.2l1.2-1.7l0.6-5l-1.5-2.5l-0.8-2.3l-0.1-0.7l0.7-0.5l1.7-2.4l0.7-1.3l0.1-0.8l-0.4-2.4l0.3-0.8l1.7-0.6l1.8-0.3
			l1.8-1.7l-0.7-4.3l-0.6-1.5l0.1-1.3l0.5-0.4l3.2-1.8l4-0.6l2.8,0.3l1.6,0.3l1.3,0.9l0.6,1.3l1.2,1.3l0.7,0l1.6-1.9l0.7,0l2.4,1.9
			l3.2,0.9l2.1-2.5l1.4-1l0,0l0.6,0.8l0.1,1.6l-0.1,1.1l0.3,0.9l3.4,3.7l0.7-0.2l0.4-1.1l0.7-1l0.7-0.2l0.8,0.1l2.3,0.9l1.4,3.6
			l-0.1,0.9l-0.6,1l-1.2,4.3l0.1,7.9l0.3,1.7l0.9,2.2l2.1,7l1.6,4.7l-1.8,1.8l-1.4,0.1l-0.7-0.1l-0.8,0.1l-1.2,0.4L106,142.1z"/>
		<path id="CL-VS" class="st1" d="M56.3,75.1l1.2-0.1l5.8-2.3l0.6-0.5l1.2-1.8l0.7-1.6l8.8-1.6l2.2,0.9l0.3,1.1l0.2,0.8l1.5,0.8
			l1.4,0l0.8-0.1l0.6-0.1l0.8,0.1l0.9,0.6l0.7,1.6l0.4,0.7l0.9,0.4l2.7-0.8l0,0l0.3,0.6l2.1,0.6l0.5,1l2.9,4.3l0.4,1l0,1.3l1.4,1.1
			l2.1,1.5l3.1,3l0.7,2.8l-0.9,2.3l-0.4,2.6l-1.2,2.2l-0.6,1.7l0,0l-1.4,1l-2.1,2.5l-3.2-0.9l-2.4-1.9l-0.7,0l-1.6,1.9l-0.7,0
			l-1.2-1.3l-0.6-1.3l-1.4-1l-1.6-0.3l-2.8-0.3l-4,0.6l-3.2,1.8l-0.5,0.4l-0.1,1.3l0.6,1.5l0.8,4.3l-1.8,1.7l-1.8,0.3l-1.8,0.6
			l-0.3,0.8l0.4,2.4l-0.1,0.8l-0.7,1.3l-1.8,2.3l-0.7,0.5l0.1,0.7l0.8,2.3l1.5,2.5l-0.6,4.9l-1.2,1.7l-0.9,0.2l-1.5-0.2l-1.7,0.2
			l-0.6,0.1l-0.5,3.3l0,0l-2.5,2.2l0,0l-0.8,1.4l-1,0l-1.1-0.1l-0.8-0.5l-1.4,0.2l0,0l0.4-3.3l0.6-2.5l0.7-0.4l1-0.4l0.8-0.6l0.9-1
			l0.3-1.4l0.1-0.7l0-1.1l-0.1-2.7l-2.5-6.1l-0.9-4l-2.2-4.9l0.2-0.7l1.4-0.1l3.3-3.3l0.8-4l0-4.8L57,93l0.2-1l0-1.1L56.4,86
			l0.5-3.5l-2.3-2.9l-1.5-1.6L52.1,76l0,0l0.5-0.8l0.6-0.5l0.8-0.1l0,0l1.4,0.5L56.3,75.1L56.3,75.1z M-1066.3,69.5l-1.4,0.8
			l-0.9,0.1l-0.3,0.1l-1.5,1.1l-0.7,0.6l-0.3,0.3l-0.5,0l-0.1-0.7l0.4-2.5l0.1-0.4l0.1-0.3l0.4-0.6l0.7-0.2l4.5,0.5l0.1,0.4
			l-0.1,0.4L-1066.3,69.5L-1066.3,69.5z"/>
		<path id="CL-AR" class="st1" d="M27.1,301.5l0.1,0l0.6,0.2l1,0.4l2.6,1.2l6.5-8.6l0.3-1l0.1-0.7l0.1-1.2l-0.7-0.8l-1.1-0.4
			l-1.5-2.7l2.7-5.8l0.7-1.1l-0.2-3.4l-0.5-0.7l-1.9,0.1l-0.7-0.7l2.2-3.7l3.9-1.2l1.3,0.5l1.3,0.6l1.1,0.5l4.1,0.4l2.5-0.4l2.1,1.8
			l1.1,1.9l2.2,2.3l1.4,0.6l0.6,0.2l1,0l1.1,0.1l0.8,0.3l2.8,1.8l0.5,0.8l1.1,1l0.7,0.3l4.5,0.1l3.5-0.9l0.8-0.4l1.1,0.2l1.1,1.2
			l0.2,1.5l0,1.1l0.1,1.2l0.2,0.8l0.9,2.1l0.5,0.7l1.2,0.6l0.3-1l0.3-1l0.4-0.6l2.4-1.6l1.7-1.3l0.4-0.5l0.3-1.3l2.9-1.1l6.7-1.1
			l1.9,0l0,0l0.2,1.7l0,2.7l0.6,2.1l1.6,4.7l0.8,1.2l1.4,1.1l0.8,0.4l1.2,0.7l0.7,1.2l0.1,1.2l-0.4,3.9l-1.5,2.1l-0.6,0.4l-1.4,0.2
			l-0.9,0l-0.8,0.2l-1.2,0.8l-3.7,3l-2.5,2.1l-0.7,0.6l-0.8,1.1l-0.4,0.9l-0.1,1l0.2,2l0.2,1l0.4,0.9l0.6,2.3l1,4.1l0,3.4l-0.8,4.1
			l-0.3,4.9l0,1.4l-0.3,0.8l-2.7,0.5l-0.8-0.2l-1.5-1.5l-0.4,0.1l0,0l-0.2-0.8l-0.3-0.9l-0.5-0.8l-0.6,0l-2,0.2l-1.8-0.9l-0.9-0.7
			l-1-0.5l-0.8-0.1l-4.7,0.3l-0.8,0.3l-0.7,0.5l-0.7,0.9l-0.5,0.7l-0.7,0.5l-2.6,1.5l-1.1,0l-1.4-0.5l-4.5-0.9l-0.9,0.1l-2.1,0.7
			l-0.8,0.2l-0.9,0.1l-0.9-0.1l-0.8-0.4l-1-0.8l-1.1-1.4l-0.6-2.1l-0.7-0.4l-4.2,0.7l-1.2,2l-0.4,1.1l-0.7,0.9l-0.8,0.6l-0.9,0.2
			l-0.8,0l-0.8-0.1l-1-0.1l0,0l0.5-1.4l-0.8-4.1l-2.5-5.6L30.4,315l-2.5-5.4l-1.3-4.3l-0.1-1.2l0.2-2.2L27.1,301.5z"/>
		<path id="CL-LI" class="st1" d="M57.6,135.6l3,0.8l4.7-1l2.3,3.1l3.9,1l2.9,3.1l0.1,0l2.8-0.5l2.3-0.9l-0.3-1.5l0-0.8l3.2-5
			l2.2-1.8l0.8,0.1l2.1-0.5l1-0.9l3.2-1.8l1-0.2l1.1,0.2l0.7,0.5l1.7,3.6l0,1.8l2.1,0.4l0.7-0.3l0.7-0.7l0.8-0.2l0.6,0.3l0.6,1.4
			l0.2,2.3l0.2,0.7l1.1,0.9l1.5,0.3l0.8,0.4l0.3,0.7l0.1,0.7l0,0l-0.1,0.4l0.3,2.1l0.4,1.6l-2.3,5l-1.7,4.9l-0.9,7l-1.1,5.3l0,0
			l-0.2,0.1l-1.7,0.1l-5.3,0.2l-3.6-2l-1.4-1.1l-0.6-0.3l-8.5-1.2l-1.1-0.1l-0.8,0.1l-5.1,1.2l-2.1,2.4l0.2,0.8l0.3,1.2l-4.6-0.1
			l-4.4,0.4l-3.1-0.5l-4.2-1l-1.2-1.4l-2-1.8l-0.6-0.3l-0.9-0.2l0,0l0.1-1.4l-0.3-4.7l-0.5-2l-0.3-1.4l0.5-1.1l1-0.8l0.2-0.9
			l-0.3-1.8l-0.6-2.6l-0.7-0.7l-0.3-0.7l-0.1-1.2l2.5-6.8l0.6-1.1l0,0l1.4-0.2l0.8,0.5l1.1,0.1l1,0l0.8-1.4l0,0L57.6,135.6z"/>
		<path id="CL-LL" class="st1" d="M24.2,508.6l-0.5,0.6l-0.6,0.2l-0.8,0l-0.4,0.2l-0.5,0.3l-0.3,0.2l-0.9,1l-0.3,0l-0.5-0.2
			l-1.2-1.4l-0.2-0.3l-0.2-0.4l-0.2-0.4l0-0.7l2.3-1.6l0.3,0l2.7,0.9l0.3,0.2l0.8,0.6L24.2,508.6L24.2,508.6z M53.2,460.7l0.1,1.4
			l-0.6,0l-0.4-1l-0.2-0.4l-0.2-0.3l-0.5-0.3l-2.9-1l-0.4-0.1l-1-0.1l-0.5-0.2l-1.1-2.1l0-0.4l0.4-0.3l0.7-0.2l1-0.2l0.7,0.1
			l0.6,0.3L53.2,460.7L53.2,460.7z M35.5,435.4l-0.5,0.9l-0.8,0.1l-0.8-0.4l-0.6-0.1l-0.3,0.9l1.2,1l2.7,0.5l0.7-0.7l1.1-1l2.8-2.3
			l2.8-0.8l0.9,0l2.2,1.1l0.1,5.2l2.7,3.2l-0.3,1.4l-0.8,0.4l-0.1,0.9l0.5,1l2.2,1l0.8,0.1l1.1,2.1l-0.1,1.5l-0.2,0.9l-2.9,1.2
			l-1.6,0l-0.7,0.2l-1.8,1.4l-0.6,0.5l-0.4,0.8l0.3,3.3l1.1,0.8l0.8,0.3l0.5,0.5l-2.9,1.8l-1.8-1.2l0.3-1.6l-0.9,0.4l-0.5,1.7
			l0.9,3.5l6.3,4.7l1.5,0.3l1.8,0.9l0.6,0.5l0.7,2l-0.1,0.9l-2.2,0.7l-1.1,0.1l-0.9,0.7l0,1.6l1.1,1l1.7,1l0.3,0.6l1.3,1.8l0.9,0.9
			l0.5,1.2l-0.6,0.7l-6.6,0.4l-1.1,0.6l0.9,3.3L48,490l0.9,0.5l0.7,1.3l-0.1,3.6l-0.5,0.3l-3.7,1.4l-1.1-0.6l-0.9-0.6l-0.8-0.1
			l-2.7,0.3l-3.1,0l-3.9-0.5l-2.8-1l-0.6-0.4l-0.6-0.8l1.3-5.7l2.3-3.8l-0.6-1.2l0.8-1l0.8-3.4l-0.4-9.5l-0.6-2.7l-0.9-2l-0.6-0.4
			l-0.8-0.4l0-3.4l-0.5-7.2l0.2-0.7l0.4-0.9l0.5-0.8l1.2-1.5l0.4-3.2l0.1-6l-1.5-2.1l-0.4-0.8l-0.1-0.8l0.7-1.7l3.4-0.2L35.5,435.4
			L35.5,435.4z M30.7,375.3l8.8-0.6l2.1,2.6l2.9,0.2l4-4.1l4.8,1l3.6,4.7l4.4,2.2l5.8,3.8l6,1.4l2.8-4.5l1.8-3.7l4.5-1.2l5.4-0.1
			l0,0l0.1,1.6l0.2,1l-0.3,1.7l-0.5,0.9l-0.5,0.7l-0.8,0.9l-0.4,1.1l1.5,2.9l2.5,3.8l0.6,1.6l-0.3,2.2l0.8,1.7l0.4,7.1l0,1l-0.4,1.2
			l-0.1,2.5l0.3,1.1l1,1.7l1.2,4.4l-0.9,2.3l-0.5,0.9l0.2,1.1l2.5,4.2l2.4,3.4l0.5,1l0.7,2.2l0.4,2.1l1,1l0.5,2.5l-1.3,1.6l-3.5,2.4
			l-0.9,0l-0.4-1l-0.5-0.6l-1,0l-0.6,0.5l-0.5,0.7l-1.9,5.7l0.8,1.1l1.7,1.1l0.5,0.7l-1,6.5l-0.3,0.9l-0.1,0.9l0,0.9l0.8,3l0.8,2
			l0.3,1.6l0.7,3.7l0.1,1.1l-0.1,1.3l-0.2,0.9l-0.1,0.8l0.2,2l0.7,1.2l1.5,1.8l0.8,0.5l1.6,0.4l1.2-0.2l0.8-0.1l1.8-0.1l1,0.1l3,1.3
			l0.8,4l-0.1,0.8l-0.5,0.5l-1.1-0.1l-2.8,1.4l-0.6,2.6l0.2,2.7l2.8,1.5l4.9,3.4l0.7,2.5l-0.2,1l-1.7,1.5l-0.5,0.3l-0.6,0.4l0.2,1.2
			l1.8,2l2,1.6l0,0l-2.3-0.7l-1,0.2l-3.8,2.6l-0.2,1.7l-4,1l-0.5-1.5l-0.7-1l-1.1-1.1l-0.9-0.5l-1.3,0.1l-0.7-0.2l-2.8-3.4l-0.4-1.7
			l-1.5-0.3l-0.9,0.8l-1.1,1.5l-0.7,1.6l-0.2,1.7l-5.7-0.1l-1.9-0.2l-0.7-0.4l-1.9,0.2l0,0l-0.2-1.7l-0.2,1.4l0,0l-0.5,0l-0.8-0.2
			l-1.3-1l-1.4,0.5L71,507l0,0l-0.3-1.4l-0.5-4.7l-2.6-4.3l-0.4-0.9l0.2-5.3l0.5-0.8l1-0.9l0.8-0.6l0.6-0.5l0.6-0.3l1-0.6l-0.5-2.9
			l-0.8-1.6l0.1-1l0.8-2.3l0.9-1.3l1-0.1l2.2,1.1l-0.7-5.4l-1.1-1l-0.9-0.4l-1-0.7l-0.6-1.1l-0.7-2.2l-0.4-2.1l-0.7-5.6l0.6-2.7
			l0.6-0.4l2.6-0.2l0.9,0l0.7,0.7l2.5,1.2l0.9,0.1l0.3-0.5l-0.9-1.1l-1.4-0.2l-1-0.3l-1.3-0.8l-5.9-6.7l1.2-1.9l1.3-1.3l4.1-2l1,0.4
			l1.1,1.4l0.1,0.9l3.8,7.3l0.6,0.3l0.3-0.8l-0.7-2.9l-1.8-5l-0.6-1.6l-0.8-2.8l-0.1-1.1l0-1.5l0.1-1.1l0.1-1l-0.1-1.3l-0.6-0.3
			l-1.2,0.2l-0.8,1.3l-1.7,1.4l-3.7,0l-2.4-0.9l-1.5-1.5l0.1-1l1.2-2.7l3.7-5.1l1.2-0.1l1,0.1l2.9-1.2l1.9-1.3l1.4-1.7l0.4-0.7
			l-0.5-7.8l-1,0.5l0,7l-0.5,1.3l-1.9,1.3l-2.8,1.4l-1,0.2l-0.7-0.2l-1.3-0.7l-1.2-2.5l-1.2-1.2l-2.3-2l-1.2-0.5l-2.8-0.3l-2.1,1
			l-0.9,0.5l-1.4,3.1l0.6,1.5l0.6,0.4l0.7,2.2l-1.7,2.4l-1.7,1.7l-1,0.3l-2.1-0.2l-1-0.2l-1.9,0.3l-0.5,0.3l-1.3,0.9l-0.7,0.4
			l-0.5,0.1l-2-0.9l-3.5-0.2l-1.5,0.1l0-3l1-2.2l0.5-0.4l1-0.2l1,0l1-0.5l1.4-3.8l-0.8,1l-0.4,1.4l-0.5,0.9l-0.8,0.4l-3.5,0.2
			l-1.9-0.9l-3.2-2.9l-0.3-1.4l0.3-1.3l-0.5-2.6l-0.6-1.4l-1.4-2.7l-1.1-1l-0.6-0.9l-1.1-3.6l-1.3-4.2l0.8-4.4l2-9.5l1.1-1.9
			l0.8-2.7l-0.4-1.4l-1.1-2L30.7,375.3L30.7,375.3z"/>
		<path id="CL-ML" class="st1" d="M89.3,223.8l-0.2-0.1l-1-0.9l-0.5-1.2l-0.4-1l-1.1-0.4l-0.7,0.2l-0.5,0.5l-1.9,3.3l-0.1,1l0,0.8
			l-0.7,1.1l-1.2,0l-3.1-1.2l-0.7-0.5l-3.5-2.1l-2.5-0.4l-1.9-0.4l-1.2-0.5l-0.8-0.6l-0.5-0.8l-1-1.5l-1.9,0l-0.7,0.3l-0.7,0.4
			l-0.7,0.1l-1.6-0.1l-0.6-0.4l-0.3-0.6l-0.5-0.8l-2.6-2l-0.1,1.1l0.2,0.9l-1.7,2.7l-3.6,0.4l-0.8-0.1l-6-2.1l-4.7-3.1l-0.4-1.2
			l-0.5-0.4l-3.5-1l0,0l0.5-0.4l1.2-1.6l2.7-3.6l0.3-0.8l0.1-1.2l-0.3-1.3l-0.9-1.6l-1.7-2.8l-0.1-1l0.5-0.9l1.1-0.9l1.7-2l1.2-5
			l0.6-3.1l0.3-0.9l1-1.6l0.8-0.8l1-0.8l1.4-1.9l0.4-1.4l0-1.6l-0.1-1.1l-0.1-1.2l-0.1-1l0-2l1.1-3.8l0.6-0.8l0.4-1l0.4-2.2l0,0
			l0.9,0.2l0.6,0.3l2,1.8l1.2,1.4l4.2,1l3.1,0.5l4.4-0.4l4.6,0.1l-0.3-1.2l-0.2-0.8l2.1-2.4l5.1-1.2l0.8-0.1l1.1,0.1l8.5,1.2
			l0.6,0.3l1.4,1.1l3.6,2l5.3-0.2l1.7-0.1l0.2-0.1l0,0l0,0.3l0.2,1.4l0.2,1.3l0.2,0.7l0.1,1.6l-0.4,0.9l-1.9,1.3l-0.9,0.3l-1,0.2
			l-0.7,0.3l-0.5,1.2l0.1,0.9l0.6,0.9l0.6,0.3l3.5,1.5l1.5,5.2l0.3,3.6l-0.3,0.8l0.5,1.3l1.3,2.1l1.3,2.6l-0.8,0.9l-0.6,1.5
			l-0.2,0.8l0.5,2.8l0.9,3.7l-0.5,2.3l-0.3,0.6l-0.8,0.6l-1.1,0.1l-2.4,0.5l-2.8,4.3l0,2.7l0.9,1.6l-0.2,0.9l-6.8,3.6l-0.9,0
			L89.3,223.8z"/>
		<path id="CL-AP" class="st1" d="M64.2-360.5l-4.4,0.6l-2.4,3.3l-0.1,3.5l-4.4,1.2l-5.1-2.7l-8,1.2l-4,4.1l-4.1,3.5l-4.6,0.9l0,0
			l-0.1-1.2l0.2-0.8l-0.3-1.3l-2.7-8l-0.7-1.2l-1.2-5.9l0-1.8l0.2-4.3l-0.9-1l-0.8-0.6l-1.1-0.6l-0.3-0.1l0.4-0.5l0.6-0.5l1.1-0.3
			l2.3-0.1l1.4-0.1l0.6-0.1l1.3-0.4l3.9-2.2l0.8-0.8l2.2-3.2l0.6-0.9l1-3l0.4-1.7l0-1l-1.9-4.4l-0.3-0.5l-0.5-0.4l-0.4-0.5l-0.1-1.3
			l0.2-0.9l0.4-1l1.3,0l2.5-0.2l4.6-5.6l0.9,3.8l3.6,2.4l0.7,0.5l1.1,1.5l0.4,0.8l0.2,2l0.3,1l0.4,0.8l0.5,0.7l4.8,0.8l1.8,0
			l0.1,0.9l-0.2,0.6l-1,0.8l-0.5,0.6l-0.2,0.8l0.5,0.8l0.7,0.5l0.8,0.7l1.2,4.9l0.5,0.6l0.7,0.7l0.3,0.5l0.3,0.7l0,0.7l0,1.6
			l0.3,1.6l0.3,1.4l1.1,2.5l1.9,2.9l0.7,1L64.2-360.5z"/>
		<path id="CL-LR" class="st1" d="M87.6,377l-5.4,0.1l-4.5,1.2l-1.8,3.7l-2.8,4.5l-6-1.4l-5.8-3.8l-4.4-2.3l-3.6-4.7l-4.8-1l-4,4.1
			l-2.9-0.2l-2.1-2.6l-8.8,0.6l0,0l0.1-3.6l1.6-2.7l-0.5-2.2l-0.5-1l-0.9-0.8l-0.5-0.8l0.5-1l0.4-0.6l5.1-3.5l2.6,0.1l0.6-1.3
			l-0.7-4.4l1.3-5.8l0.3-0.9l0.6-2.8l0.5-3.1l-0.8-1.1l0,0l1,0.1l0.8,0.1l0.8,0l0.9-0.2l0.8-0.6l0.7-0.9l0.4-1.1l1.2-2l4.2-0.7
			l0.7,0.4l0.6,2.1l1.1,1.4l1,0.8l0.8,0.4l0.9,0.1l0.9-0.1l0.8-0.2l2.1-0.7l0.9-0.1l4.5,0.9l1.4,0.5l1.1,0l2.6-1.5l0.7-0.5l0.5-0.7
			l0.7-0.9l0.7-0.5l0.8-0.3l4.7-0.3l0.8,0.1l1,0.5l0.9,0.7l1.8,0.9l2-0.2l0.6,0l0.5,0.8l0.3,0.9l0.2,0.8l0,0l-0.2,0.3l-0.3,2
			l0.7,3.8l1.7,4.6l1.6,3.5l-0.4,3.8l-2.2,1.9l-1,1.1l-0.3,3.5l1,1.5l2.4,1.8l0.4-0.9l1.1,0.5l0.4,1.4l-0.7,2.8l-0.3,0.8l-0.5,0.2
			l-0.8-0.6l-0.6,0L87.6,377z"/>
		<path id="CL-BI" class="st1" d="M90,247.4l-0.7,0.3l-1.3-0.6l-0.7,0.4l-1.1,0.5l-1.2-0.2l-0.9-0.7l-0.9-0.2l-0.8-0.2l-0.4,0.7
			l-0.6,0l-1-0.4l-0.3-0.7l-1.1-0.6l-0.9-0.6l-0.8,0.4l0.1,0.8l0.1,0.7l0.1,0.9l-0.3,0.8l0.1,1.3l-0.7-0.2l-0.9,0.4l-1.1,0.2L74,251
			l-0.8-0.5l-0.8-0.2l-1.3-0.3l-1,0.3l-0.7,0.5l-0.3,1.2l-0.6,0.8l-1.1,0.6l-1.2,0.3l-0.9,0.1l-1.4-0.6l-0.5,0.1l-0.3,0.7l-0.6,0.1
			l-1.5-0.2l-1,0.9l-2.1-0.2l-1,0.5l-0.2-1.1l-0.2-1.2l0.1-1.3l0.9-0.6l1-1.4l-0.4-0.8l-0.7-0.2l-0.8-0.5l-1.1,0.2l-1.4-0.7l-2-2.2
			l-0.5,0.8l-1.5,0.1l-0.6-0.9l-0.8,0.1l-0.3,1l-4.3,0.2l0.2-1.3l2.6-0.2l-0.5-0.8l0.4-1l-1.1-0.4l-0.8-1.8l0.1-0.9l-0.6-1.4
			l-1.9-1.5l-1.7,0l-0.9-1.2l-0.8-0.6l-0.8,0.5l-0.9-2L37,233l0.5-0.8l-0.4-1.4l-1.3,0.2l-0.6-1.3l-0.1-0.4l-0.1,0.4l-0.8,3.7
			l-0.5,4.2l-0.2,2.8l-0.3,0.6l-0.5,0.4l-0.7,0.1l-0.9-0.1l-0.8-0.6l-1.1-0.3l0.6,7l0.4,6.6l-0.3,2.9l-0.3,1l-0.6,1l-0.6,0.7
			l-1.1,0.7l-1.5,0.7l-0.7,0.2l-0.6,0.1l-1.2,0.2l-2.5-0.7l-0.8-0.4l-1.5-1.3l-1.1,1.1l-0.2,0.9l-0.3,5.5l0.4,0.6l0.9,0.6l0.8,0.8
			l0.7,1L20,271l-0.1,1.5l-0.7,1l-0.9,1.5l-0.2,1l1.2,4.4l2.1,1.7l2.6,3.2l1.8,2.9l0.9,1.8l0.6,1.5l0.3,5.6l-0.3,0.8l-0.5,0.7
			l-0.3,1l0.7,1.8l0.1,0l0.6,0.2l1,0.4l2.6,1.2l6.5-8.6l0.3-1l0.1-0.7l0.1-1.2l-0.7-0.8l-1.1-0.4l-1.5-2.7l2.7-5.8l0.7-1.1l-0.2-3.4
			l-0.5-0.7l-1.9,0.1l-0.7-0.7l2.2-3.7l3.9-1.2l1.3,0.5l1.3,0.6l1.1,0.5l4.1,0.4l2.5-0.4l2.1,1.8l1.1,1.9l2.2,2.3l1.4,0.6l0.6,0.2
			l1,0l1.1,0.1l0.8,0.3l2.8,1.8l0.5,0.8l1.1,1l0.7,0.3l4.5,0.1l3.5-0.9L76,283l1.1,0.2l1.1,1.2l0.2,1.5l0,1.1l0.1,1.2l0.3,0.8
			l0.9,2.1l0.5,0.7l1.2,0.6l0.3-1l0.3-1l0.4-0.6l2.4-1.6l1.7-1.3l0.4-0.5l0.3-1.3l2.9-1.1l6.7-1.1l1.9,0l-0.2-1.4l-3.8-6.5l-1.1-1.5
			l-0.6-1.7l-0.9-1.6l-0.8-1.7l-0.3-1.4l0-1.2l0.4-0.7l0.9-0.9l-0.3-4.8l-0.4-0.8l-1-1l-0.8-0.9l-1.3-2.7l0.2-1.3l0.8-1.3l0.3-1.7
			L90,247.4L90,247.4z"/>
		<path id="CL-NU" class="st1" d="M35.5,212.9l-0.4,0.6l0.2,5.3l0.5,7.4l-0.7,3l0.1,0.4l0.6,1.3l1.3-0.2l0.4,1.4L37,233l0.6,1.1
			l0.9,2l0.8-0.5l0.8,0.6l0.9,1.2l1.7,0l1.9,1.5l0.6,1.4l-0.1,0.9l0.8,1.8l1.1,0.4l-0.4,1l0.5,0.8l-2.6,0.2l-0.2,1.3l4.3-0.2l0.3-1
			l0.8-0.1l0.6,0.9l1.5-0.1l0.5-0.8l2,2.2l1.4,0.7l1.1-0.2l0.8,0.5l0.7,0.2l0.4,0.8l-1,1.4l-0.9,0.6l-0.1,1.3l0.2,1.2l0.2,1.1l1-0.5
			l2.1,0.2l1-0.9l1.5,0.2l0.6-0.1l0.3-0.7l0.5-0.1l1.4,0.6l0.9-0.1l1.2-0.3l1.1-0.6l0.6-0.8l0.3-1.2l0.7-0.5l1-0.3l1.3,0.3l0.8,0.2
			L74,251l0.8-0.7l1.1-0.2l0.9-0.4l0.7,0.2l-0.1-1.3l0.3-0.8l-0.1-0.9l-0.1-0.7l-0.1-0.8l0.8-0.4l0.9,0.6l1.1,0.6l0.3,0.7l1,0.4
			l0.6,0l0.4-0.7l0.8,0.2l0.9,0.2l0.9,0.7l1.2,0.2l1.1-0.5l0.7-0.4l1.3,0.6l0.7-0.3l0-0.2l-1.8-4.9l-1.8-4.5l0.9-3.9l1.3-7.4
			l0.3-2.3l0.5-0.4l-0.2-0.1l-1-0.9l-0.5-1.2l-0.4-1l-1.1-0.4l-0.7,0.2l-0.5,0.5l-1.9,3.3l-0.1,1l0,0.8l-0.7,1.1l-1.2,0l-3.1-1.2
			l-0.7-0.5l-3.5-2.1l-2.5-0.4l-1.9-0.4l-1.2-0.5l-0.8-0.6l-0.5-0.8l-1-1.5l-1.9,0l-0.7,0.3l-0.7,0.4l-0.7,0.1l-1.6-0.1l-0.6-0.4
			l-0.3-0.6l-0.5-0.8l-2.6-2l-0.1,1.1l0.2,0.9l-1.7,2.7l-3.6,0.4l-0.8-0.1l-6-2.1l-4.8-3.1l-0.4-1.2l-0.5-0.4L35.5,212.9L35.5,212.9
			z"/>
	</g>
</g>
</svg>
